  0
SECTION
  2
HEADER
  9
$ACADVER
  1
AC1009
  9
$INSBASE
 10
0.0
 20
0.0
 30
0.0
  9
$EXTMIN
 10
0.0
 20
0.0
 30
0.0
  9
$EXTMAX
 10
2.4449999999999981
 20
1.175000008768418
 30
0.0
  9
$LIMMIN
 10
0.0
 20
0.0
  9
$LIMMAX
 10
12.0
 20
9.0
  9
$ORTHOMODE
 70
     0
  9
$REGENMODE
 70
     1
  9
$FILLMODE
 70
     0
  9
$QTEXTMODE
 70
     0
  9
$MIRRTEXT
 70
     0
  9
$DRAGMODE
 70
     2
  9
$LTSCALE
 40
1.0
  9
$OSMODE
 70
    37
  9
$ATTMODE
 70
     1
  9
$TEXTSIZE
 40
0.2
  9
$TRACEWID
 40
0.05
  9
$TEXTSTYLE
  7
STANDARD
  9
$CLAYER
  8
0
  9
$CELTYPE
  6
CONTINUOUS
  9
$CECOLOR
 62
   256
  9
$DIMSCALE
 40
1.0
  9
$DIMASZ
 40
0.18
  9
$DIMEXO
 40
0.0625
  9
$DIMDLI
 40
0.38
  9
$DIMRND
 40
0.0
  9
$DIMDLE
 40
0.0
  9
$DIMEXE
 40
0.18
  9
$DIMTP
 40
0.0
  9
$DIMTM
 40
0.0
  9
$DIMTXT
 40
0.18
  9
$DIMCEN
 40
0.09
  9
$DIMTSZ
 40
0.0
  9
$DIMTOL
 70
     0
  9
$DIMLIM
 70
     0
  9
$DIMTIH
 70
     1
  9
$DIMTOH
 70
     1
  9
$DIMSE1
 70
     0
  9
$DIMSE2
 70
     0
  9
$DIMTAD
 70
     0
  9
$DIMZIN
 70
     0
  9
$DIMBLK
  1

  9
$DIMASO
 70
     1
  9
$DIMSHO
 70
     1
  9
$DIMPOST
  1

  9
$DIMAPOST
  1

  9
$DIMALT
 70
     0
  9
$DIMALTD
 70
     2
  9
$DIMALTF
 40
25.3999999999999986
  9
$DIMLFAC
 40
1.0
  9
$DIMTOFL
 70
     0
  9
$DIMTVP
 40
0.0
  9
$DIMTIX
 70
     0
  9
$DIMSOXD
 70
     0
  9
$DIMSAH
 70
     0
  9
$DIMBLK1
  1

  9
$DIMBLK2
  1

  9
$DIMSTYLE
  2
STANDARD
  9
$DIMCLRD
 70
     0
  9
$DIMCLRE
 70
     0
  9
$DIMCLRT
 70
     0
  9
$DIMTFAC
 40
1.0
  9
$DIMGAP
 40
0.09
  9
$LUNITS
 70
     2
  9
$LUPREC
 70
     4
  9
$SKETCHINC
 40
0.1
  9
$FILLETRAD
 40
0.0
  9
$AUNITS
 70
     0
  9
$AUPREC
 70
     0
  9
$MENU
  1
.
  9
$ELEVATION
 40
0.0
  9
$PELEVATION
 40
0.0
  9
$THICKNESS
 40
0.0
  9
$LIMCHECK
 70
     0
  9
$BLIPMODE
 70
     0
  9
$CHAMFERA
 40
0.0
  9
$CHAMFERB
 40
0.0
  9
$SKPOLY
 70
     0
  9
$TDCREATE
 40
2458706.6875694449990988
  9
$TDUPDATE
 40
2458706.8114467589184642
  9
$TDINDWG
 40
0.017337963
  9
$TDUSRTIMER
 40
0.017337963
  9
$USRTIMER
 70
     1
  9
$ANGBASE
 50
0.0
  9
$ANGDIR
 70
     0
  9
$PDMODE
 70
     0
  9
$PDSIZE
 40
0.0
  9
$PLINEWID
 40
0.0
  9
$COORDS
 70
     1
  9
$SPLFRAME
 70
     0
  9
$SPLINETYPE
 70
     6
  9
$SPLINESEGS
 70
     8
  9
$ATTDIA
 70
     1
  9
$ATTREQ
 70
     1
  9
$HANDLING
 70
     1
  9
$HANDSEED
  5
802
  9
$SURFTAB1
 70
     6
  9
$SURFTAB2
 70
     6
  9
$SURFTYPE
 70
     6
  9
$SURFU
 70
     6
  9
$SURFV
 70
     6
  9
$UCSNAME
  2

  9
$UCSORG
 10
0.0
 20
0.0
 30
0.0
  9
$UCSXDIR
 10
1.0
 20
0.0
 30
0.0
  9
$UCSYDIR
 10
0.0
 20
1.0
 30
0.0
  9
$PUCSNAME
  2

  9
$PUCSORG
 10
0.0
 20
0.0
 30
0.0
  9
$PUCSXDIR
 10
1.0
 20
0.0
 30
0.0
  9
$PUCSYDIR
 10
0.0
 20
1.0
 30
0.0
  9
$USERI1
 70
     0
  9
$USERI2
 70
     0
  9
$USERI3
 70
     0
  9
$USERI4
 70
     0
  9
$USERI5
 70
     0
  9
$USERR1
 40
0.0
  9
$USERR2
 40
0.0
  9
$USERR3
 40
0.0
  9
$USERR4
 40
0.0
  9
$USERR5
 40
0.0
  9
$WORLDVIEW
 70
     1
  9
$SHADEDGE
 70
     3
  9
$SHADEDIF
 70
    70
  9
$TILEMODE
 70
     1
  9
$MAXACTVP
 70
    64
  9
$PLIMCHECK
 70
     0
  9
$PEXTMIN
 10
1.0000000000000000E+20
 20
1.0000000000000000E+20
 30
1.0000000000000000E+20
  9
$PEXTMAX
 10
-1.0000000000000000E+20
 20
-1.0000000000000000E+20
 30
-1.0000000000000000E+20
  9
$PLIMMIN
 10
0.0
 20
0.0
  9
$PLIMMAX
 10
12.0
 20
9.0
  9
$UNITMODE
 70
     0
  9
$VISRETAIN
 70
     1
  9
$PLINEGEN
 70
     0
  9
$PSLTSCALE
 70
     1
  0
ENDSEC
  0
SECTION
  2
TABLES
  0
TABLE
  2
VPORT
 70
     1
  0
VPORT
  2
*ACTIVE
 70
     0
 10
0.0
 20
0.0
 11
1.0
 21
1.0
 12
2.315172429116648
 22
1.008228232668283
 13
0.0
 23
0.0
 14
1.0
 24
1.0
 15
0.0
 25
0.0
 16
0.0
 26
0.0
 36
1.0
 17
0.0
 27
0.0
 37
0.0
 40
3.313217480324969
 41
2.2831541218637992
 42
50.0
 43
0.0
 44
0.0
 50
0.0
 51
0.0
 71
     0
 72
   100
 73
     1
 74
     0
 75
     0
 76
     0
 77
     0
 78
     0
  0
ENDTAB
  0
TABLE
  2
LTYPE
 70
     1
  0
LTYPE
  2
CONTINUOUS
 70
     0
  3
Solid line
 72
    65
 73
     0
 40
0.0
  0
ENDTAB
  0
TABLE
  2
LAYER
 70
   139
  0
LAYER
  2
0
 70
     0
 62
     7
  6
CONTINUOUS
  0
LAYER
  2
1
 70
     0
 62
    12
  6
CONTINUOUS
  0
LAYER
  2
16
 70
     0
 62
   132
  6
CONTINUOUS
  0
LAYER
  2
17
 70
     0
 62
   110
  6
CONTINUOUS
  0
LAYER
  2
18
 70
     0
 62
   110
  6
CONTINUOUS
  0
LAYER
  2
19
 70
     0
 62
    53
  6
CONTINUOUS
  0
LAYER
  2
20
 70
     0
 62
    31
  6
CONTINUOUS
  0
LAYER
  2
21
 70
     0
 62
   253
  6
CONTINUOUS
  0
LAYER
  2
22
 70
     0
 62
   253
  6
CONTINUOUS
  0
LAYER
  2
23
 70
     0
 62
    53
  6
CONTINUOUS
  0
LAYER
  2
24
 70
     0
 62
    53
  6
CONTINUOUS
  0
LAYER
  2
25
 70
     0
 62
   253
  6
CONTINUOUS
  0
LAYER
  2
26
 70
     0
 62
   253
  6
CONTINUOUS
  0
LAYER
  2
27
 70
     0
 62
   253
  6
CONTINUOUS
  0
LAYER
  2
28
 70
     0
 62
   253
  6
CONTINUOUS
  0
LAYER
  2
29
 70
     0
 62
   253
  6
CONTINUOUS
  0
LAYER
  2
30
 70
     0
 62
   253
  6
CONTINUOUS
  0
LAYER
  2
31
 70
     0
 62
   253
  6
CONTINUOUS
  0
LAYER
  2
32
 70
     0
 62
   253
  6
CONTINUOUS
  0
LAYER
  2
33
 70
     0
 62
    53
  6
CONTINUOUS
  0
LAYER
  2
34
 70
     0
 62
    53
  6
CONTINUOUS
  0
LAYER
  2
35
 70
     0
 62
   253
  6
CONTINUOUS
  0
LAYER
  2
36
 70
     0
 62
   253
  6
CONTINUOUS
  0
LAYER
  2
37
 70
     0
 62
   253
  6
CONTINUOUS
  0
LAYER
  2
38
 70
     0
 62
   253
  6
CONTINUOUS
  0
LAYER
  2
39
 70
     0
 62
    12
  6
CONTINUOUS
  0
LAYER
  2
40
 70
     0
 62
   132
  6
CONTINUOUS
  0
LAYER
  2
41
 70
     0
 62
    12
  6
CONTINUOUS
  0
LAYER
  2
42
 70
     0
 62
   132
  6
CONTINUOUS
  0
LAYER
  2
43
 70
     0
 62
   110
  6
CONTINUOUS
  0
LAYER
  2
44
 70
     0
 62
   253
  6
CONTINUOUS
  0
LAYER
  2
45
 70
     0
 62
   253
  6
CONTINUOUS
  0
LAYER
  2
46
 70
     0
 62
   140
  6
CONTINUOUS
  0
LAYER
  2
47
 70
     0
 62
   253
  6
CONTINUOUS
  0
LAYER
  2
48
 70
     0
 62
   253
  6
CONTINUOUS
  0
LAYER
  2
49
 70
     0
 62
   253
  6
CONTINUOUS
  0
LAYER
  2
51
 70
     0
 62
   253
  6
CONTINUOUS
  0
LAYER
  2
52
 70
     0
 62
   253
  6
CONTINUOUS
  0
LAYER
  2
100
 70
     0
 62
   253
  6
CONTINUOUS
  0
LAYER
  2
101
 70
     0
 62
   253
  6
CONTINUOUS
  0
LAYER
  2
102
 70
     0
 62
   253
  6
CONTINUOUS
  0
LAYER
  2
103
 70
     0
 62
   253
  6
CONTINUOUS
  0
LAYER
  2
104
 70
     0
 62
   253
  6
CONTINUOUS
  0
LAYER
  2
105
 70
     0
 62
   253
  6
CONTINUOUS
  0
LAYER
  2
106
 70
     0
 62
   253
  6
CONTINUOUS
  0
LAYER
  2
107
 70
     0
 62
   253
  6
CONTINUOUS
  0
LAYER
  2
108
 70
     0
 62
   253
  6
CONTINUOUS
  0
LAYER
  2
109
 70
     0
 62
   253
  6
CONTINUOUS
  0
LAYER
  2
110
 70
     0
 62
   253
  6
CONTINUOUS
  0
LAYER
  2
111
 70
     0
 62
   253
  6
CONTINUOUS
  0
LAYER
  2
112
 70
     0
 62
   253
  6
CONTINUOUS
  0
LAYER
  2
113
 70
     0
 62
   253
  6
CONTINUOUS
  0
LAYER
  2
116
 70
     0
 62
   253
  6
CONTINUOUS
  0
LAYER
  2
117
 70
     0
 62
   253
  6
CONTINUOUS
  0
LAYER
  2
118
 70
     0
 62
   253
  6
CONTINUOUS
  0
LAYER
  2
119
 70
     0
 62
   253
  6
CONTINUOUS
  0
LAYER
  2
120
 70
     0
 62
   253
  6
CONTINUOUS
  0
LAYER
  2
121
 70
     0
 62
   253
  6
CONTINUOUS
  0
LAYER
  2
122
 70
     0
 62
   253
  6
CONTINUOUS
  0
LAYER
  2
123
 70
     0
 62
   253
  6
CONTINUOUS
  0
LAYER
  2
124
 70
     0
 62
   253
  6
CONTINUOUS
  0
LAYER
  2
125
 70
     0
 62
   253
  6
CONTINUOUS
  0
LAYER
  2
126
 70
     0
 62
   253
  6
CONTINUOUS
  0
LAYER
  2
127
 70
     0
 62
   253
  6
CONTINUOUS
  0
LAYER
  2
128
 70
     0
 62
   253
  6
CONTINUOUS
  0
LAYER
  2
129
 70
     0
 62
   253
  6
CONTINUOUS
  0
LAYER
  2
130
 70
     0
 62
   253
  6
CONTINUOUS
  0
LAYER
  2
131
 70
     0
 62
   253
  6
CONTINUOUS
  0
LAYER
  2
132
 70
     0
 62
   253
  6
CONTINUOUS
  0
LAYER
  2
133
 70
     0
 62
   253
  6
CONTINUOUS
  0
LAYER
  2
134
 70
     0
 62
   253
  6
CONTINUOUS
  0
LAYER
  2
135
 70
     0
 62
   253
  6
CONTINUOUS
  0
LAYER
  2
136
 70
     0
 62
   253
  6
CONTINUOUS
  0
LAYER
  2
137
 70
     0
 62
   253
  6
CONTINUOUS
  0
LAYER
  2
138
 70
     0
 62
   253
  6
CONTINUOUS
  0
LAYER
  2
139
 70
     0
 62
   253
  6
CONTINUOUS
  0
LAYER
  2
140
 70
     0
 62
   253
  6
CONTINUOUS
  0
LAYER
  2
141
 70
     0
 62
   253
  6
CONTINUOUS
  0
LAYER
  2
142
 70
     0
 62
   253
  6
CONTINUOUS
  0
LAYER
  2
143
 70
     0
 62
   253
  6
CONTINUOUS
  0
LAYER
  2
144
 70
     0
 62
   253
  6
CONTINUOUS
  0
LAYER
  2
145
 70
     0
 62
   253
  6
CONTINUOUS
  0
LAYER
  2
146
 70
     0
 62
   253
  6
CONTINUOUS
  0
LAYER
  2
147
 70
     0
 62
   253
  6
CONTINUOUS
  0
LAYER
  2
148
 70
     0
 62
   253
  6
CONTINUOUS
  0
LAYER
  2
149
 70
     0
 62
   253
  6
CONTINUOUS
  0
LAYER
  2
150
 70
     0
 62
   253
  6
CONTINUOUS
  0
LAYER
  2
151
 70
     0
 62
   253
  6
CONTINUOUS
  0
LAYER
  2
152
 70
     0
 62
   253
  6
CONTINUOUS
  0
LAYER
  2
153
 70
     0
 62
   253
  6
CONTINUOUS
  0
LAYER
  2
154
 70
     0
 62
   253
  6
CONTINUOUS
  0
LAYER
  2
155
 70
     0
 62
   253
  6
CONTINUOUS
  0
LAYER
  2
191
 70
     0
 62
   253
  6
CONTINUOUS
  0
LAYER
  2
192
 70
     0
 62
   253
  6
CONTINUOUS
  0
LAYER
  2
193
 70
     0
 62
   253
  6
CONTINUOUS
  0
LAYER
  2
194
 70
     0
 62
   253
  6
CONTINUOUS
  0
LAYER
  2
195
 70
     0
 62
   253
  6
CONTINUOUS
  0
LAYER
  2
196
 70
     0
 62
   253
  6
CONTINUOUS
  0
LAYER
  2
199
 70
     0
 62
   253
  6
CONTINUOUS
  0
LAYER
  2
200
 70
     0
 62
   253
  6
CONTINUOUS
  0
LAYER
  2
201
 70
     0
 62
   253
  6
CONTINUOUS
  0
LAYER
  2
202
 70
     0
 62
   253
  6
CONTINUOUS
  0
LAYER
  2
203
 70
     0
 62
   253
  6
CONTINUOUS
  0
LAYER
  2
204
 70
     0
 62
   253
  6
CONTINUOUS
  0
LAYER
  2
205
 70
     0
 62
   253
  6
CONTINUOUS
  0
LAYER
  2
206
 70
     0
 62
   253
  6
CONTINUOUS
  0
LAYER
  2
207
 70
     0
 62
   253
  6
CONTINUOUS
  0
LAYER
  2
208
 70
     0
 62
   253
  6
CONTINUOUS
  0
LAYER
  2
209
 70
     0
 62
   253
  6
CONTINUOUS
  0
LAYER
  2
210
 70
     0
 62
   253
  6
CONTINUOUS
  0
LAYER
  2
211
 70
     0
 62
   253
  6
CONTINUOUS
  0
LAYER
  2
212
 70
     0
 62
   253
  6
CONTINUOUS
  0
LAYER
  2
213
 70
     0
 62
   253
  6
CONTINUOUS
  0
LAYER
  2
214
 70
     0
 62
   253
  6
CONTINUOUS
  0
LAYER
  2
215
 70
     0
 62
   253
  6
CONTINUOUS
  0
LAYER
  2
216
 70
     0
 62
   253
  6
CONTINUOUS
  0
LAYER
  2
217
 70
     0
 62
   253
  6
CONTINUOUS
  0
LAYER
  2
218
 70
     0
 62
   253
  6
CONTINUOUS
  0
LAYER
  2
219
 70
     0
 62
   253
  6
CONTINUOUS
  0
LAYER
  2
220
 70
     0
 62
   253
  6
CONTINUOUS
  0
LAYER
  2
221
 70
     0
 62
   253
  6
CONTINUOUS
  0
LAYER
  2
222
 70
     0
 62
   253
  6
CONTINUOUS
  0
LAYER
  2
223
 70
     0
 62
   253
  6
CONTINUOUS
  0
LAYER
  2
224
 70
     0
 62
   253
  6
CONTINUOUS
  0
LAYER
  2
225
 70
     0
 62
   253
  6
CONTINUOUS
  0
LAYER
  2
226
 70
     0
 62
   253
  6
CONTINUOUS
  0
LAYER
  2
227
 70
     0
 62
   253
  6
CONTINUOUS
  0
LAYER
  2
228
 70
     0
 62
   253
  6
CONTINUOUS
  0
LAYER
  2
229
 70
     0
 62
   253
  6
CONTINUOUS
  0
LAYER
  2
230
 70
     0
 62
   253
  6
CONTINUOUS
  0
LAYER
  2
231
 70
     0
 62
   253
  6
CONTINUOUS
  0
LAYER
  2
232
 70
     0
 62
   253
  6
CONTINUOUS
  0
LAYER
  2
233
 70
     0
 62
   253
  6
CONTINUOUS
  0
LAYER
  2
248
 70
     0
 62
   253
  6
CONTINUOUS
  0
LAYER
  2
249
 70
     0
 62
   253
  6
CONTINUOUS
  0
LAYER
  2
250
 70
     0
 62
   253
  6
CONTINUOUS
  0
LAYER
  2
251
 70
     0
 62
   253
  6
CONTINUOUS
  0
LAYER
  2
254
 70
     0
 62
   253
  6
CONTINUOUS
  0
LAYER
  2
255
 70
     0
 62
   253
  6
CONTINUOUS
  0
ENDTAB
  0
TABLE
  2
STYLE
 70
     2
  0
STYLE
  2
STANDARD
 70
     0
 40
0.0
 41
1.0
 50
0.0
 71
     0
 42
0.2
  3
txt
  4

  0
STYLE
  2
ANNOTATIVE
 70
     0
 40
0.0
 41
1.0
 50
0.0
 71
     0
 42
0.2
  3
txt
  4

  0
ENDTAB
  0
TABLE
  2
VIEW
 70
     0
  0
ENDTAB
  0
TABLE
  2
UCS
 70
     0
  0
ENDTAB
  0
TABLE
  2
APPID
 70
     5
  0
APPID
  2
ACAD
 70
     0
  0
APPID
  2
ACADANNOTATIVE
 70
     0
  0
APPID
  2
ACAD_EXEMPT_FROM_CAD_STANDARDS
 70
     0
  0
APPID
  2
ACAD_NAV_VCDISPLAY
 70
     0
  0
APPID
  2
ACAD_MLEADERVER
 70
     0
  0
ENDTAB
  0
TABLE
  2
DIMSTYLE
 70
     2
  0
DIMSTYLE
  2
STANDARD
 70
     0
  3

  4

  5

  6

  7

 40
1.0
 41
0.18
 42
0.0625
 43
0.38
 44
0.18
 45
0.0
 46
0.0
 47
0.0
 48
0.0
140
0.18
141
0.09
142
0.0
143
25.3999999999999986
144
1.0
145
0.0
146
1.0
147
0.09
 71
     0
 72
     0
 73
     1
 74
     1
 75
     0
 76
     0
 77
     0
 78
     0
170
     0
171
     2
172
     0
173
     0
174
     0
175
     0
176
     0
177
     0
178
     0
  0
DIMSTYLE
  2
ANNOTATIVE
 70
     0
  3

  4

  5

  6

  7

 40
1.0
 41
0.18
 42
0.0625
 43
0.38
 44
0.18
 45
0.0
 46
0.0
 47
0.0
 48
0.0
140
0.18
141
0.09
142
0.0
143
25.3999999999999986
144
1.0
145
0.0
146
1.0
147
0.09
 71
     0
 72
     0
 73
     1
 74
     1
 75
     0
 76
     0
 77
     0
 78
     0
170
     0
171
     2
172
     0
173
     0
174
     0
175
     0
176
     0
177
     0
178
     0
  0
ENDTAB
  0
ENDSEC
  0
SECTION
  2
BLOCKS
  0
BLOCK
  8
0
  2
$MODEL_SPACE
 70
     0
 10
0.0
 20
0.0
 30
0.0
  3
$MODEL_SPACE
  1

  0
ENDBLK
  5
71
  8
0
  0
BLOCK
 67
     1
  8
0
  2
$PAPER_SPACE
 70
     0
 10
0.0
 20
0.0
 30
0.0
  3
$PAPER_SPACE
  1

  0
ENDBLK
  5
6D
 67
     1
  8
0
  0
BLOCK
  8
0
  2
RECT
 70
     0
 10
0.0
 20
0.0
 30
0.0
  3
RECT
  1

  0
SOLID
  5
101
  8
0
 10
-0.5
 20
-0.5
 30
0.0
 11
0.5
 21
-0.5
 31
0.0
 12
-0.5
 22
0.5
 32
0.0
 13
0.5
 23
0.5
 33
0.0
  0
ENDBLK
  5
102
  8
0
  0
BLOCK
  8
0
  2
PIE
 70
     0
 10
0.0
 20
0.0
 30
0.0
  3
PIE
  1

  0
CIRCLE
  5
105
  8
0
 10
0.0
 20
0.0
 30
0.0
 40
0.5
  0
ENDBLK
  5
106
  8
0
  0
BLOCK
  8
0
  2
OCTAGONP
 70
     0
 10
0.0
 20
0.0
 30
0.0
  3
OCTAGONP
  1

  0
POLYLINE
  5
109
  8
0
 66
     1
 10
0.0
 20
0.0
 30
0.0
 70
     1
  0
VERTEX
  5
7EB
  8
0
 10
-0.5
 20
-0.207107
 30
0.0
  0
VERTEX
  5
7EC
  8
0
 10
-0.5
 20
0.207107
 30
0.0
  0
VERTEX
  5
7ED
  8
0
 10
-0.207107
 20
0.5
 30
0.0
  0
VERTEX
  5
7EE
  8
0
 10
0.207107
 20
0.5
 30
0.0
  0
VERTEX
  5
7EF
  8
0
 10
0.5
 20
0.207107
 30
0.0
  0
VERTEX
  5
7F0
  8
0
 10
0.5
 20
-0.207107
 30
0.0
  0
VERTEX
  5
7F1
  8
0
 10
0.207107
 20
-0.5
 30
0.0
  0
VERTEX
  5
7F2
  8
0
 10
-0.207107
 20
-0.5
 30
0.0
  0
SEQEND
  5
7F3
  8
0
  0
ENDBLK
  5
113
  8
0
  0
BLOCK
  8
0
  2
SQUAREP
 70
     0
 10
0.0
 20
0.0
 30
0.0
  3
SQUAREP
  1

  0
SOLID
  5
116
  8
0
 10
-0.5
 20
-0.5
 30
0.0
 11
0.5
 21
-0.5
 31
0.0
 12
-0.5
 22
0.5
 32
0.0
 13
0.5
 23
0.5
 33
0.0
  0
ENDBLK
  5
117
  8
0
  0
BLOCK
  8
0
  2
ROUNDP
 70
     0
 10
0.0
 20
0.0
 30
0.0
  3
ROUNDP
  1

  0
CIRCLE
  5
11A
  8
0
 10
0.0
 20
0.0
 30
0.0
 40
0.5
  0
ENDBLK
  5
11B
  8
0
  0
BLOCK
  8
0
  2
ANNULUSP
 70
     0
 10
0.0
 20
0.0
 30
0.0
  3
ANNULUSP
  1

  0
CIRCLE
  5
11E
  8
0
 10
0.0
 20
0.0
 30
0.0
 40
0.5
  0
ENDBLK
  5
11F
  8
0
  0
BLOCK
  8
0
  2
THERMALP
 70
     0
 10
0.0
 20
0.0
 30
0.0
  3
THERMALP
  1

  0
LINE
  5
122
  8
0
 10
-0.237868
 20
0.45
 30
0.0
 11
0.237868
 21
0.45
 31
0.0
  0
LINE
  5
123
  8
0
 10
0.45
 20
0.237868
 30
0.0
 11
0.45
 21
-0.237868
 31
0.0
  0
LINE
  5
124
  8
0
 10
0.237868
 20
-0.45
 30
0.0
 11
-0.237868
 21
-0.45
 31
0.0
  0
LINE
  5
125
  8
0
 10
-0.45
 20
-0.237868
 30
0.0
 11
-0.45
 21
0.237868
 31
0.0
  0
ENDBLK
  5
126
  8
0
  0
BLOCK
  8
0
  2
OCTAGONV
 70
     0
 10
0.0
 20
0.0
 30
0.0
  3
OCTAGONV
  1

  0
POLYLINE
  5
129
  8
0
 66
     1
 10
0.0
 20
0.0
 30
0.0
 70
     1
  0
VERTEX
  5
7F4
  8
0
 10
-0.5
 20
-0.207107
 30
0.0
  0
VERTEX
  5
7F5
  8
0
 10
-0.5
 20
0.207107
 30
0.0
  0
VERTEX
  5
7F6
  8
0
 10
-0.207107
 20
0.5
 30
0.0
  0
VERTEX
  5
7F7
  8
0
 10
0.207107
 20
0.5
 30
0.0
  0
VERTEX
  5
7F8
  8
0
 10
0.5
 20
0.207107
 30
0.0
  0
VERTEX
  5
7F9
  8
0
 10
0.5
 20
-0.207107
 30
0.0
  0
VERTEX
  5
7FA
  8
0
 10
0.207107
 20
-0.5
 30
0.0
  0
VERTEX
  5
7FB
  8
0
 10
-0.207107
 20
-0.5
 30
0.0
  0
SEQEND
  5
7FC
  8
0
  0
ENDBLK
  5
133
  8
0
  0
BLOCK
  8
0
  2
SQUAREV
 70
     0
 10
0.0
 20
0.0
 30
0.0
  3
SQUAREV
  1

  0
SOLID
  5
136
  8
0
 10
-0.5
 20
-0.5
 30
0.0
 11
0.5
 21
-0.5
 31
0.0
 12
-0.5
 22
0.5
 32
0.0
 13
0.5
 23
0.5
 33
0.0
  0
ENDBLK
  5
137
  8
0
  0
BLOCK
  8
0
  2
ROUNDV
 70
     0
 10
0.0
 20
0.0
 30
0.0
  3
ROUNDV
  1

  0
CIRCLE
  5
13A
  8
0
 10
0.0
 20
0.0
 30
0.0
 40
0.5
  0
ENDBLK
  5
13B
  8
0
  0
BLOCK
  8
0
  2
ANNULUSV
 70
     0
 10
0.0
 20
0.0
 30
0.0
  3
ANNULUSV
  1

  0
CIRCLE
  5
13E
  8
0
 10
0.0
 20
0.0
 30
0.0
 40
0.5
  0
ENDBLK
  5
13F
  8
0
  0
BLOCK
  8
0
  2
THERMALV
 70
     0
 10
0.0
 20
0.0
 30
0.0
  3
THERMALV
  1

  0
LINE
  5
142
  8
0
 10
-0.237868
 20
0.45
 30
0.0
 11
0.237868
 21
0.45
 31
0.0
  0
LINE
  5
143
  8
0
 10
0.45
 20
0.237868
 30
0.0
 11
0.45
 21
-0.237868
 31
0.0
  0
LINE
  5
144
  8
0
 10
0.237868
 20
-0.45
 30
0.0
 11
-0.237868
 21
-0.45
 31
0.0
  0
LINE
  5
145
  8
0
 10
-0.45
 20
-0.237868
 30
0.0
 11
-0.45
 21
0.237868
 31
0.0
  0
ENDBLK
  5
146
  8
0
  0
BLOCK
  8
0
  2
LONGP100
 70
     0
 10
0.0
 20
0.0
 30
0.0
  3
LONGP100
  1

  0
POLYLINE
  5
149
  8
0
 66
     1
 10
0.0
 20
0.0
 30
0.0
 70
     1
  0
VERTEX
  5
7FD
  8
0
 10
-0.5
 20
-0.5
 30
0.0
  0
VERTEX
  5
7FE
  8
0
 10
0.5
 20
-0.5
 30
0.0
 42
1.0
  0
VERTEX
  5
7FF
  8
0
 10
0.5
 20
0.5
 30
0.0
  0
VERTEX
  5
800
  8
0
 10
-0.5
 20
0.5
 30
0.0
 42
1.0
  0
SEQEND
  5
801
  8
0
  0
ENDBLK
  5
14F
  8
0
  0
BLOCK
  8
0
  2
A$CCF262F9F
 70
     0
 10
0.0
 20
0.0
 30
0.0
  3
A$CCF262F9F
  1

  0
LINE
  5
777
  8
20
 10
-0.0000000204203178
 20
1.0900000087684181
 30
0.0
 11
-0.0000000204203178
 21
0.0000000087684198
 31
0.0
  0
ENDBLK
  5
779
  8
0
  0
ENDSEC
  0
SECTION
  2
ENTITIES
  0
LINE
  5
150
  8
20
 10
0.17
 20
1.175
 30
0.0
 11
0.17
 21
0.085
 31
0.0
  0
LINE
  5
151
  8
20
 10
0.17
 20
0.085
 30
0.0
 11
2.4449999999999981
 21
0.085
 31
0.0
  0
LINE
  5
153
  8
20
 10
2.4449999999999981
 20
1.175
 30
0.0
 11
0.17
 21
1.175
 31
0.0
  0
CIRCLE
  5
1D2
  8
44
 10
1.623858
 20
0.4307090000000002
 30
0.0
 40
0.017717
  0
CIRCLE
  5
1D7
  8
44
 10
1.556929
 20
0.277165
 30
0.0
 40
0.017717
  0
CIRCLE
  5
1DC
  8
44
 10
1.49
 20
0.4307090000000002
 30
0.0
 40
0.017717
  0
CIRCLE
  5
1E1
  8
44
 10
1.423071
 20
0.277165
 30
0.0
 40
0.017717
  0
CIRCLE
  5
1E6
  8
44
 10
1.3561419999999991
 20
0.4307090000000002
 30
0.0
 40
0.017717
  0
CIRCLE
  5
20F
  8
44
 10
1.6100000000000001
 20
0.63
 30
0.0
 40
0.025984
  0
CIRCLE
  5
214
  8
44
 10
1.7099999999999991
 20
0.63
 30
0.0
 40
0.025984
  0
CIRCLE
  5
219
  8
44
 10
1.8100000000000001
 20
0.63
 30
0.0
 40
0.025984
  0
CIRCLE
  5
23E
  8
44
 10
1.8500000000000001
 20
0.29
 30
0.0
 40
0.016
  0
CIRCLE
  5
243
  8
44
 10
1.8500000000000001
 20
0.39
 30
0.0
 40
0.016
  0
CIRCLE
  5
261
  8
44
 10
0.775
 20
0.265
 30
0.0
 40
0.016
  0
CIRCLE
  5
266
  8
44
 10
0.775
 20
0.365
 30
0.0
 40
0.016
  0
CIRCLE
  5
280
  8
44
 10
0.905
 20
0.85
 30
0.0
 40
0.016
  0
CIRCLE
  5
285
  8
44
 10
0.505
 20
0.85
 30
0.0
 40
0.016
  0
CIRCLE
  5
2B2
  8
44
 10
1.409999999999999
 20
0.85
 30
0.0
 40
0.016
  0
CIRCLE
  5
2B7
  8
44
 10
1.01
 20
0.85
 30
0.0
 40
0.016
  0
CIRCLE
  5
2E4
  8
44
 10
1.909999999999999
 20
0.85
 30
0.0
 40
0.016
  0
CIRCLE
  5
2E9
  8
44
 10
1.5099999999999989
 20
0.85
 30
0.0
 40
0.016
  0
CIRCLE
  5
312
  8
44
 10
1.2350000000000001
 20
0.4450000000000001
 30
0.0
 40
0.021654
  0
CIRCLE
  5
317
  8
44
 10
0.9350000000000001
 20
0.4450000000000001
 30
0.0
 40
0.021654
  0
CIRCLE
  5
327
  8
44
 10
1.1200000000000001
 20
0.6400000000000002
 30
0.0
 40
0.025984
  0
CIRCLE
  5
32C
  8
44
 10
1.219999999999998
 20
0.6400000000000002
 30
0.0
 40
0.025984
  0
CIRCLE
  5
331
  8
44
 10
1.3200000000000001
 20
0.6400000000000002
 30
0.0
 40
0.025984
  0
CIRCLE
  5
362
  8
44
 10
1.229999999999998
 20
0.26
 30
0.0
 40
0.016
  0
CIRCLE
  5
367
  8
44
 10
0.93
 20
0.26
 30
0.0
 40
0.016
  0
INSERT
  5
3A0
  8
51
  2
RECT
 10
0.325
 20
0.29
 30
0.0
 41
0.02
 42
0.02
 50
270.0
  0
INSERT
  5
3A1
  8
51
  2
RECT
 10
0.325
 20
0.39
 30
0.0
 41
0.02
 42
0.02
 50
270.0
  0
INSERT
  5
3A2
  8
51
  2
RECT
 10
0.325
 20
0.4900000000000002
 30
0.0
 41
0.02
 42
0.02
 50
270.0
  0
INSERT
  5
3A3
  8
51
  2
RECT
 10
0.325
 20
0.19
 30
0.0
 41
0.02
 42
0.02
 50
270.0
  0
CIRCLE
  5
3A8
  8
44
 10
0.325
 20
0.4900000000000002
 30
0.0
 40
0.02
  0
CIRCLE
  5
3AD
  8
44
 10
0.325
 20
0.39
 30
0.0
 40
0.02
  0
CIRCLE
  5
3B2
  8
44
 10
0.325
 20
0.29
 30
0.0
 40
0.02
  0
CIRCLE
  5
3B7
  8
44
 10
0.325
 20
0.19
 30
0.0
 40
0.02
  0
INSERT
  5
417
  8
51
  2
RECT
 10
2.2349999999999981
 20
0.8339760000000001
 30
0.0
 41
0.098425
 42
0.019685
 50
180.0
  0
INSERT
  5
418
  8
51
  2
RECT
 10
2.1168900000000002
 20
0.6450000000000001
 30
0.0
 41
0.019685
 42
0.11811
 50
180.0
  0
INSERT
  5
419
  8
51
  2
RECT
 10
2.35311
 20
0.6450000000000001
 30
0.0
 41
0.007874
 42
0.098425
 50
180.0
  0
CIRCLE
  5
438
  8
44
 10
0.61
 20
0.6400000000000002
 30
0.0
 40
0.025984
  0
CIRCLE
  5
43D
  8
44
 10
0.71
 20
0.6400000000000002
 30
0.0
 40
0.025984
  0
CIRCLE
  5
442
  8
44
 10
0.8100000000000001
 20
0.6400000000000002
 30
0.0
 40
0.025984
  0
POINT
  5
452
  8
23
 10
0.0
 20
0.0
 30
0.0
  0
CIRCLE
  5
467
  8
44
 10
0.329528
 20
0.9933069999999998
 30
0.0
 40
0.019685
  0
CIRCLE
  5
46C
  8
44
 10
0.329528
 20
1.093307
 30
0.0
 40
0.019685
  0
CIRCLE
  5
471
  8
44
 10
0.429528
 20
0.9933069999999998
 30
0.0
 40
0.019685
  0
CIRCLE
  5
476
  8
44
 10
0.429528
 20
1.093307
 30
0.0
 40
0.019685
  0
CIRCLE
  5
47B
  8
44
 10
0.529528
 20
0.9933069999999998
 30
0.0
 40
0.019685
  0
CIRCLE
  5
480
  8
44
 10
0.529528
 20
1.093307
 30
0.0
 40
0.019685
  0
CIRCLE
  5
485
  8
44
 10
0.629528
 20
0.9933069999999998
 30
0.0
 40
0.019685
  0
CIRCLE
  5
48A
  8
44
 10
0.629528
 20
1.093307
 30
0.0
 40
0.019685
  0
CIRCLE
  5
48F
  8
44
 10
0.729528
 20
0.9933069999999998
 30
0.0
 40
0.019685
  0
CIRCLE
  5
494
  8
44
 10
0.729528
 20
1.093307
 30
0.0
 40
0.019685
  0
CIRCLE
  5
499
  8
44
 10
0.8295279999999999
 20
0.9933069999999998
 30
0.0
 40
0.019685
  0
CIRCLE
  5
49E
  8
44
 10
0.8295279999999999
 20
1.093307
 30
0.0
 40
0.019685
  0
CIRCLE
  5
4A3
  8
44
 10
0.9295279999999999
 20
0.9933069999999998
 30
0.0
 40
0.019685
  0
CIRCLE
  5
4A8
  8
44
 10
0.9295279999999999
 20
1.093307
 30
0.0
 40
0.019685
  0
CIRCLE
  5
4AD
  8
44
 10
1.029527999999998
 20
0.9933069999999998
 30
0.0
 40
0.019685
  0
CIRCLE
  5
4B2
  8
44
 10
1.029527999999998
 20
1.093307
 30
0.0
 40
0.019685
  0
CIRCLE
  5
4B7
  8
44
 10
1.1295280000000001
 20
0.9933069999999998
 30
0.0
 40
0.019685
  0
CIRCLE
  5
4BC
  8
44
 10
1.1295280000000001
 20
1.093307
 30
0.0
 40
0.019685
  0
CIRCLE
  5
4C1
  8
44
 10
1.229528
 20
0.9933069999999998
 30
0.0
 40
0.019685
  0
CIRCLE
  5
4C6
  8
44
 10
1.229528
 20
1.093307
 30
0.0
 40
0.019685
  0
CIRCLE
  5
4CB
  8
44
 10
1.329528
 20
0.9933069999999998
 30
0.0
 40
0.019685
  0
CIRCLE
  5
4D0
  8
44
 10
1.329528
 20
1.093307
 30
0.0
 40
0.019685
  0
CIRCLE
  5
4D5
  8
44
 10
1.4295279999999999
 20
0.9933069999999998
 30
0.0
 40
0.019685
  0
CIRCLE
  5
4DA
  8
44
 10
1.4295279999999999
 20
1.093307
 30
0.0
 40
0.019685
  0
CIRCLE
  5
4DF
  8
44
 10
1.5295279999999991
 20
0.9933069999999998
 30
0.0
 40
0.019685
  0
CIRCLE
  5
4E4
  8
44
 10
1.5295279999999991
 20
1.093307
 30
0.0
 40
0.019685
  0
CIRCLE
  5
4E9
  8
44
 10
1.6295280000000001
 20
0.9933069999999998
 30
0.0
 40
0.019685
  0
CIRCLE
  5
4EE
  8
44
 10
1.6295280000000001
 20
1.093307
 30
0.0
 40
0.019685
  0
CIRCLE
  5
4F3
  8
44
 10
1.7295279999999991
 20
0.9933069999999998
 30
0.0
 40
0.019685
  0
CIRCLE
  5
4F8
  8
44
 10
1.7295279999999991
 20
1.093307
 30
0.0
 40
0.019685
  0
CIRCLE
  5
4FD
  8
44
 10
1.8295279999999989
 20
0.9933069999999998
 30
0.0
 40
0.019685
  0
CIRCLE
  5
502
  8
44
 10
1.8295279999999989
 20
1.093307
 30
0.0
 40
0.019685
  0
CIRCLE
  5
507
  8
44
 10
1.929527999999999
 20
0.9933069999999998
 30
0.0
 40
0.019685
  0
CIRCLE
  5
50C
  8
44
 10
1.929527999999999
 20
1.093307
 30
0.0
 40
0.019685
  0
CIRCLE
  5
511
  8
44
 10
2.0295279999999991
 20
0.9933069999999998
 30
0.0
 40
0.019685
  0
CIRCLE
  5
516
  8
44
 10
2.0295279999999991
 20
1.093307
 30
0.0
 40
0.019685
  0
CIRCLE
  5
51B
  8
44
 10
2.1295280000000001
 20
0.9933069999999998
 30
0.0
 40
0.019685
  0
CIRCLE
  5
520
  8
44
 10
2.1295280000000001
 20
1.093307
 30
0.0
 40
0.019685
  0
CIRCLE
  5
525
  8
44
 10
2.2295279999999988
 20
0.9933069999999998
 30
0.0
 40
0.019685
  0
CIRCLE
  5
52A
  8
44
 10
2.2295279999999988
 20
1.093307
 30
0.0
 40
0.019685
  0
INSERT
  5
53B
  8
51
  2
RECT
 10
0.33
 20
0.72
 30
0.0
 41
0.02
 42
0.02
 50
270.0
  0
INSERT
  5
53C
  8
51
  2
RECT
 10
0.33
 20
0.6200000000000001
 30
0.0
 41
0.02
 42
0.02
 50
270.0
  0
CIRCLE
  5
541
  8
44
 10
0.33
 20
0.72
 30
0.0
 40
0.02
  0
CIRCLE
  5
546
  8
44
 10
0.33
 20
0.6200000000000001
 30
0.0
 40
0.02
  0
LINE
  5
77F
  8
20
 10
2.4449999795796811
 20
1.175000008768418
 30
0.0
 11
2.4449999795796811
 21
0.0850000087684198
 31
0.0
  0
ENDSEC
  0
EOF
