  0
SECTION
  2
HEADER
  9
$ACADVER
  1
AC1009
  9
$FILLMODE
 70
0
  9
$EXTMIN
 10
-0.040000
 20
-0.040000
 30
0.000000
  9
$EXTMAX
 10
2.660197
 20
1.178250
 30
0.000000
  0
ENDSEC
  0
SECTION
  2
TABLES
  0
TABLE
  2
LTYPE
 70
1
  0
LTYPE
  2
CONTINUOUS
 70
64
  3
Solid line
 72
65
 73
0
 40
0
  0
ENDTAB
  0
TABLE
  2
LAYER
 70
255
  0
LAYER
  2
1
 70
64
 62
12
  6
CONTINUOUS
  0
LAYER
  2
16
 70
64
 62
132
  6
CONTINUOUS
  0
LAYER
  2
17
 70
64
 62
110
  6
CONTINUOUS
  0
LAYER
  2
18
 70
64
 62
110
  6
CONTINUOUS
  0
LAYER
  2
19
 70
64
 62
53
  6
CONTINUOUS
  0
LAYER
  2
20
 70
64
 62
31
  6
CONTINUOUS
  0
LAYER
  2
21
 70
64
 62
253
  6
CONTINUOUS
  0
LAYER
  2
22
 70
64
 62
253
  6
CONTINUOUS
  0
LAYER
  2
23
 70
64
 62
53
  6
CONTINUOUS
  0
LAYER
  2
24
 70
64
 62
53
  6
CONTINUOUS
  0
LAYER
  2
25
 70
64
 62
253
  6
CONTINUOUS
  0
LAYER
  2
26
 70
64
 62
253
  6
CONTINUOUS
  0
LAYER
  2
27
 70
64
 62
253
  6
CONTINUOUS
  0
LAYER
  2
28
 70
64
 62
253
  6
CONTINUOUS
  0
LAYER
  2
29
 70
64
 62
253
  6
CONTINUOUS
  0
LAYER
  2
30
 70
64
 62
253
  6
CONTINUOUS
  0
LAYER
  2
31
 70
64
 62
253
  6
CONTINUOUS
  0
LAYER
  2
32
 70
64
 62
253
  6
CONTINUOUS
  0
LAYER
  2
33
 70
64
 62
53
  6
CONTINUOUS
  0
LAYER
  2
34
 70
64
 62
53
  6
CONTINUOUS
  0
LAYER
  2
35
 70
64
 62
253
  6
CONTINUOUS
  0
LAYER
  2
36
 70
64
 62
253
  6
CONTINUOUS
  0
LAYER
  2
37
 70
64
 62
253
  6
CONTINUOUS
  0
LAYER
  2
38
 70
64
 62
253
  6
CONTINUOUS
  0
LAYER
  2
39
 70
64
 62
12
  6
CONTINUOUS
  0
LAYER
  2
40
 70
64
 62
132
  6
CONTINUOUS
  0
LAYER
  2
41
 70
64
 62
12
  6
CONTINUOUS
  0
LAYER
  2
42
 70
64
 62
132
  6
CONTINUOUS
  0
LAYER
  2
43
 70
64
 62
110
  6
CONTINUOUS
  0
LAYER
  2
44
 70
64
 62
253
  6
CONTINUOUS
  0
LAYER
  2
45
 70
64
 62
253
  6
CONTINUOUS
  0
LAYER
  2
46
 70
64
 62
140
  6
CONTINUOUS
  0
LAYER
  2
47
 70
64
 62
253
  6
CONTINUOUS
  0
LAYER
  2
48
 70
64
 62
253
  6
CONTINUOUS
  0
LAYER
  2
49
 70
64
 62
253
  6
CONTINUOUS
  0
LAYER
  2
51
 70
64
 62
253
  6
CONTINUOUS
  0
LAYER
  2
52
 70
64
 62
253
  6
CONTINUOUS
  0
LAYER
  2
100
 70
64
 62
253
  6
CONTINUOUS
  0
LAYER
  2
101
 70
64
 62
253
  6
CONTINUOUS
  0
LAYER
  2
102
 70
64
 62
253
  6
CONTINUOUS
  0
LAYER
  2
103
 70
64
 62
253
  6
CONTINUOUS
  0
LAYER
  2
104
 70
64
 62
253
  6
CONTINUOUS
  0
LAYER
  2
105
 70
64
 62
253
  6
CONTINUOUS
  0
LAYER
  2
106
 70
64
 62
253
  6
CONTINUOUS
  0
LAYER
  2
107
 70
64
 62
253
  6
CONTINUOUS
  0
LAYER
  2
108
 70
64
 62
253
  6
CONTINUOUS
  0
LAYER
  2
109
 70
64
 62
253
  6
CONTINUOUS
  0
LAYER
  2
110
 70
64
 62
253
  6
CONTINUOUS
  0
LAYER
  2
111
 70
64
 62
253
  6
CONTINUOUS
  0
LAYER
  2
112
 70
64
 62
253
  6
CONTINUOUS
  0
LAYER
  2
113
 70
64
 62
253
  6
CONTINUOUS
  0
LAYER
  2
116
 70
64
 62
253
  6
CONTINUOUS
  0
LAYER
  2
117
 70
64
 62
253
  6
CONTINUOUS
  0
LAYER
  2
118
 70
64
 62
253
  6
CONTINUOUS
  0
LAYER
  2
119
 70
64
 62
253
  6
CONTINUOUS
  0
LAYER
  2
120
 70
64
 62
253
  6
CONTINUOUS
  0
LAYER
  2
121
 70
64
 62
253
  6
CONTINUOUS
  0
LAYER
  2
122
 70
64
 62
253
  6
CONTINUOUS
  0
LAYER
  2
123
 70
64
 62
253
  6
CONTINUOUS
  0
LAYER
  2
124
 70
64
 62
253
  6
CONTINUOUS
  0
LAYER
  2
125
 70
64
 62
253
  6
CONTINUOUS
  0
LAYER
  2
126
 70
64
 62
253
  6
CONTINUOUS
  0
LAYER
  2
127
 70
64
 62
253
  6
CONTINUOUS
  0
LAYER
  2
128
 70
64
 62
253
  6
CONTINUOUS
  0
LAYER
  2
129
 70
64
 62
253
  6
CONTINUOUS
  0
LAYER
  2
130
 70
64
 62
253
  6
CONTINUOUS
  0
LAYER
  2
131
 70
64
 62
253
  6
CONTINUOUS
  0
LAYER
  2
132
 70
64
 62
253
  6
CONTINUOUS
  0
LAYER
  2
133
 70
64
 62
253
  6
CONTINUOUS
  0
LAYER
  2
134
 70
64
 62
253
  6
CONTINUOUS
  0
LAYER
  2
135
 70
64
 62
253
  6
CONTINUOUS
  0
LAYER
  2
136
 70
64
 62
253
  6
CONTINUOUS
  0
LAYER
  2
137
 70
64
 62
253
  6
CONTINUOUS
  0
LAYER
  2
138
 70
64
 62
253
  6
CONTINUOUS
  0
LAYER
  2
139
 70
64
 62
253
  6
CONTINUOUS
  0
LAYER
  2
140
 70
64
 62
253
  6
CONTINUOUS
  0
LAYER
  2
141
 70
64
 62
253
  6
CONTINUOUS
  0
LAYER
  2
142
 70
64
 62
253
  6
CONTINUOUS
  0
LAYER
  2
143
 70
64
 62
253
  6
CONTINUOUS
  0
LAYER
  2
144
 70
64
 62
253
  6
CONTINUOUS
  0
LAYER
  2
145
 70
64
 62
253
  6
CONTINUOUS
  0
LAYER
  2
146
 70
64
 62
253
  6
CONTINUOUS
  0
LAYER
  2
147
 70
64
 62
253
  6
CONTINUOUS
  0
LAYER
  2
148
 70
64
 62
253
  6
CONTINUOUS
  0
LAYER
  2
149
 70
64
 62
253
  6
CONTINUOUS
  0
LAYER
  2
150
 70
64
 62
253
  6
CONTINUOUS
  0
LAYER
  2
151
 70
64
 62
253
  6
CONTINUOUS
  0
LAYER
  2
152
 70
64
 62
253
  6
CONTINUOUS
  0
LAYER
  2
153
 70
64
 62
253
  6
CONTINUOUS
  0
LAYER
  2
154
 70
64
 62
253
  6
CONTINUOUS
  0
LAYER
  2
155
 70
64
 62
253
  6
CONTINUOUS
  0
LAYER
  2
191
 70
64
 62
253
  6
CONTINUOUS
  0
LAYER
  2
192
 70
64
 62
253
  6
CONTINUOUS
  0
LAYER
  2
193
 70
64
 62
253
  6
CONTINUOUS
  0
LAYER
  2
194
 70
64
 62
253
  6
CONTINUOUS
  0
LAYER
  2
195
 70
64
 62
253
  6
CONTINUOUS
  0
LAYER
  2
196
 70
64
 62
253
  6
CONTINUOUS
  0
LAYER
  2
199
 70
64
 62
253
  6
CONTINUOUS
  0
LAYER
  2
200
 70
64
 62
253
  6
CONTINUOUS
  0
LAYER
  2
201
 70
64
 62
253
  6
CONTINUOUS
  0
LAYER
  2
202
 70
64
 62
253
  6
CONTINUOUS
  0
LAYER
  2
203
 70
64
 62
253
  6
CONTINUOUS
  0
LAYER
  2
204
 70
64
 62
253
  6
CONTINUOUS
  0
LAYER
  2
205
 70
64
 62
253
  6
CONTINUOUS
  0
LAYER
  2
206
 70
64
 62
253
  6
CONTINUOUS
  0
LAYER
  2
207
 70
64
 62
253
  6
CONTINUOUS
  0
LAYER
  2
208
 70
64
 62
253
  6
CONTINUOUS
  0
LAYER
  2
209
 70
64
 62
253
  6
CONTINUOUS
  0
LAYER
  2
210
 70
64
 62
253
  6
CONTINUOUS
  0
LAYER
  2
211
 70
64
 62
253
  6
CONTINUOUS
  0
LAYER
  2
212
 70
64
 62
253
  6
CONTINUOUS
  0
LAYER
  2
213
 70
64
 62
253
  6
CONTINUOUS
  0
LAYER
  2
214
 70
64
 62
253
  6
CONTINUOUS
  0
LAYER
  2
215
 70
64
 62
253
  6
CONTINUOUS
  0
LAYER
  2
216
 70
64
 62
253
  6
CONTINUOUS
  0
LAYER
  2
217
 70
64
 62
253
  6
CONTINUOUS
  0
LAYER
  2
218
 70
64
 62
253
  6
CONTINUOUS
  0
LAYER
  2
219
 70
64
 62
253
  6
CONTINUOUS
  0
LAYER
  2
220
 70
64
 62
253
  6
CONTINUOUS
  0
LAYER
  2
221
 70
64
 62
253
  6
CONTINUOUS
  0
LAYER
  2
222
 70
64
 62
253
  6
CONTINUOUS
  0
LAYER
  2
223
 70
64
 62
253
  6
CONTINUOUS
  0
LAYER
  2
224
 70
64
 62
253
  6
CONTINUOUS
  0
LAYER
  2
225
 70
64
 62
253
  6
CONTINUOUS
  0
LAYER
  2
226
 70
64
 62
253
  6
CONTINUOUS
  0
LAYER
  2
227
 70
64
 62
253
  6
CONTINUOUS
  0
LAYER
  2
228
 70
64
 62
253
  6
CONTINUOUS
  0
LAYER
  2
229
 70
64
 62
253
  6
CONTINUOUS
  0
LAYER
  2
230
 70
64
 62
253
  6
CONTINUOUS
  0
LAYER
  2
231
 70
64
 62
253
  6
CONTINUOUS
  0
LAYER
  2
232
 70
64
 62
253
  6
CONTINUOUS
  0
LAYER
  2
233
 70
64
 62
253
  6
CONTINUOUS
  0
LAYER
  2
248
 70
64
 62
253
  6
CONTINUOUS
  0
LAYER
  2
249
 70
64
 62
253
  6
CONTINUOUS
  0
LAYER
  2
250
 70
64
 62
253
  6
CONTINUOUS
  0
LAYER
  2
251
 70
64
 62
253
  6
CONTINUOUS
  0
LAYER
  2
254
 70
64
 62
253
  6
CONTINUOUS
  0
LAYER
  2
255
 70
64
 62
253
  6
CONTINUOUS
  0
ENDTAB
  0
ENDSEC
  0
SECTION
  2
BLOCKS
  0
BLOCK
  8
0
  2
RECT
 70
64
 10
0.000000
 20
0.000000
 30
0.000000
  3
RECT
  0
SOLID
  8
0
 10
-0.500000
 20
-0.500000
 30
0.000000
 11
0.500000
 21
-0.500000
 31
0.000000
 12
-0.500000
 22
0.500000
 32
0.000000
 13
0.500000
 23
0.500000
 33
0.000000
  0
ENDBLK
  8
0
  0
BLOCK
  8
0
  2
PIE
 70
64
 10
0.000000
 20
0.000000
 30
0.000000
  3
PIE
  0
CIRCLE
  8
0
 10
0.000000
 20
0.000000
 30
0.000000
 40
0.500000
  0
ENDBLK
  8
0
  0
BLOCK
  8
0
  2
OCTAGONP
 70
64
 10
0.000000
 20
0.000000
 30
0.000000
  3
OCTAGONP
  0
POLYLINE
  8
0
 66
1
 10
0.000000
 20
0.000000
 30
0.000000
 40
0.000000
 41
0.000000
 70
1
  0
VERTEX
  8
0
 10
-0.500000
 20
-0.207107
 30
0.000000
  0
VERTEX
  8
0
 10
-0.500000
 20
0.207107
 30
0.000000
  0
VERTEX
  8
0
 10
-0.207107
 20
0.500000
 30
0.000000
  0
VERTEX
  8
0
 10
0.207107
 20
0.500000
 30
0.000000
  0
VERTEX
  8
0
 10
0.500000
 20
0.207107
 30
0.000000
  0
VERTEX
  8
0
 10
0.500000
 20
-0.207107
 30
0.000000
  0
VERTEX
  8
0
 10
0.207107
 20
-0.500000
 30
0.000000
  0
VERTEX
  8
0
 10
-0.207107
 20
-0.500000
 30
0.000000
  0
SEQEND
  8
0
  0
ENDBLK
  8
0
  0
BLOCK
  8
0
  2
SQUAREP
 70
64
 10
0.000000
 20
0.000000
 30
0.000000
  3
SQUAREP
  0
SOLID
  8
0
 10
-0.500000
 20
-0.500000
 30
0.000000
 11
0.500000
 21
-0.500000
 31
0.000000
 12
-0.500000
 22
0.500000
 32
0.000000
 13
0.500000
 23
0.500000
 33
0.000000
  0
ENDBLK
  8
0
  0
BLOCK
  8
0
  2
ROUNDP
 70
64
 10
0.000000
 20
0.000000
 30
0.000000
  3
ROUNDP
  0
CIRCLE
  8
0
 10
0.000000
 20
0.000000
 30
0.000000
 40
0.500000
  0
ENDBLK
  8
0
  0
BLOCK
  8
0
  2
ANNULUSP
 70
64
 10
0.000000
 20
0.000000
 30
0.000000
  3
ANNULUSP
  0
CIRCLE
  8
0
 10
0.000000
 20
0.000000
 30
0.000000
 40
0.500000
  0
ENDBLK
  8
0
  0
BLOCK
  8
0
  2
THERMALP
 70
64
 10
0.000000
 20
0.000000
 30
0.000000
  3
THERMALP
  0
LINE
  8
0
 10
-0.237868
 20
0.450000
 30
0.000000
 11
0.237868
 21
0.450000
 31
0.000000
  0
LINE
  8
0
 10
0.450000
 20
0.237868
 30
0.000000
 11
0.450000
 21
-0.237868
 31
0.000000
  0
LINE
  8
0
 10
0.237868
 20
-0.450000
 30
0.000000
 11
-0.237868
 21
-0.450000
 31
0.000000
  0
LINE
  8
0
 10
-0.450000
 20
-0.237868
 30
0.000000
 11
-0.450000
 21
0.237868
 31
0.000000
  0
ENDBLK
  8
0
  0
BLOCK
  8
0
  2
OCTAGONV
 70
64
 10
0.000000
 20
0.000000
 30
0.000000
  3
OCTAGONV
  0
POLYLINE
  8
0
 66
1
 10
0.000000
 20
0.000000
 30
0.000000
 40
0.000000
 41
0.000000
 70
1
  0
VERTEX
  8
0
 10
-0.500000
 20
-0.207107
 30
0.000000
  0
VERTEX
  8
0
 10
-0.500000
 20
0.207107
 30
0.000000
  0
VERTEX
  8
0
 10
-0.207107
 20
0.500000
 30
0.000000
  0
VERTEX
  8
0
 10
0.207107
 20
0.500000
 30
0.000000
  0
VERTEX
  8
0
 10
0.500000
 20
0.207107
 30
0.000000
  0
VERTEX
  8
0
 10
0.500000
 20
-0.207107
 30
0.000000
  0
VERTEX
  8
0
 10
0.207107
 20
-0.500000
 30
0.000000
  0
VERTEX
  8
0
 10
-0.207107
 20
-0.500000
 30
0.000000
  0
SEQEND
  8
0
  0
ENDBLK
  8
0
  0
BLOCK
  8
0
  2
SQUAREV
 70
64
 10
0.000000
 20
0.000000
 30
0.000000
  3
SQUAREV
  0
SOLID
  8
0
 10
-0.500000
 20
-0.500000
 30
0.000000
 11
0.500000
 21
-0.500000
 31
0.000000
 12
-0.500000
 22
0.500000
 32
0.000000
 13
0.500000
 23
0.500000
 33
0.000000
  0
ENDBLK
  8
0
  0
BLOCK
  8
0
  2
ROUNDV
 70
64
 10
0.000000
 20
0.000000
 30
0.000000
  3
ROUNDV
  0
CIRCLE
  8
0
 10
0.000000
 20
0.000000
 30
0.000000
 40
0.500000
  0
ENDBLK
  8
0
  0
BLOCK
  8
0
  2
ANNULUSV
 70
64
 10
0.000000
 20
0.000000
 30
0.000000
  3
ANNULUSV
  0
CIRCLE
  8
0
 10
0.000000
 20
0.000000
 30
0.000000
 40
0.500000
  0
ENDBLK
  8
0
  0
BLOCK
  8
0
  2
THERMALV
 70
64
 10
0.000000
 20
0.000000
 30
0.000000
  3
THERMALV
  0
LINE
  8
0
 10
-0.237868
 20
0.450000
 30
0.000000
 11
0.237868
 21
0.450000
 31
0.000000
  0
LINE
  8
0
 10
0.450000
 20
0.237868
 30
0.000000
 11
0.450000
 21
-0.237868
 31
0.000000
  0
LINE
  8
0
 10
0.237868
 20
-0.450000
 30
0.000000
 11
-0.237868
 21
-0.450000
 31
0.000000
  0
LINE
  8
0
 10
-0.450000
 20
-0.237868
 30
0.000000
 11
-0.450000
 21
0.237868
 31
0.000000
  0
ENDBLK
  8
0
  0
BLOCK
  8
0
  2
LONGP100
 70
64
 10
0.000000
 20
0.000000
 30
0.000000
  3
LONGP100
  0
POLYLINE
  8
0
 66
1
 10
0.000000
 20
0.000000
 30
0.000000
 40
0.000000
 41
0.000000
 70
1
  0
VERTEX
  8
0
 10
-0.500000
 20
-0.500000
 30
0.000000
  0
VERTEX
  8
0
 10
0.500000
 20
-0.500000
 30
0.000000
 42
1.000000
  0
VERTEX
  8
0
 10
0.500000
 20
0.500000
 30
0.000000
  0
VERTEX
  8
0
 10
-0.500000
 20
0.500000
 30
0.000000
 42
1.000000
  0
SEQEND
  8
0
  0
ENDBLK
  8
0
  0
ENDSEC
  0
SECTION
  2
ENTITIES
  0
LINE
  8
20
 10
0.170000
 20
1.175000
 30
0.000000
 11
0.170000
 21
0.085000
 31
0.000000
  0
LINE
  8
20
 10
0.170000
 20
0.085000
 30
0.000000
 11
2.445000
 21
0.085000
 31
0.000000
  0
LINE
  8
20
 10
2.445000
 20
0.085000
 30
0.000000
 11
2.445000
 21
1.175000
 31
0.000000
  0
LINE
  8
20
 10
2.445000
 20
1.175000
 30
0.000000
 11
0.170000
 21
1.175000
 31
0.000000
  0
LINE
  8
27
 10
1.988000
 20
0.383000
 30
0.000000
 11
1.988000
 21
0.447000
 31
0.000000
  0
LINE
  8
27
 10
1.988000
 20
0.447000
 30
0.000000
 11
2.005778
 21
0.447000
 31
0.000000
  0
ARC
  8
27
 10
2.005778
 20
0.429222
 30
0.000000
 40
0.017778
 50
0.000000
 51
90.000000
  0
LINE
  8
27
 10
2.023555
 20
0.429222
 30
0.000000
 11
2.023555
 21
0.400778
 31
0.000000
  0
ARC
  8
27
 10
2.005778
 20
0.400778
 30
0.000000
 40
0.017778
 50
269.999603
 51
0.000000
  0
LINE
  8
27
 10
2.005778
 20
0.383000
 30
0.000000
 11
1.988000
 21
0.383000
 31
0.000000
  0
LINE
  8
27
 10
2.079489
 20
0.383000
 30
0.000000
 11
2.061711
 21
0.383000
 31
0.000000
  0
ARC
  8
27
 10
2.061711
 20
0.393667
 30
0.000000
 40
0.010667
 50
180.000000
 51
270.000000
  0
LINE
  8
27
 10
2.051045
 20
0.393667
 30
0.000000
 11
2.051045
 21
0.411444
 31
0.000000
  0
ARC
  8
27
 10
2.065267
 20
0.411444
 30
0.000000
 40
0.014222
 50
0.000000
 51
180.000000
  0
LINE
  8
27
 10
2.079489
 20
0.411444
 30
0.000000
 11
2.079489
 21
0.404333
 31
0.000000
  0
LINE
  8
27
 10
2.079489
 20
0.404333
 30
0.000000
 11
2.051045
 21
0.404333
 31
0.000000
  0
LINE
  8
27
 10
2.127490
 20
0.400778
 30
0.000000
 11
2.109713
 21
0.407889
 31
0.000000
  0
ARC
  8
27
 10
2.113137
 20
0.416448
 30
0.000000
 40
0.009219
 50
89.181839
 51
248.198754
  0
ARC
  8
27
 10
2.112692
 20
0.385293
 30
0.000000
 40
0.040377
 50
65.761067
 51
89.181785
  0
ARC
  8
27
 10
2.124067
 20
0.392218
 30
0.000000
 40
0.009219
 50
269.181833
 51
68.198759
  0
ARC
  8
27
 10
2.124796
 20
0.443293
 30
0.000000
 40
0.060299
 50
250.208940
 51
269.181811
  0
LINE
  8
27
 10
2.157577
 20
0.383000
 30
0.000000
 11
2.157577
 21
0.425667
 31
0.000000
  0
LINE
  8
27
 10
2.155799
 20
0.443444
 30
0.000000
 11
2.155799
 21
0.447000
 31
0.000000
  0
LINE
  8
27
 10
2.155799
 20
0.447000
 30
0.000000
 11
2.159355
 21
0.447000
 31
0.000000
  0
LINE
  8
27
 10
2.159355
 20
0.447000
 30
0.000000
 11
2.159355
 21
0.443444
 31
0.000000
  0
LINE
  8
27
 10
2.159355
 20
0.443444
 30
0.000000
 11
2.155799
 21
0.443444
 31
0.000000
  0
LINE
  8
27
 10
2.210486
 20
0.383000
 30
0.000000
 11
2.192708
 21
0.383000
 31
0.000000
  0
ARC
  8
27
 10
2.192708
 20
0.393667
 30
0.000000
 40
0.010667
 50
180.000000
 51
270.000000
  0
LINE
  8
27
 10
2.182042
 20
0.393667
 30
0.000000
 11
2.182042
 21
0.415000
 31
0.000000
  0
ARC
  8
27
 10
2.192708
 20
0.415000
 30
0.000000
 40
0.010667
 50
90.000000
 51
180.000000
  0
LINE
  8
27
 10
2.192708
 20
0.425667
 30
0.000000
 11
2.210486
 21
0.425667
 31
0.000000
  0
LINE
  8
27
 10
2.210486
 20
0.425667
 30
0.000000
 11
2.210486
 21
0.372333
 31
0.000000
  0
ARC
  8
27
 10
2.199819
 20
0.372333
 30
0.000000
 40
0.010667
 50
270.000661
 51
360.000000
  0
LINE
  8
27
 10
2.199820
 20
0.361667
 30
0.000000
 11
2.185597
 21
0.361667
 31
0.000000
  0
LINE
  8
27
 10
2.239768
 20
0.383000
 30
0.000000
 11
2.239768
 21
0.425667
 31
0.000000
  0
LINE
  8
27
 10
2.239768
 20
0.425667
 30
0.000000
 11
2.257546
 21
0.425667
 31
0.000000
  0
ARC
  8
27
 10
2.257546
 20
0.415000
 30
0.000000
 40
0.010667
 50
0.000661
 51
90.000000
  0
LINE
  8
27
 10
2.268212
 20
0.415000
 30
0.000000
 11
2.268212
 21
0.383000
 31
0.000000
  0
LINE
  8
27
 10
2.323598
 20
0.383000
 30
0.000000
 11
2.305821
 21
0.383000
 31
0.000000
  0
ARC
  8
27
 10
2.305821
 20
0.393667
 30
0.000000
 40
0.010667
 50
180.000000
 51
270.000000
  0
LINE
  8
27
 10
2.295154
 20
0.393667
 30
0.000000
 11
2.295154
 21
0.411444
 31
0.000000
  0
ARC
  8
27
 10
2.309376
 20
0.411444
 30
0.000000
 40
0.014222
 50
0.000000
 51
180.000000
  0
LINE
  8
27
 10
2.323598
 20
0.411444
 30
0.000000
 11
2.323598
 21
0.404333
 31
0.000000
  0
LINE
  8
27
 10
2.323598
 20
0.404333
 30
0.000000
 11
2.295154
 21
0.404333
 31
0.000000
  0
LINE
  8
27
 10
2.376645
 20
0.447000
 30
0.000000
 11
2.376645
 21
0.383000
 31
0.000000
  0
LINE
  8
27
 10
2.376645
 20
0.383000
 30
0.000000
 11
2.358867
 21
0.383000
 31
0.000000
  0
ARC
  8
27
 10
2.358867
 20
0.393667
 30
0.000000
 40
0.010667
 50
180.000000
 51
270.000000
  0
LINE
  8
27
 10
2.348200
 20
0.393667
 30
0.000000
 11
2.348200
 21
0.415000
 31
0.000000
  0
ARC
  8
27
 10
2.358867
 20
0.415000
 30
0.000000
 40
0.010667
 50
90.000000
 51
180.000000
  0
LINE
  8
27
 10
2.358867
 20
0.425667
 30
0.000000
 11
2.376645
 21
0.425667
 31
0.000000
  0
LINE
  8
27
 10
1.988000
 20
0.342000
 30
0.000000
 11
1.988000
 21
0.278000
 31
0.000000
  0
LINE
  8
27
 10
1.988000
 20
0.278000
 30
0.000000
 11
2.005778
 21
0.278000
 31
0.000000
  0
ARC
  8
27
 10
2.005778
 20
0.288667
 30
0.000000
 40
0.010667
 50
270.000000
 51
359.999339
  0
LINE
  8
27
 10
2.016444
 20
0.288667
 30
0.000000
 11
2.016444
 21
0.310000
 31
0.000000
  0
ARC
  8
27
 10
2.005778
 20
0.310000
 30
0.000000
 40
0.010667
 50
0.000000
 51
90.000000
  0
LINE
  8
27
 10
2.005778
 20
0.320667
 30
0.000000
 11
1.988000
 21
0.320667
 31
0.000000
  0
LINE
  8
27
 10
2.038995
 20
0.256667
 30
0.000000
 11
2.046106
 21
0.256667
 31
0.000000
  0
LINE
  8
27
 10
2.046106
 20
0.256667
 30
0.000000
 11
2.067439
 21
0.320667
 31
0.000000
  0
LINE
  8
27
 10
2.038995
 20
0.320667
 30
0.000000
 11
2.053217
 21
0.278000
 31
0.000000
  0
LINE
  8
27
 10
2.117992
 20
0.320667
 30
0.000000
 11
2.139326
 21
0.320667
 31
0.000000
  0
LINE
  8
27
 10
2.125103
 20
0.342000
 30
0.000000
 11
2.125103
 21
0.288667
 31
0.000000
  0
ARC
  8
27
 10
2.135770
 20
0.288667
 30
0.000000
 40
0.010667
 50
180.000000
 51
270.000000
  0
LINE
  8
27
 10
2.135770
 20
0.278000
 30
0.000000
 11
2.139326
 21
0.278000
 31
0.000000
  0
LINE
  8
27
 10
2.164126
 20
0.278000
 30
0.000000
 11
2.164126
 21
0.342000
 31
0.000000
  0
LINE
  8
27
 10
2.164126
 20
0.320667
 30
0.000000
 11
2.181904
 21
0.320667
 31
0.000000
  0
ARC
  8
27
 10
2.181904
 20
0.310000
 30
0.000000
 40
0.010667
 50
0.000661
 51
90.000000
  0
LINE
  8
27
 10
2.192571
 20
0.310000
 30
0.000000
 11
2.192571
 21
0.278000
 31
0.000000
  0
LINE
  8
27
 10
2.247957
 20
0.278000
 30
0.000000
 11
2.230179
 21
0.278000
 31
0.000000
  0
ARC
  8
27
 10
2.230179
 20
0.288667
 30
0.000000
 40
0.010667
 50
180.000000
 51
270.000000
  0
LINE
  8
27
 10
2.219513
 20
0.288667
 30
0.000000
 11
2.219513
 21
0.306444
 31
0.000000
  0
ARC
  8
27
 10
2.233735
 20
0.306444
 30
0.000000
 40
0.014222
 50
0.000000
 51
180.000000
  0
LINE
  8
27
 10
2.247957
 20
0.306444
 30
0.000000
 11
2.247957
 21
0.299333
 31
0.000000
  0
LINE
  8
27
 10
2.247957
 20
0.299333
 30
0.000000
 11
2.219513
 21
0.299333
 31
0.000000
  0
LINE
  8
27
 10
1.988000
 20
0.173000
 30
0.000000
 11
1.988000
 21
0.237000
 31
0.000000
  0
LINE
  8
27
 10
1.988000
 20
0.237000
 30
0.000000
 11
2.016444
 21
0.237000
 31
0.000000
  0
LINE
  8
27
 10
1.988000
 20
0.208555
 30
0.000000
 11
2.016444
 21
0.208555
 31
0.000000
  0
LINE
  8
27
 10
2.038619
 20
0.187222
 30
0.000000
 11
2.038619
 21
0.201444
 31
0.000000
  0
ARC
  8
27
 10
2.052841
 20
0.201444
 30
0.000000
 40
0.014222
 50
0.000000
 51
180.000000
  0
LINE
  8
27
 10
2.067063
 20
0.201444
 30
0.000000
 11
2.067063
 21
0.187222
 31
0.000000
  0
ARC
  8
27
 10
2.052841
 20
0.187222
 30
0.000000
 40
0.014222
 50
180.000000
 51
0.000000
  0
LINE
  8
27
 10
2.094339
 20
0.173000
 30
0.000000
 11
2.094339
 21
0.215667
 31
0.000000
  0
LINE
  8
27
 10
2.094339
 20
0.215667
 30
0.000000
 11
2.115673
 21
0.215667
 31
0.000000
  0
LINE
  8
27
 10
2.115673
 20
0.215667
 30
0.000000
 11
2.115673
 21
0.208555
 31
0.000000
  0
LINE
  8
27
 10
2.163188
 20
0.173000
 30
0.000000
 11
2.145410
 21
0.173000
 31
0.000000
  0
ARC
  8
27
 10
2.145410
 20
0.183667
 30
0.000000
 40
0.010667
 50
180.000000
 51
270.000000
  0
LINE
  8
27
 10
2.134744
 20
0.183667
 30
0.000000
 11
2.134744
 21
0.205000
 31
0.000000
  0
ARC
  8
27
 10
2.145410
 20
0.205000
 30
0.000000
 40
0.010667
 50
90.000000
 51
180.000000
  0
LINE
  8
27
 10
2.145410
 20
0.215667
 30
0.000000
 11
2.163188
 21
0.215667
 31
0.000000
  0
LINE
  8
27
 10
2.163188
 20
0.215667
 30
0.000000
 11
2.163188
 21
0.162333
 31
0.000000
  0
ARC
  8
27
 10
2.152521
 20
0.162333
 30
0.000000
 40
0.010667
 50
270.000661
 51
360.000000
  0
LINE
  8
27
 10
2.152521
 20
0.151667
 30
0.000000
 11
2.138299
 21
0.151667
 31
0.000000
  0
LINE
  8
27
 10
2.218863
 20
0.173000
 30
0.000000
 11
2.201085
 21
0.173000
 31
0.000000
  0
ARC
  8
27
 10
2.201085
 20
0.183667
 30
0.000000
 40
0.010667
 50
180.000000
 51
270.000000
  0
LINE
  8
27
 10
2.190418
 20
0.183667
 30
0.000000
 11
2.190418
 21
0.201444
 31
0.000000
  0
ARC
  8
27
 10
2.204641
 20
0.201444
 30
0.000000
 40
0.014222
 50
0.000000
 51
180.000000
  0
LINE
  8
27
 10
2.218863
 20
0.201444
 30
0.000000
 11
2.218863
 21
0.194333
 31
0.000000
  0
LINE
  8
27
 10
2.218863
 20
0.194333
 30
0.000000
 11
2.190418
 21
0.194333
 31
0.000000
  0
POINT
  8
23
 10
1.490000
 20
0.100000
 30
0.000000
  0
LINE
  8
51
 10
1.563622
 20
0.107874
 30
0.000000
 11
1.563622
 21
0.111811
 31
0.000000
  0
LINE
  8
51
 10
1.563622
 20
0.115748
 30
0.000000
 11
1.563622
 21
0.119685
 31
0.000000
  0
LINE
  8
51
 10
1.563622
 20
0.123622
 30
0.000000
 11
1.563622
 21
0.127559
 31
0.000000
  0
LINE
  8
51
 10
1.563622
 20
0.139370
 30
0.000000
 11
1.563622
 21
0.146063
 31
0.000000
  0
LINE
  8
51
 10
1.416378
 20
0.146063
 30
0.000000
 11
1.416378
 21
0.139370
 31
0.000000
  0
LINE
  8
51
 10
1.416378
 20
0.135433
 30
0.000000
 11
1.416378
 21
0.131496
 31
0.000000
  0
LINE
  8
51
 10
1.416378
 20
0.127559
 30
0.000000
 11
1.416378
 21
0.123622
 31
0.000000
  0
LINE
  8
51
 10
1.416378
 20
0.119685
 30
0.000000
 11
1.416378
 21
0.115748
 31
0.000000
  0
LINE
  8
51
 10
1.416378
 20
0.111811
 30
0.000000
 11
1.416378
 21
0.107874
 31
0.000000
  0
LINE
  8
21
 10
1.686850
 20
0.103937
 30
0.000000
 11
1.686850
 21
0.147244
 31
0.000000
  0
LINE
  8
51
 10
1.682913
 20
0.147244
 30
0.000000
 11
1.682913
 21
0.241732
 31
0.000000
  0
LINE
  8
51
 10
1.682913
 20
0.241732
 30
0.000000
 11
1.667165
 21
0.277165
 31
0.000000
  0
LINE
  8
51
 10
1.667165
 20
0.277165
 30
0.000000
 11
1.312835
 21
0.277165
 31
0.000000
  0
LINE
  8
51
 10
1.312835
 20
0.277165
 30
0.000000
 11
1.297087
 21
0.241732
 31
0.000000
  0
LINE
  8
51
 10
1.297087
 20
0.241732
 30
0.000000
 11
1.297087
 21
0.147244
 31
0.000000
  0
LINE
  8
21
 10
1.293150
 20
0.147244
 30
0.000000
 11
1.293150
 21
0.103937
 31
0.000000
  0
LINE
  8
21
 10
1.293150
 20
0.103937
 30
0.000000
 11
1.686850
 21
0.103937
 31
0.000000
  0
LINE
  8
21
 10
1.686850
 20
0.147244
 30
0.000000
 11
1.293150
 21
0.147244
 31
0.000000
  0
LINE
  8
51
 10
1.563622
 20
0.131496
 30
0.000000
 11
1.563622
 21
0.135433
 31
0.000000
  0
LINE
  8
51
 10
1.682913
 20
0.241732
 30
0.000000
 11
1.297087
 21
0.241732
 31
0.000000
  0
INSERT
  8
51
  2
RECT
 10
1.623858
 20
0.416929
 30
0.000000
 41
0.031496
 42
0.043307
 43
1.000000
 50
180.000000
  0
INSERT
  8
51
  2
RECT
 10
1.490000
 20
0.416929
 30
0.000000
 41
0.031496
 42
0.043307
 43
1.000000
 50
180.000000
  0
INSERT
  8
51
  2
RECT
 10
1.356142
 20
0.416929
 30
0.000000
 41
0.031496
 42
0.043307
 43
1.000000
 50
180.000000
  0
INSERT
  8
51
  2
RECT
 10
1.623858
 20
0.336220
 30
0.000000
 41
0.031496
 42
0.118110
 43
1.000000
 50
180.000000
  0
INSERT
  8
51
  2
RECT
 10
1.490000
 20
0.336220
 30
0.000000
 41
0.031496
 42
0.118110
 43
1.000000
 50
180.000000
  0
INSERT
  8
51
  2
RECT
 10
1.356142
 20
0.336220
 30
0.000000
 41
0.031496
 42
0.118110
 43
1.000000
 50
180.000000
  0
INSERT
  8
51
  2
RECT
 10
1.556929
 20
0.281102
 30
0.000000
 41
0.031496
 42
0.007874
 43
1.000000
 50
180.000000
  0
INSERT
  8
51
  2
RECT
 10
1.423071
 20
0.281102
 30
0.000000
 41
0.031496
 42
0.007874
 43
1.000000
 50
180.000000
  0
INSERT
  8
17
  2
LONGP100
 10
1.623858
 20
0.430709
 30
0.000000
 41
0.055433
 42
0.055433
 43
1.000000
 50
270.000000
  0
INSERT
  8
17
  2
LONGP100
 10
1.623858
 20
0.430709
 30
0.000000
 41
0.055433
 42
0.055433
 43
1.000000
 50
270.000000
  0
INSERT
  8
29
  2
LONGP100
 10
1.623858
 20
0.430709
 30
0.000000
 41
0.063433
 42
0.063433
 43
1.000000
 50
270.000000
  0
INSERT
  8
30
  2
LONGP100
 10
1.623858
 20
0.430709
 30
0.000000
 41
0.063433
 42
0.063433
 43
1.000000
 50
270.000000
  0
CIRCLE
  8
44
 10
1.623858
 20
0.430709
 30
0.000000
 40
0.017717
  0
INSERT
  8
17
  2
LONGP100
 10
1.556929
 20
0.277165
 30
0.000000
 41
0.055433
 42
0.055433
 43
1.000000
 50
270.000000
  0
INSERT
  8
17
  2
LONGP100
 10
1.556929
 20
0.277165
 30
0.000000
 41
0.055433
 42
0.055433
 43
1.000000
 50
270.000000
  0
INSERT
  8
29
  2
LONGP100
 10
1.556929
 20
0.277165
 30
0.000000
 41
0.063433
 42
0.063433
 43
1.000000
 50
270.000000
  0
INSERT
  8
30
  2
LONGP100
 10
1.556929
 20
0.277165
 30
0.000000
 41
0.063433
 42
0.063433
 43
1.000000
 50
270.000000
  0
CIRCLE
  8
44
 10
1.556929
 20
0.277165
 30
0.000000
 40
0.017717
  0
INSERT
  8
17
  2
LONGP100
 10
1.490000
 20
0.430709
 30
0.000000
 41
0.055433
 42
0.055433
 43
1.000000
 50
270.000000
  0
INSERT
  8
17
  2
LONGP100
 10
1.490000
 20
0.430709
 30
0.000000
 41
0.055433
 42
0.055433
 43
1.000000
 50
270.000000
  0
INSERT
  8
29
  2
LONGP100
 10
1.490000
 20
0.430709
 30
0.000000
 41
0.063433
 42
0.063433
 43
1.000000
 50
270.000000
  0
INSERT
  8
30
  2
LONGP100
 10
1.490000
 20
0.430709
 30
0.000000
 41
0.063433
 42
0.063433
 43
1.000000
 50
270.000000
  0
CIRCLE
  8
44
 10
1.490000
 20
0.430709
 30
0.000000
 40
0.017717
  0
INSERT
  8
17
  2
LONGP100
 10
1.423071
 20
0.277165
 30
0.000000
 41
0.055433
 42
0.055433
 43
1.000000
 50
270.000000
  0
INSERT
  8
17
  2
LONGP100
 10
1.423071
 20
0.277165
 30
0.000000
 41
0.055433
 42
0.055433
 43
1.000000
 50
270.000000
  0
INSERT
  8
29
  2
LONGP100
 10
1.423071
 20
0.277165
 30
0.000000
 41
0.063433
 42
0.063433
 43
1.000000
 50
270.000000
  0
INSERT
  8
30
  2
LONGP100
 10
1.423071
 20
0.277165
 30
0.000000
 41
0.063433
 42
0.063433
 43
1.000000
 50
270.000000
  0
CIRCLE
  8
44
 10
1.423071
 20
0.277165
 30
0.000000
 40
0.017717
  0
INSERT
  8
17
  2
LONGP100
 10
1.356142
 20
0.430709
 30
0.000000
 41
0.055433
 42
0.055433
 43
1.000000
 50
270.000000
  0
INSERT
  8
17
  2
LONGP100
 10
1.356142
 20
0.430709
 30
0.000000
 41
0.055433
 42
0.055433
 43
1.000000
 50
270.000000
  0
INSERT
  8
29
  2
LONGP100
 10
1.356142
 20
0.430709
 30
0.000000
 41
0.063433
 42
0.063433
 43
1.000000
 50
270.000000
  0
INSERT
  8
30
  2
LONGP100
 10
1.356142
 20
0.430709
 30
0.000000
 41
0.063433
 42
0.063433
 43
1.000000
 50
270.000000
  0
CIRCLE
  8
44
 10
1.356142
 20
0.430709
 30
0.000000
 40
0.017717
  0
LINE
  8
25
 10
1.372000
 20
0.167000
 30
0.000000
 11
1.387333
 21
0.167000
 31
0.000000
  0
ARC
  8
25
 10
1.387333
 20
0.177222
 30
0.000000
 40
0.010222
 50
270.000000
 51
0.000000
  0
LINE
  8
25
 10
1.397555
 20
0.177222
 30
0.000000
 11
1.397555
 21
0.182333
 31
0.000000
  0
ARC
  8
25
 10
1.387333
 20
0.182333
 30
0.000000
 40
0.010222
 50
0.000000
 51
90.000000
  0
LINE
  8
25
 10
1.387333
 20
0.192555
 30
0.000000
 11
1.372000
 21
0.192555
 31
0.000000
  0
LINE
  8
25
 10
1.372000
 20
0.192555
 30
0.000000
 11
1.372000
 21
0.213000
 31
0.000000
  0
LINE
  8
25
 10
1.372000
 20
0.213000
 30
0.000000
 11
1.397555
 21
0.213000
 31
0.000000
  0
LINE
  8
25
 10
1.414444
 20
0.213000
 30
0.000000
 11
1.429778
 21
0.167000
 31
0.000000
  0
LINE
  8
25
 10
1.429778
 20
0.167000
 30
0.000000
 11
1.445111
 21
0.213000
 31
0.000000
  0
LINE
  8
25
 10
1.463790
 20
0.167000
 30
0.000000
 11
1.463790
 21
0.213000
 31
0.000000
  0
LINE
  8
25
 10
1.463790
 20
0.213000
 30
0.000000
 11
1.476567
 21
0.213000
 31
0.000000
  0
ARC
  8
25
 10
1.476567
 20
0.200222
 30
0.000000
 40
0.012778
 50
270.000000
 51
90.000000
  0
LINE
  8
25
 10
1.476567
 20
0.187444
 30
0.000000
 11
1.463790
 21
0.187444
 31
0.000000
  0
LINE
  8
25
 10
1.489345
 20
0.167000
 30
0.000000
 11
1.479123
 21
0.187444
 31
0.000000
  0
LINE
  8
25
 10
1.530533
 20
0.167000
 30
0.000000
 11
1.510089
 21
0.167000
 31
0.000000
  0
LINE
  8
25
 10
1.510089
 20
0.167000
 30
0.000000
 11
1.510089
 21
0.213000
 31
0.000000
  0
LINE
  8
25
 10
1.510089
 20
0.213000
 30
0.000000
 11
1.530533
 21
0.213000
 31
0.000000
  0
LINE
  8
25
 10
1.510089
 20
0.192555
 30
0.000000
 11
1.525422
 21
0.192555
 31
0.000000
  0
LINE
  8
25
 10
1.566889
 20
0.192555
 30
0.000000
 11
1.574555
 21
0.192555
 31
0.000000
  0
LINE
  8
25
 10
1.574555
 20
0.192555
 30
0.000000
 11
1.574555
 21
0.167000
 31
0.000000
  0
LINE
  8
25
 10
1.574555
 20
0.167000
 30
0.000000
 11
1.559222
 21
0.167000
 31
0.000000
  0
ARC
  8
25
 10
1.559222
 20
0.177222
 30
0.000000
 40
0.010222
 50
180.000000
 51
270.000000
  0
LINE
  8
25
 10
1.549000
 20
0.177222
 30
0.000000
 11
1.549000
 21
0.202778
 31
0.000000
  0
ARC
  8
25
 10
1.559222
 20
0.202778
 30
0.000000
 40
0.010222
 50
90.000690
 51
180.000000
  0
LINE
  8
25
 10
1.559222
 20
0.213000
 30
0.000000
 11
1.574555
 21
0.213000
 31
0.000000
  0
POINT
  8
23
 10
1.710000
 20
0.630000
 30
0.000000
  0
LINE
  8
21
 10
1.510000
 20
0.562283
 30
0.000000
 11
1.910000
 21
0.562283
 31
0.000000
  0
LINE
  8
21
 10
1.910000
 20
0.562283
 30
0.000000
 11
1.910000
 21
0.747323
 31
0.000000
  0
LINE
  8
21
 10
1.910000
 20
0.747323
 30
0.000000
 11
1.510000
 21
0.747323
 31
0.000000
  0
LINE
  8
21
 10
1.510000
 20
0.747323
 30
0.000000
 11
1.510000
 21
0.562283
 31
0.000000
  0
LINE
  8
39
 10
1.501732
 20
0.757165
 30
0.000000
 11
1.924961
 21
0.757165
 31
0.000000
  0
LINE
  8
39
 10
1.924961
 20
0.757165
 30
0.000000
 11
1.924961
 21
0.551260
 31
0.000000
  0
LINE
  8
39
 10
1.924961
 20
0.551260
 30
0.000000
 11
1.501732
 21
0.551260
 31
0.000000
  0
LINE
  8
39
 10
1.501732
 20
0.551260
 30
0.000000
 11
1.501732
 21
0.757165
 31
0.000000
  0
LINE
  8
21
 10
1.509213
 20
0.716614
 30
0.000000
 11
1.910787
 21
0.716614
 31
0.000000
  0
CIRCLE
  8
21
 10
1.610000
 20
0.531575
 30
0.000000
 40
0.007874
  0
INSERT
  8
17
  2
SQUAREP
 10
1.610000
 20
0.630000
 30
0.000000
 41
0.077953
 42
0.077953
 43
1.000000
 50
0.000000
  0
INSERT
  8
17
  2
SQUAREP
 10
1.610000
 20
0.630000
 30
0.000000
 41
0.077953
 42
0.077953
 43
1.000000
 50
0.000000
  0
INSERT
  8
29
  2
SQUAREP
 10
1.610000
 20
0.630000
 30
0.000000
 41
0.085953
 42
0.085953
 43
1.000000
 50
0.000000
  0
INSERT
  8
30
  2
SQUAREP
 10
1.610000
 20
0.630000
 30
0.000000
 41
0.085953
 42
0.085953
 43
1.000000
 50
0.000000
  0
CIRCLE
  8
44
 10
1.610000
 20
0.630000
 30
0.000000
 40
0.025984
  0
INSERT
  8
17
  2
ROUNDP
 10
1.710000
 20
0.630000
 30
0.000000
 41
0.077953
 42
0.077953
 43
1.000000
 50
0.000000
  0
INSERT
  8
17
  2
ROUNDP
 10
1.710000
 20
0.630000
 30
0.000000
 41
0.077953
 42
0.077953
 43
1.000000
 50
0.000000
  0
INSERT
  8
29
  2
ROUNDP
 10
1.710000
 20
0.630000
 30
0.000000
 41
0.085953
 42
0.085953
 43
1.000000
 50
0.000000
  0
INSERT
  8
30
  2
ROUNDP
 10
1.710000
 20
0.630000
 30
0.000000
 41
0.085953
 42
0.085953
 43
1.000000
 50
0.000000
  0
CIRCLE
  8
44
 10
1.710000
 20
0.630000
 30
0.000000
 40
0.025984
  0
INSERT
  8
17
  2
ROUNDP
 10
1.810000
 20
0.630000
 30
0.000000
 41
0.077953
 42
0.077953
 43
1.000000
 50
0.000000
  0
INSERT
  8
17
  2
ROUNDP
 10
1.810000
 20
0.630000
 30
0.000000
 41
0.077953
 42
0.077953
 43
1.000000
 50
0.000000
  0
INSERT
  8
29
  2
ROUNDP
 10
1.810000
 20
0.630000
 30
0.000000
 41
0.085953
 42
0.085953
 43
1.000000
 50
0.000000
  0
INSERT
  8
30
  2
ROUNDP
 10
1.810000
 20
0.630000
 30
0.000000
 41
0.085953
 42
0.085953
 43
1.000000
 50
0.000000
  0
CIRCLE
  8
44
 10
1.810000
 20
0.630000
 30
0.000000
 40
0.025984
  0
LINE
  8
25
 10
1.645048
 20
0.785209
 30
0.000000
 11
1.655325
 21
0.785209
 31
0.000000
  0
ARC
  8
25
 10
1.655325
 20
0.774931
 30
0.000000
 40
0.010278
 50
270.000000
 51
90.000000
  0
LINE
  8
25
 10
1.655325
 20
0.764654
 30
0.000000
 11
1.645048
 21
0.764654
 31
0.000000
  0
LINE
  8
25
 10
1.645048
 20
0.764654
 30
0.000000
 11
1.645048
 21
0.801654
 31
0.000000
  0
LINE
  8
25
 10
1.645048
 20
0.801654
 30
0.000000
 11
1.655325
 21
0.801654
 31
0.000000
  0
ARC
  8
25
 10
1.655325
 20
0.793431
 30
0.000000
 40
0.008222
 50
270.000000
 51
90.000000
  0
LINE
  8
25
 10
1.680600
 20
0.801654
 30
0.000000
 11
1.680600
 21
0.764654
 31
0.000000
  0
LINE
  8
25
 10
1.680600
 20
0.764654
 30
0.000000
 11
1.697044
 21
0.764654
 31
0.000000
  0
LINE
  8
25
 10
1.711731
 20
0.801654
 30
0.000000
 11
1.711731
 21
0.774931
 31
0.000000
  0
ARC
  8
25
 10
1.722008
 20
0.774931
 30
0.000000
 40
0.010278
 50
180.000000
 51
0.000000
  0
LINE
  8
25
 10
1.732286
 20
0.774931
 30
0.000000
 11
1.732286
 21
0.801654
 31
0.000000
  0
LINE
  8
25
 10
1.766644
 20
0.764654
 30
0.000000
 11
1.750199
 21
0.764654
 31
0.000000
  0
LINE
  8
25
 10
1.750199
 20
0.764654
 30
0.000000
 11
1.750199
 21
0.801654
 31
0.000000
  0
LINE
  8
25
 10
1.750199
 20
0.801654
 30
0.000000
 11
1.766644
 21
0.801654
 31
0.000000
  0
LINE
  8
25
 10
1.750199
 20
0.785209
 30
0.000000
 11
1.762533
 21
0.785209
 31
0.000000
  0
POINT
  8
23
 10
1.850000
 20
0.340000
 30
0.000000
  0
LINE
  8
21
 10
1.800000
 20
0.255000
 30
0.000000
 11
1.800000
 21
0.425000
 31
0.000000
  0
LINE
  8
21
 10
1.900000
 20
0.425000
 30
0.000000
 11
1.900000
 21
0.255000
 31
0.000000
  0
LINE
  8
21
 10
1.810000
 20
0.435000
 30
0.000000
 11
1.890000
 21
0.435000
 31
0.000000
  0
LINE
  8
21
 10
1.810000
 20
0.245000
 30
0.000000
 11
1.890000
 21
0.245000
 31
0.000000
  0
ARC
  8
21
 10
1.810000
 20
0.425000
 30
0.000000
 40
0.010000
 50
90.000000
 51
180.000000
  0
ARC
  8
21
 10
1.810000
 20
0.255000
 30
0.000000
 40
0.010000
 50
180.000000
 51
270.000000
  0
ARC
  8
21
 10
1.890000
 20
0.425000
 30
0.000000
 40
0.010000
 50
0.000000
 51
90.000000
  0
ARC
  8
21
 10
1.890000
 20
0.255000
 30
0.000000
 40
0.010000
 50
270.000000
 51
0.000000
  0
LINE
  8
51
 10
1.850000
 20
0.390000
 30
0.000000
 11
1.850000
 21
0.355000
 31
0.000000
  0
LINE
  8
21
 10
1.850000
 20
0.355000
 30
0.000000
 11
1.850000
 21
0.350000
 31
0.000000
  0
LINE
  8
21
 10
1.850000
 20
0.350000
 30
0.000000
 11
1.820000
 21
0.350000
 31
0.000000
  0
LINE
  8
21
 10
1.850000
 20
0.350000
 30
0.000000
 11
1.880000
 21
0.350000
 31
0.000000
  0
LINE
  8
21
 10
1.820000
 20
0.330000
 30
0.000000
 11
1.850000
 21
0.330000
 31
0.000000
  0
LINE
  8
21
 10
1.850000
 20
0.330000
 30
0.000000
 11
1.880000
 21
0.330000
 31
0.000000
  0
LINE
  8
21
 10
1.850000
 20
0.330000
 30
0.000000
 11
1.850000
 21
0.325000
 31
0.000000
  0
LINE
  8
51
 10
1.850000
 20
0.325000
 30
0.000000
 11
1.850000
 21
0.290000
 31
0.000000
  0
INSERT
  8
17
  2
OCTAGONP
 10
1.850000
 20
0.290000
 30
0.000000
 41
0.063000
 42
0.063000
 43
1.000000
 50
90.000000
  0
INSERT
  8
17
  2
OCTAGONP
 10
1.850000
 20
0.290000
 30
0.000000
 41
0.063000
 42
0.063000
 43
1.000000
 50
90.000000
  0
INSERT
  8
29
  2
OCTAGONP
 10
1.850000
 20
0.290000
 30
0.000000
 41
0.071000
 42
0.071000
 43
1.000000
 50
90.000000
  0
INSERT
  8
30
  2
OCTAGONP
 10
1.850000
 20
0.290000
 30
0.000000
 41
0.071000
 42
0.071000
 43
1.000000
 50
90.000000
  0
CIRCLE
  8
44
 10
1.850000
 20
0.290000
 30
0.000000
 40
0.016000
  0
INSERT
  8
17
  2
OCTAGONP
 10
1.850000
 20
0.390000
 30
0.000000
 41
0.063000
 42
0.063000
 43
1.000000
 50
90.000000
  0
INSERT
  8
17
  2
OCTAGONP
 10
1.850000
 20
0.390000
 30
0.000000
 41
0.063000
 42
0.063000
 43
1.000000
 50
90.000000
  0
INSERT
  8
29
  2
OCTAGONP
 10
1.850000
 20
0.390000
 30
0.000000
 41
0.071000
 42
0.071000
 43
1.000000
 50
90.000000
  0
INSERT
  8
30
  2
OCTAGONP
 10
1.850000
 20
0.390000
 30
0.000000
 41
0.071000
 42
0.071000
 43
1.000000
 50
90.000000
  0
CIRCLE
  8
44
 10
1.850000
 20
0.390000
 30
0.000000
 40
0.016000
  0
LINE
  8
25
 10
1.787500
 20
0.297500
 30
0.000000
 11
1.787500
 21
0.287500
 31
0.000000
  0
ARC
  8
25
 10
1.777500
 20
0.287500
 30
0.000000
 40
0.010000
 50
270.000000
 51
0.000000
  0
LINE
  8
25
 10
1.777500
 20
0.277500
 30
0.000000
 11
1.752500
 21
0.277500
 31
0.000000
  0
ARC
  8
25
 10
1.752500
 20
0.287500
 30
0.000000
 40
0.010000
 50
180.000000
 51
270.000000
  0
LINE
  8
25
 10
1.742500
 20
0.287500
 30
0.000000
 11
1.742500
 21
0.297500
 31
0.000000
  0
LINE
  8
25
 10
1.752500
 20
0.315147
 30
0.000000
 11
1.742500
 21
0.327647
 31
0.000000
  0
LINE
  8
25
 10
1.742500
 20
0.327647
 30
0.000000
 11
1.787500
 21
0.327647
 31
0.000000
  0
LINE
  8
25
 10
1.787500
 20
0.315147
 30
0.000000
 11
1.787500
 21
0.340147
 31
0.000000
  0
POINT
  8
23
 10
0.775000
 20
0.315000
 30
0.000000
  0
LINE
  8
21
 10
0.725000
 20
0.230000
 30
0.000000
 11
0.725000
 21
0.400000
 31
0.000000
  0
LINE
  8
21
 10
0.825000
 20
0.400000
 30
0.000000
 11
0.825000
 21
0.230000
 31
0.000000
  0
LINE
  8
21
 10
0.735000
 20
0.410000
 30
0.000000
 11
0.815000
 21
0.410000
 31
0.000000
  0
LINE
  8
21
 10
0.735000
 20
0.220000
 30
0.000000
 11
0.815000
 21
0.220000
 31
0.000000
  0
ARC
  8
21
 10
0.735000
 20
0.400000
 30
0.000000
 40
0.010000
 50
90.000000
 51
180.000000
  0
ARC
  8
21
 10
0.735000
 20
0.230000
 30
0.000000
 40
0.010000
 50
180.000000
 51
270.000000
  0
ARC
  8
21
 10
0.815000
 20
0.400000
 30
0.000000
 40
0.010000
 50
0.000000
 51
90.000000
  0
ARC
  8
21
 10
0.815000
 20
0.230000
 30
0.000000
 40
0.010000
 50
270.000000
 51
0.000000
  0
LINE
  8
51
 10
0.775000
 20
0.365000
 30
0.000000
 11
0.775000
 21
0.330000
 31
0.000000
  0
LINE
  8
21
 10
0.775000
 20
0.330000
 30
0.000000
 11
0.775000
 21
0.325000
 31
0.000000
  0
LINE
  8
21
 10
0.775000
 20
0.325000
 30
0.000000
 11
0.745000
 21
0.325000
 31
0.000000
  0
LINE
  8
21
 10
0.775000
 20
0.325000
 30
0.000000
 11
0.805000
 21
0.325000
 31
0.000000
  0
LINE
  8
21
 10
0.745000
 20
0.305000
 30
0.000000
 11
0.775000
 21
0.305000
 31
0.000000
  0
LINE
  8
21
 10
0.775000
 20
0.305000
 30
0.000000
 11
0.805000
 21
0.305000
 31
0.000000
  0
LINE
  8
21
 10
0.775000
 20
0.305000
 30
0.000000
 11
0.775000
 21
0.300000
 31
0.000000
  0
LINE
  8
51
 10
0.775000
 20
0.300000
 30
0.000000
 11
0.775000
 21
0.265000
 31
0.000000
  0
INSERT
  8
17
  2
OCTAGONP
 10
0.775000
 20
0.265000
 30
0.000000
 41
0.063000
 42
0.063000
 43
1.000000
 50
90.000000
  0
INSERT
  8
17
  2
OCTAGONP
 10
0.775000
 20
0.265000
 30
0.000000
 41
0.063000
 42
0.063000
 43
1.000000
 50
90.000000
  0
INSERT
  8
29
  2
OCTAGONP
 10
0.775000
 20
0.265000
 30
0.000000
 41
0.071000
 42
0.071000
 43
1.000000
 50
90.000000
  0
INSERT
  8
30
  2
OCTAGONP
 10
0.775000
 20
0.265000
 30
0.000000
 41
0.071000
 42
0.071000
 43
1.000000
 50
90.000000
  0
CIRCLE
  8
44
 10
0.775000
 20
0.265000
 30
0.000000
 40
0.016000
  0
INSERT
  8
17
  2
OCTAGONP
 10
0.775000
 20
0.365000
 30
0.000000
 41
0.063000
 42
0.063000
 43
1.000000
 50
90.000000
  0
INSERT
  8
17
  2
OCTAGONP
 10
0.775000
 20
0.365000
 30
0.000000
 41
0.063000
 42
0.063000
 43
1.000000
 50
90.000000
  0
INSERT
  8
29
  2
OCTAGONP
 10
0.775000
 20
0.365000
 30
0.000000
 41
0.071000
 42
0.071000
 43
1.000000
 50
90.000000
  0
INSERT
  8
30
  2
OCTAGONP
 10
0.775000
 20
0.365000
 30
0.000000
 41
0.071000
 42
0.071000
 43
1.000000
 50
90.000000
  0
CIRCLE
  8
44
 10
0.775000
 20
0.365000
 30
0.000000
 40
0.016000
  0
POINT
  8
23
 10
0.705000
 20
0.850000
 30
0.000000
  0
LINE
  8
51
 10
0.505000
 20
0.850000
 30
0.000000
 11
0.545000
 21
0.850000
 31
0.000000
  0
LINE
  8
51
 10
0.905000
 20
0.850000
 30
0.000000
 11
0.865000
 21
0.850000
 31
0.000000
  0
ARC
  8
21
 10
0.820000
 20
0.815000
 30
0.000000
 40
0.010000
 50
270.000000
 51
0.000000
  0
ARC
  8
21
 10
0.820000
 20
0.885000
 30
0.000000
 40
0.010000
 50
0.000000
 51
90.000000
  0
ARC
  8
21
 10
0.590000
 20
0.885000
 30
0.000000
 40
0.010000
 50
90.000000
 51
180.000000
  0
ARC
  8
21
 10
0.590000
 20
0.815000
 30
0.000000
 40
0.010000
 50
180.000000
 51
270.000000
  0
LINE
  8
21
 10
0.830000
 20
0.885000
 30
0.000000
 11
0.830000
 21
0.815000
 31
0.000000
  0
LINE
  8
21
 10
0.820000
 20
0.805000
 30
0.000000
 11
0.805000
 21
0.805000
 31
0.000000
  0
LINE
  8
21
 10
0.800000
 20
0.810000
 30
0.000000
 11
0.805000
 21
0.805000
 31
0.000000
  0
LINE
  8
21
 10
0.820000
 20
0.895000
 30
0.000000
 11
0.805000
 21
0.895000
 31
0.000000
  0
LINE
  8
21
 10
0.800000
 20
0.890000
 30
0.000000
 11
0.805000
 21
0.895000
 31
0.000000
  0
LINE
  8
21
 10
0.610000
 20
0.810000
 30
0.000000
 11
0.605000
 21
0.805000
 31
0.000000
  0
LINE
  8
21
 10
0.610000
 20
0.810000
 30
0.000000
 11
0.800000
 21
0.810000
 31
0.000000
  0
LINE
  8
21
 10
0.610000
 20
0.890000
 30
0.000000
 11
0.605000
 21
0.895000
 31
0.000000
  0
LINE
  8
21
 10
0.610000
 20
0.890000
 30
0.000000
 11
0.800000
 21
0.890000
 31
0.000000
  0
LINE
  8
21
 10
0.590000
 20
0.805000
 30
0.000000
 11
0.605000
 21
0.805000
 31
0.000000
  0
LINE
  8
21
 10
0.590000
 20
0.895000
 30
0.000000
 11
0.605000
 21
0.895000
 31
0.000000
  0
LINE
  8
21
 10
0.580000
 20
0.885000
 30
0.000000
 11
0.580000
 21
0.815000
 31
0.000000
  0
INSERT
  8
21
  2
RECT
 10
0.563000
 20
0.850000
 30
0.000000
 41
0.034000
 42
0.024000
 43
1.000000
 50
180.000000
  0
INSERT
  8
21
  2
RECT
 10
0.847000
 20
0.850000
 30
0.000000
 41
0.034000
 42
0.024000
 43
1.000000
 50
180.000000
  0
INSERT
  8
17
  2
OCTAGONP
 10
0.905000
 20
0.850000
 30
0.000000
 41
0.052000
 42
0.052000
 43
1.000000
 50
180.000000
  0
INSERT
  8
17
  2
OCTAGONP
 10
0.905000
 20
0.850000
 30
0.000000
 41
0.052000
 42
0.052000
 43
1.000000
 50
180.000000
  0
INSERT
  8
29
  2
OCTAGONP
 10
0.905000
 20
0.850000
 30
0.000000
 41
0.060000
 42
0.060000
 43
1.000000
 50
180.000000
  0
INSERT
  8
30
  2
OCTAGONP
 10
0.905000
 20
0.850000
 30
0.000000
 41
0.060000
 42
0.060000
 43
1.000000
 50
180.000000
  0
CIRCLE
  8
44
 10
0.905000
 20
0.850000
 30
0.000000
 40
0.016000
  0
INSERT
  8
17
  2
OCTAGONP
 10
0.505000
 20
0.850000
 30
0.000000
 41
0.052000
 42
0.052000
 43
1.000000
 50
180.000000
  0
INSERT
  8
17
  2
OCTAGONP
 10
0.505000
 20
0.850000
 30
0.000000
 41
0.052000
 42
0.052000
 43
1.000000
 50
180.000000
  0
INSERT
  8
29
  2
OCTAGONP
 10
0.505000
 20
0.850000
 30
0.000000
 41
0.060000
 42
0.060000
 43
1.000000
 50
180.000000
  0
INSERT
  8
30
  2
OCTAGONP
 10
0.505000
 20
0.850000
 30
0.000000
 41
0.060000
 42
0.060000
 43
1.000000
 50
180.000000
  0
CIRCLE
  8
44
 10
0.505000
 20
0.850000
 30
0.000000
 40
0.016000
  0
ARC
  8
27
 10
0.664250
 20
0.861250
 30
0.000000
 40
0.011250
 50
0.000000
 51
90.000000
  0
ARC
  8
27
 10
0.664250
 20
0.858047
 30
0.000000
 40
0.014453
 50
90.000000
 51
162.054747
  0
ARC
  8
27
 10
0.663417
 20
0.861250
 30
0.000000
 40
0.012083
 50
313.602748
 51
0.000070
  0
LINE
  8
27
 10
0.671750
 20
0.852500
 30
0.000000
 11
0.650500
 21
0.827500
 31
0.000000
  0
LINE
  8
27
 10
0.650500
 20
0.827500
 30
0.000000
 11
0.675500
 21
0.827500
 31
0.000000
  0
ARC
  8
27
 10
0.709250
 20
0.861250
 30
0.000000
 40
0.011250
 50
0.000000
 51
90.000000
  0
ARC
  8
27
 10
0.709250
 20
0.858047
 30
0.000000
 40
0.014453
 50
90.000000
 51
162.054747
  0
ARC
  8
27
 10
0.708417
 20
0.861250
 30
0.000000
 40
0.012083
 50
313.602748
 51
0.000070
  0
LINE
  8
27
 10
0.716750
 20
0.852500
 30
0.000000
 11
0.695500
 21
0.827500
 31
0.000000
  0
LINE
  8
27
 10
0.695500
 20
0.827500
 30
0.000000
 11
0.720500
 21
0.827500
 31
0.000000
  0
ARC
  8
27
 10
0.777583
 20
0.850000
 30
0.000000
 40
0.037083
 50
154.010753
 51
180.000014
  0
ARC
  8
27
 10
0.753000
 20
0.863250
 30
0.000000
 40
0.009250
 50
90.000000
 51
161.075356
  0
ARC
  8
27
 10
0.753000
 20
0.863250
 30
0.000000
 40
0.009250
 50
18.924644
 51
90.000000
  0
ARC
  8
27
 10
0.728417
 20
0.850000
 30
0.000000
 40
0.037083
 50
359.999986
 51
25.989247
  0
ARC
  8
27
 10
0.777583
 20
0.850000
 30
0.000000
 40
0.037083
 50
179.999986
 51
205.989247
  0
ARC
  8
27
 10
0.753000
 20
0.836750
 30
0.000000
 40
0.009250
 50
198.924644
 51
270.000000
  0
ARC
  8
27
 10
0.728417
 20
0.850000
 30
0.000000
 40
0.037083
 50
334.010753
 51
0.000014
  0
ARC
  8
27
 10
0.753000
 20
0.836750
 30
0.000000
 40
0.009250
 50
270.000000
 51
341.075356
  0
LINE
  8
27
 10
0.743000
 20
0.837500
 30
0.000000
 11
0.763000
 21
0.862500
 31
0.000000
  0
POINT
  8
23
 10
1.210000
 20
0.850000
 30
0.000000
  0
LINE
  8
51
 10
1.010000
 20
0.850000
 30
0.000000
 11
1.050000
 21
0.850000
 31
0.000000
  0
LINE
  8
51
 10
1.410000
 20
0.850000
 30
0.000000
 11
1.370000
 21
0.850000
 31
0.000000
  0
ARC
  8
21
 10
1.325000
 20
0.815000
 30
0.000000
 40
0.010000
 50
270.000000
 51
0.000000
  0
ARC
  8
21
 10
1.325000
 20
0.885000
 30
0.000000
 40
0.010000
 50
0.000000
 51
90.000000
  0
ARC
  8
21
 10
1.095000
 20
0.885000
 30
0.000000
 40
0.010000
 50
90.000000
 51
180.000000
  0
ARC
  8
21
 10
1.095000
 20
0.815000
 30
0.000000
 40
0.010000
 50
180.000000
 51
270.000000
  0
LINE
  8
21
 10
1.335000
 20
0.885000
 30
0.000000
 11
1.335000
 21
0.815000
 31
0.000000
  0
LINE
  8
21
 10
1.325000
 20
0.805000
 30
0.000000
 11
1.310000
 21
0.805000
 31
0.000000
  0
LINE
  8
21
 10
1.305000
 20
0.810000
 30
0.000000
 11
1.310000
 21
0.805000
 31
0.000000
  0
LINE
  8
21
 10
1.325000
 20
0.895000
 30
0.000000
 11
1.310000
 21
0.895000
 31
0.000000
  0
LINE
  8
21
 10
1.305000
 20
0.890000
 30
0.000000
 11
1.310000
 21
0.895000
 31
0.000000
  0
LINE
  8
21
 10
1.115000
 20
0.810000
 30
0.000000
 11
1.110000
 21
0.805000
 31
0.000000
  0
LINE
  8
21
 10
1.115000
 20
0.810000
 30
0.000000
 11
1.305000
 21
0.810000
 31
0.000000
  0
LINE
  8
21
 10
1.115000
 20
0.890000
 30
0.000000
 11
1.110000
 21
0.895000
 31
0.000000
  0
LINE
  8
21
 10
1.115000
 20
0.890000
 30
0.000000
 11
1.305000
 21
0.890000
 31
0.000000
  0
LINE
  8
21
 10
1.095000
 20
0.805000
 30
0.000000
 11
1.110000
 21
0.805000
 31
0.000000
  0
LINE
  8
21
 10
1.095000
 20
0.895000
 30
0.000000
 11
1.110000
 21
0.895000
 31
0.000000
  0
LINE
  8
21
 10
1.085000
 20
0.885000
 30
0.000000
 11
1.085000
 21
0.815000
 31
0.000000
  0
INSERT
  8
21
  2
RECT
 10
1.068000
 20
0.850000
 30
0.000000
 41
0.034000
 42
0.024000
 43
1.000000
 50
180.000000
  0
INSERT
  8
21
  2
RECT
 10
1.352000
 20
0.850000
 30
0.000000
 41
0.034000
 42
0.024000
 43
1.000000
 50
180.000000
  0
INSERT
  8
17
  2
OCTAGONP
 10
1.410000
 20
0.850000
 30
0.000000
 41
0.052000
 42
0.052000
 43
1.000000
 50
180.000000
  0
INSERT
  8
17
  2
OCTAGONP
 10
1.410000
 20
0.850000
 30
0.000000
 41
0.052000
 42
0.052000
 43
1.000000
 50
180.000000
  0
INSERT
  8
29
  2
OCTAGONP
 10
1.410000
 20
0.850000
 30
0.000000
 41
0.060000
 42
0.060000
 43
1.000000
 50
180.000000
  0
INSERT
  8
30
  2
OCTAGONP
 10
1.410000
 20
0.850000
 30
0.000000
 41
0.060000
 42
0.060000
 43
1.000000
 50
180.000000
  0
CIRCLE
  8
44
 10
1.410000
 20
0.850000
 30
0.000000
 40
0.016000
  0
INSERT
  8
17
  2
OCTAGONP
 10
1.010000
 20
0.850000
 30
0.000000
 41
0.052000
 42
0.052000
 43
1.000000
 50
180.000000
  0
INSERT
  8
17
  2
OCTAGONP
 10
1.010000
 20
0.850000
 30
0.000000
 41
0.052000
 42
0.052000
 43
1.000000
 50
180.000000
  0
INSERT
  8
29
  2
OCTAGONP
 10
1.010000
 20
0.850000
 30
0.000000
 41
0.060000
 42
0.060000
 43
1.000000
 50
180.000000
  0
INSERT
  8
30
  2
OCTAGONP
 10
1.010000
 20
0.850000
 30
0.000000
 41
0.060000
 42
0.060000
 43
1.000000
 50
180.000000
  0
CIRCLE
  8
44
 10
1.010000
 20
0.850000
 30
0.000000
 40
0.016000
  0
ARC
  8
27
 10
1.164250
 20
0.859250
 30
0.000000
 40
0.011250
 50
0.000000
 51
90.000000
  0
ARC
  8
27
 10
1.164250
 20
0.856047
 30
0.000000
 40
0.014453
 50
90.000000
 51
162.054747
  0
ARC
  8
27
 10
1.163417
 20
0.859250
 30
0.000000
 40
0.012083
 50
313.602748
 51
0.000070
  0
LINE
  8
27
 10
1.171750
 20
0.850500
 30
0.000000
 11
1.150500
 21
0.825500
 31
0.000000
  0
LINE
  8
27
 10
1.150500
 20
0.825500
 30
0.000000
 11
1.175500
 21
0.825500
 31
0.000000
  0
ARC
  8
27
 10
1.209250
 20
0.859250
 30
0.000000
 40
0.011250
 50
0.000000
 51
90.000000
  0
ARC
  8
27
 10
1.209250
 20
0.856047
 30
0.000000
 40
0.014453
 50
90.000000
 51
162.054747
  0
ARC
  8
27
 10
1.208417
 20
0.859250
 30
0.000000
 40
0.012083
 50
313.602748
 51
0.000070
  0
LINE
  8
27
 10
1.216750
 20
0.850500
 30
0.000000
 11
1.195500
 21
0.825500
 31
0.000000
  0
LINE
  8
27
 10
1.195500
 20
0.825500
 30
0.000000
 11
1.220500
 21
0.825500
 31
0.000000
  0
ARC
  8
27
 10
1.277583
 20
0.848000
 30
0.000000
 40
0.037083
 50
154.010753
 51
180.000014
  0
ARC
  8
27
 10
1.253000
 20
0.861250
 30
0.000000
 40
0.009250
 50
90.000000
 51
161.075356
  0
ARC
  8
27
 10
1.253000
 20
0.861250
 30
0.000000
 40
0.009250
 50
18.924644
 51
90.000000
  0
ARC
  8
27
 10
1.228417
 20
0.848000
 30
0.000000
 40
0.037083
 50
359.999986
 51
25.989247
  0
ARC
  8
27
 10
1.277583
 20
0.848000
 30
0.000000
 40
0.037083
 50
179.999986
 51
205.989247
  0
ARC
  8
27
 10
1.253000
 20
0.834750
 30
0.000000
 40
0.009250
 50
198.924644
 51
270.000000
  0
ARC
  8
27
 10
1.228417
 20
0.848000
 30
0.000000
 40
0.037083
 50
334.010753
 51
0.000014
  0
ARC
  8
27
 10
1.253000
 20
0.834750
 30
0.000000
 40
0.009250
 50
270.000000
 51
341.075356
  0
LINE
  8
27
 10
1.243000
 20
0.835500
 30
0.000000
 11
1.263000
 21
0.860500
 31
0.000000
  0
POINT
  8
23
 10
1.710000
 20
0.850000
 30
0.000000
  0
LINE
  8
51
 10
1.510000
 20
0.850000
 30
0.000000
 11
1.550000
 21
0.850000
 31
0.000000
  0
LINE
  8
51
 10
1.910000
 20
0.850000
 30
0.000000
 11
1.870000
 21
0.850000
 31
0.000000
  0
ARC
  8
21
 10
1.825000
 20
0.815000
 30
0.000000
 40
0.010000
 50
270.000000
 51
0.000000
  0
ARC
  8
21
 10
1.825000
 20
0.885000
 30
0.000000
 40
0.010000
 50
0.000000
 51
90.000000
  0
ARC
  8
21
 10
1.595000
 20
0.885000
 30
0.000000
 40
0.010000
 50
90.000000
 51
180.000000
  0
ARC
  8
21
 10
1.595000
 20
0.815000
 30
0.000000
 40
0.010000
 50
180.000000
 51
270.000000
  0
LINE
  8
21
 10
1.835000
 20
0.885000
 30
0.000000
 11
1.835000
 21
0.815000
 31
0.000000
  0
LINE
  8
21
 10
1.825000
 20
0.805000
 30
0.000000
 11
1.810000
 21
0.805000
 31
0.000000
  0
LINE
  8
21
 10
1.805000
 20
0.810000
 30
0.000000
 11
1.810000
 21
0.805000
 31
0.000000
  0
LINE
  8
21
 10
1.825000
 20
0.895000
 30
0.000000
 11
1.810000
 21
0.895000
 31
0.000000
  0
LINE
  8
21
 10
1.805000
 20
0.890000
 30
0.000000
 11
1.810000
 21
0.895000
 31
0.000000
  0
LINE
  8
21
 10
1.615000
 20
0.810000
 30
0.000000
 11
1.610000
 21
0.805000
 31
0.000000
  0
LINE
  8
21
 10
1.615000
 20
0.810000
 30
0.000000
 11
1.805000
 21
0.810000
 31
0.000000
  0
LINE
  8
21
 10
1.615000
 20
0.890000
 30
0.000000
 11
1.610000
 21
0.895000
 31
0.000000
  0
LINE
  8
21
 10
1.615000
 20
0.890000
 30
0.000000
 11
1.805000
 21
0.890000
 31
0.000000
  0
LINE
  8
21
 10
1.595000
 20
0.805000
 30
0.000000
 11
1.610000
 21
0.805000
 31
0.000000
  0
LINE
  8
21
 10
1.595000
 20
0.895000
 30
0.000000
 11
1.610000
 21
0.895000
 31
0.000000
  0
LINE
  8
21
 10
1.585000
 20
0.885000
 30
0.000000
 11
1.585000
 21
0.815000
 31
0.000000
  0
INSERT
  8
21
  2
RECT
 10
1.568000
 20
0.850000
 30
0.000000
 41
0.034000
 42
0.024000
 43
1.000000
 50
180.000000
  0
INSERT
  8
21
  2
RECT
 10
1.852000
 20
0.850000
 30
0.000000
 41
0.034000
 42
0.024000
 43
1.000000
 50
180.000000
  0
INSERT
  8
17
  2
OCTAGONP
 10
1.910000
 20
0.850000
 30
0.000000
 41
0.052000
 42
0.052000
 43
1.000000
 50
180.000000
  0
INSERT
  8
17
  2
OCTAGONP
 10
1.910000
 20
0.850000
 30
0.000000
 41
0.052000
 42
0.052000
 43
1.000000
 50
180.000000
  0
INSERT
  8
29
  2
OCTAGONP
 10
1.910000
 20
0.850000
 30
0.000000
 41
0.060000
 42
0.060000
 43
1.000000
 50
180.000000
  0
INSERT
  8
30
  2
OCTAGONP
 10
1.910000
 20
0.850000
 30
0.000000
 41
0.060000
 42
0.060000
 43
1.000000
 50
180.000000
  0
CIRCLE
  8
44
 10
1.910000
 20
0.850000
 30
0.000000
 40
0.016000
  0
INSERT
  8
17
  2
OCTAGONP
 10
1.510000
 20
0.850000
 30
0.000000
 41
0.052000
 42
0.052000
 43
1.000000
 50
180.000000
  0
INSERT
  8
17
  2
OCTAGONP
 10
1.510000
 20
0.850000
 30
0.000000
 41
0.052000
 42
0.052000
 43
1.000000
 50
180.000000
  0
INSERT
  8
29
  2
OCTAGONP
 10
1.510000
 20
0.850000
 30
0.000000
 41
0.060000
 42
0.060000
 43
1.000000
 50
180.000000
  0
INSERT
  8
30
  2
OCTAGONP
 10
1.510000
 20
0.850000
 30
0.000000
 41
0.060000
 42
0.060000
 43
1.000000
 50
180.000000
  0
CIRCLE
  8
44
 10
1.510000
 20
0.850000
 30
0.000000
 40
0.016000
  0
ARC
  8
27
 10
1.664250
 20
0.858250
 30
0.000000
 40
0.011250
 50
0.000000
 51
90.000000
  0
ARC
  8
27
 10
1.664250
 20
0.855047
 30
0.000000
 40
0.014453
 50
90.000000
 51
162.054747
  0
ARC
  8
27
 10
1.663417
 20
0.858250
 30
0.000000
 40
0.012083
 50
313.602748
 51
0.000070
  0
LINE
  8
27
 10
1.671750
 20
0.849500
 30
0.000000
 11
1.650500
 21
0.824500
 31
0.000000
  0
LINE
  8
27
 10
1.650500
 20
0.824500
 30
0.000000
 11
1.675500
 21
0.824500
 31
0.000000
  0
ARC
  8
27
 10
1.709250
 20
0.858250
 30
0.000000
 40
0.011250
 50
0.000000
 51
90.000000
  0
ARC
  8
27
 10
1.709250
 20
0.855047
 30
0.000000
 40
0.014453
 50
90.000000
 51
162.054747
  0
ARC
  8
27
 10
1.708417
 20
0.858250
 30
0.000000
 40
0.012083
 50
313.602748
 51
0.000070
  0
LINE
  8
27
 10
1.716750
 20
0.849500
 30
0.000000
 11
1.695500
 21
0.824500
 31
0.000000
  0
LINE
  8
27
 10
1.695500
 20
0.824500
 30
0.000000
 11
1.720500
 21
0.824500
 31
0.000000
  0
ARC
  8
27
 10
1.777583
 20
0.847000
 30
0.000000
 40
0.037083
 50
154.010753
 51
180.000014
  0
ARC
  8
27
 10
1.753000
 20
0.860250
 30
0.000000
 40
0.009250
 50
90.000000
 51
161.075356
  0
ARC
  8
27
 10
1.753000
 20
0.860250
 30
0.000000
 40
0.009250
 50
18.924644
 51
90.000000
  0
ARC
  8
27
 10
1.728417
 20
0.847000
 30
0.000000
 40
0.037083
 50
359.999986
 51
25.989247
  0
ARC
  8
27
 10
1.777583
 20
0.847000
 30
0.000000
 40
0.037083
 50
179.999986
 51
205.989247
  0
ARC
  8
27
 10
1.753000
 20
0.833750
 30
0.000000
 40
0.009250
 50
198.924644
 51
270.000000
  0
ARC
  8
27
 10
1.728417
 20
0.847000
 30
0.000000
 40
0.037083
 50
334.010753
 51
0.000014
  0
ARC
  8
27
 10
1.753000
 20
0.833750
 30
0.000000
 40
0.009250
 50
270.000000
 51
341.075356
  0
LINE
  8
27
 10
1.743000
 20
0.834500
 30
0.000000
 11
1.763000
 21
0.859500
 31
0.000000
  0
POINT
  8
23
 10
1.085000
 20
0.445000
 30
0.000000
  0
LINE
  8
21
 10
1.166969
 20
0.408780
 30
0.000000
 11
1.003031
 21
0.408780
 31
0.000000
  0
LINE
  8
21
 10
1.166969
 20
0.408780
 30
0.000000
 11
1.166969
 21
0.481220
 31
0.000000
  0
LINE
  8
21
 10
1.003031
 20
0.481220
 30
0.000000
 11
1.166969
 21
0.481220
 31
0.000000
  0
LINE
  8
21
 10
1.003031
 20
0.481220
 30
0.000000
 11
1.003031
 21
0.408780
 31
0.000000
  0
LINE
  8
51
 10
1.235000
 20
0.445000
 30
0.000000
 11
1.183189
 21
0.445000
 31
0.000000
  0
LINE
  8
51
 10
0.935000
 20
0.445000
 30
0.000000
 11
0.985827
 21
0.445000
 31
0.000000
  0
LINE
  8
21
 10
1.060000
 20
0.445000
 30
0.000000
 11
1.085000
 21
0.445000
 31
0.000000
  0
LINE
  8
21
 10
1.125000
 20
0.470000
 30
0.000000
 11
1.125000
 21
0.420000
 31
0.000000
  0
LINE
  8
21
 10
1.125000
 20
0.420000
 30
0.000000
 11
1.085000
 21
0.445000
 31
0.000000
  0
LINE
  8
21
 10
1.085000
 20
0.445000
 30
0.000000
 11
1.145000
 21
0.445000
 31
0.000000
  0
LINE
  8
21
 10
1.085000
 20
0.445000
 30
0.000000
 11
1.125000
 21
0.470000
 31
0.000000
  0
LINE
  8
21
 10
1.085000
 20
0.470000
 30
0.000000
 11
1.085000
 21
0.445000
 31
0.000000
  0
LINE
  8
21
 10
1.085000
 20
0.445000
 30
0.000000
 11
1.085000
 21
0.420000
 31
0.000000
  0
INSERT
  8
21
  2
RECT
 10
1.030000
 20
0.444409
 30
0.000000
 41
0.020000
 42
0.073622
 43
1.000000
 50
0.000000
  0
INSERT
  8
21
  2
RECT
 10
1.179469
 20
0.445000
 30
0.000000
 41
0.025000
 42
0.033465
 43
1.000000
 50
0.000000
  0
INSERT
  8
21
  2
RECT
 10
0.990531
 20
0.445000
 30
0.000000
 41
0.025000
 42
0.033465
 43
1.000000
 50
0.000000
  0
INSERT
  8
17
  2
ROUNDP
 10
1.235000
 20
0.445000
 30
0.000000
 41
0.066929
 42
0.066929
 43
1.000000
 50
0.000000
  0
INSERT
  8
17
  2
ROUNDP
 10
1.235000
 20
0.445000
 30
0.000000
 41
0.066929
 42
0.066929
 43
1.000000
 50
0.000000
  0
INSERT
  8
29
  2
ROUNDP
 10
1.235000
 20
0.445000
 30
0.000000
 41
0.074929
 42
0.074929
 43
1.000000
 50
0.000000
  0
INSERT
  8
30
  2
ROUNDP
 10
1.235000
 20
0.445000
 30
0.000000
 41
0.074929
 42
0.074929
 43
1.000000
 50
0.000000
  0
CIRCLE
  8
44
 10
1.235000
 20
0.445000
 30
0.000000
 40
0.021654
  0
INSERT
  8
17
  2
ROUNDP
 10
0.935000
 20
0.445000
 30
0.000000
 41
0.066929
 42
0.066929
 43
1.000000
 50
0.000000
  0
INSERT
  8
17
  2
ROUNDP
 10
0.935000
 20
0.445000
 30
0.000000
 41
0.066929
 42
0.066929
 43
1.000000
 50
0.000000
  0
INSERT
  8
29
  2
ROUNDP
 10
0.935000
 20
0.445000
 30
0.000000
 41
0.074929
 42
0.074929
 43
1.000000
 50
0.000000
  0
INSERT
  8
30
  2
ROUNDP
 10
0.935000
 20
0.445000
 30
0.000000
 41
0.074929
 42
0.074929
 43
1.000000
 50
0.000000
  0
CIRCLE
  8
44
 10
0.935000
 20
0.445000
 30
0.000000
 40
0.021654
  0
POINT
  8
23
 10
1.220000
 20
0.640000
 30
0.000000
  0
LINE
  8
21
 10
1.020000
 20
0.572283
 30
0.000000
 11
1.420000
 21
0.572283
 31
0.000000
  0
LINE
  8
21
 10
1.420000
 20
0.572283
 30
0.000000
 11
1.420000
 21
0.757323
 31
0.000000
  0
LINE
  8
21
 10
1.420000
 20
0.757323
 30
0.000000
 11
1.020000
 21
0.757323
 31
0.000000
  0
LINE
  8
21
 10
1.020000
 20
0.757323
 30
0.000000
 11
1.020000
 21
0.572283
 31
0.000000
  0
LINE
  8
39
 10
1.011732
 20
0.767165
 30
0.000000
 11
1.434961
 21
0.767165
 31
0.000000
  0
LINE
  8
39
 10
1.434961
 20
0.767165
 30
0.000000
 11
1.434961
 21
0.561260
 31
0.000000
  0
LINE
  8
39
 10
1.434961
 20
0.561260
 30
0.000000
 11
1.011732
 21
0.561260
 31
0.000000
  0
LINE
  8
39
 10
1.011732
 20
0.561260
 30
0.000000
 11
1.011732
 21
0.767165
 31
0.000000
  0
LINE
  8
21
 10
1.019213
 20
0.726614
 30
0.000000
 11
1.420787
 21
0.726614
 31
0.000000
  0
CIRCLE
  8
21
 10
1.120000
 20
0.541575
 30
0.000000
 40
0.007874
  0
INSERT
  8
17
  2
SQUAREP
 10
1.120000
 20
0.640000
 30
0.000000
 41
0.077953
 42
0.077953
 43
1.000000
 50
0.000000
  0
INSERT
  8
17
  2
SQUAREP
 10
1.120000
 20
0.640000
 30
0.000000
 41
0.077953
 42
0.077953
 43
1.000000
 50
0.000000
  0
INSERT
  8
29
  2
SQUAREP
 10
1.120000
 20
0.640000
 30
0.000000
 41
0.085953
 42
0.085953
 43
1.000000
 50
0.000000
  0
INSERT
  8
30
  2
SQUAREP
 10
1.120000
 20
0.640000
 30
0.000000
 41
0.085953
 42
0.085953
 43
1.000000
 50
0.000000
  0
CIRCLE
  8
44
 10
1.120000
 20
0.640000
 30
0.000000
 40
0.025984
  0
INSERT
  8
17
  2
ROUNDP
 10
1.220000
 20
0.640000
 30
0.000000
 41
0.077953
 42
0.077953
 43
1.000000
 50
0.000000
  0
INSERT
  8
17
  2
ROUNDP
 10
1.220000
 20
0.640000
 30
0.000000
 41
0.077953
 42
0.077953
 43
1.000000
 50
0.000000
  0
INSERT
  8
29
  2
ROUNDP
 10
1.220000
 20
0.640000
 30
0.000000
 41
0.085953
 42
0.085953
 43
1.000000
 50
0.000000
  0
INSERT
  8
30
  2
ROUNDP
 10
1.220000
 20
0.640000
 30
0.000000
 41
0.085953
 42
0.085953
 43
1.000000
 50
0.000000
  0
CIRCLE
  8
44
 10
1.220000
 20
0.640000
 30
0.000000
 40
0.025984
  0
INSERT
  8
17
  2
ROUNDP
 10
1.320000
 20
0.640000
 30
0.000000
 41
0.077953
 42
0.077953
 43
1.000000
 50
0.000000
  0
INSERT
  8
17
  2
ROUNDP
 10
1.320000
 20
0.640000
 30
0.000000
 41
0.077953
 42
0.077953
 43
1.000000
 50
0.000000
  0
INSERT
  8
29
  2
ROUNDP
 10
1.320000
 20
0.640000
 30
0.000000
 41
0.085953
 42
0.085953
 43
1.000000
 50
0.000000
  0
INSERT
  8
30
  2
ROUNDP
 10
1.320000
 20
0.640000
 30
0.000000
 41
0.085953
 42
0.085953
 43
1.000000
 50
0.000000
  0
CIRCLE
  8
44
 10
1.320000
 20
0.640000
 30
0.000000
 40
0.025984
  0
LINE
  8
25
 10
1.127436
 20
0.784209
 30
0.000000
 11
1.133603
 21
0.784209
 31
0.000000
  0
LINE
  8
25
 10
1.133603
 20
0.784209
 30
0.000000
 11
1.133603
 21
0.763654
 31
0.000000
  0
LINE
  8
25
 10
1.133603
 20
0.763654
 30
0.000000
 11
1.121270
 21
0.763654
 31
0.000000
  0
ARC
  8
25
 10
1.121270
 20
0.771876
 30
0.000000
 40
0.008222
 50
180.000000
 51
270.000000
  0
LINE
  8
25
 10
1.113048
 20
0.771876
 30
0.000000
 11
1.113048
 21
0.792431
 31
0.000000
  0
ARC
  8
25
 10
1.121270
 20
0.792431
 30
0.000000
 40
0.008222
 50
90.000857
 51
180.000000
  0
LINE
  8
25
 10
1.121270
 20
0.800654
 30
0.000000
 11
1.133603
 21
0.800654
 31
0.000000
  0
LINE
  8
25
 10
1.151672
 20
0.763654
 30
0.000000
 11
1.151672
 21
0.800654
 31
0.000000
  0
LINE
  8
25
 10
1.151672
 20
0.800654
 30
0.000000
 11
1.161950
 21
0.800654
 31
0.000000
  0
ARC
  8
25
 10
1.161950
 20
0.790376
 30
0.000000
 40
0.010278
 50
270.000000
 51
90.000000
  0
LINE
  8
25
 10
1.161950
 20
0.780098
 30
0.000000
 11
1.151672
 21
0.780098
 31
0.000000
  0
LINE
  8
25
 10
1.172228
 20
0.763654
 30
0.000000
 11
1.164005
 21
0.780098
 31
0.000000
  0
LINE
  8
25
 10
1.205161
 20
0.763654
 30
0.000000
 11
1.188716
 21
0.763654
 31
0.000000
  0
LINE
  8
25
 10
1.188716
 20
0.763654
 30
0.000000
 11
1.188716
 21
0.800654
 31
0.000000
  0
LINE
  8
25
 10
1.188716
 20
0.800654
 30
0.000000
 11
1.205161
 21
0.800654
 31
0.000000
  0
LINE
  8
25
 10
1.188716
 20
0.784209
 30
0.000000
 11
1.201049
 21
0.784209
 31
0.000000
  0
LINE
  8
25
 10
1.236360
 20
0.763654
 30
0.000000
 11
1.219916
 21
0.763654
 31
0.000000
  0
LINE
  8
25
 10
1.219916
 20
0.763654
 30
0.000000
 11
1.219916
 21
0.800654
 31
0.000000
  0
LINE
  8
25
 10
1.219916
 20
0.800654
 30
0.000000
 11
1.236360
 21
0.800654
 31
0.000000
  0
LINE
  8
25
 10
1.219916
 20
0.784209
 30
0.000000
 11
1.232249
 21
0.784209
 31
0.000000
  0
LINE
  8
25
 10
1.251047
 20
0.763654
 30
0.000000
 11
1.251047
 21
0.800654
 31
0.000000
  0
LINE
  8
25
 10
1.251047
 20
0.800654
 30
0.000000
 11
1.271602
 21
0.763654
 31
0.000000
  0
LINE
  8
25
 10
1.271602
 20
0.763654
 30
0.000000
 11
1.271602
 21
0.800654
 31
0.000000
  0
POINT
  8
23
 10
1.080000
 20
0.260000
 30
0.000000
  0
LINE
  8
51
 10
0.930000
 20
0.260000
 30
0.000000
 11
0.965000
 21
0.260000
 31
0.000000
  0
LINE
  8
51
 10
1.230000
 20
0.260000
 30
0.000000
 11
1.195000
 21
0.260000
 31
0.000000
  0
ARC
  8
21
 10
1.170000
 20
0.230000
 30
0.000000
 40
0.010000
 50
270.000000
 51
0.000000
  0
ARC
  8
21
 10
1.170000
 20
0.290000
 30
0.000000
 40
0.010000
 50
0.000000
 51
90.000000
  0
ARC
  8
21
 10
0.990000
 20
0.290000
 30
0.000000
 40
0.010000
 50
90.000000
 51
180.000000
  0
ARC
  8
21
 10
0.990000
 20
0.230000
 30
0.000000
 40
0.010000
 50
180.000000
 51
270.000000
  0
LINE
  8
21
 10
1.180000
 20
0.290000
 30
0.000000
 11
1.180000
 21
0.230000
 31
0.000000
  0
LINE
  8
21
 10
1.170000
 20
0.220000
 30
0.000000
 11
1.155000
 21
0.220000
 31
0.000000
  0
LINE
  8
21
 10
1.150000
 20
0.225000
 30
0.000000
 11
1.155000
 21
0.220000
 31
0.000000
  0
LINE
  8
21
 10
1.170000
 20
0.300000
 30
0.000000
 11
1.155000
 21
0.300000
 31
0.000000
  0
LINE
  8
21
 10
1.150000
 20
0.295000
 30
0.000000
 11
1.155000
 21
0.300000
 31
0.000000
  0
LINE
  8
21
 10
1.010000
 20
0.225000
 30
0.000000
 11
1.005000
 21
0.220000
 31
0.000000
  0
LINE
  8
21
 10
1.010000
 20
0.225000
 30
0.000000
 11
1.150000
 21
0.225000
 31
0.000000
  0
LINE
  8
21
 10
1.010000
 20
0.295000
 30
0.000000
 11
1.005000
 21
0.300000
 31
0.000000
  0
LINE
  8
21
 10
1.010000
 20
0.295000
 30
0.000000
 11
1.150000
 21
0.295000
 31
0.000000
  0
LINE
  8
21
 10
0.990000
 20
0.220000
 30
0.000000
 11
1.005000
 21
0.220000
 31
0.000000
  0
LINE
  8
21
 10
0.990000
 20
0.300000
 30
0.000000
 11
1.005000
 21
0.300000
 31
0.000000
  0
LINE
  8
21
 10
0.980000
 20
0.290000
 30
0.000000
 11
0.980000
 21
0.230000
 31
0.000000
  0
INSERT
  8
21
  2
RECT
 10
0.972500
 20
0.260000
 30
0.000000
 41
0.015000
 42
0.020000
 43
1.000000
 50
180.000000
  0
INSERT
  8
21
  2
RECT
 10
1.187500
 20
0.260000
 30
0.000000
 41
0.015000
 42
0.020000
 43
1.000000
 50
180.000000
  0
INSERT
  8
17
  2
OCTAGONP
 10
1.230000
 20
0.260000
 30
0.000000
 41
0.052000
 42
0.052000
 43
1.000000
 50
180.000000
  0
INSERT
  8
17
  2
OCTAGONP
 10
1.230000
 20
0.260000
 30
0.000000
 41
0.052000
 42
0.052000
 43
1.000000
 50
180.000000
  0
INSERT
  8
29
  2
OCTAGONP
 10
1.230000
 20
0.260000
 30
0.000000
 41
0.060000
 42
0.060000
 43
1.000000
 50
180.000000
  0
INSERT
  8
30
  2
OCTAGONP
 10
1.230000
 20
0.260000
 30
0.000000
 41
0.060000
 42
0.060000
 43
1.000000
 50
180.000000
  0
CIRCLE
  8
44
 10
1.230000
 20
0.260000
 30
0.000000
 40
0.016000
  0
INSERT
  8
17
  2
OCTAGONP
 10
0.930000
 20
0.260000
 30
0.000000
 41
0.052000
 42
0.052000
 43
1.000000
 50
180.000000
  0
INSERT
  8
17
  2
OCTAGONP
 10
0.930000
 20
0.260000
 30
0.000000
 41
0.052000
 42
0.052000
 43
1.000000
 50
180.000000
  0
INSERT
  8
29
  2
OCTAGONP
 10
0.930000
 20
0.260000
 30
0.000000
 41
0.060000
 42
0.060000
 43
1.000000
 50
180.000000
  0
INSERT
  8
30
  2
OCTAGONP
 10
0.930000
 20
0.260000
 30
0.000000
 41
0.060000
 42
0.060000
 43
1.000000
 50
180.000000
  0
CIRCLE
  8
44
 10
0.930000
 20
0.260000
 30
0.000000
 40
0.016000
  0
LINE
  8
27
 10
0.988326
 20
0.252000
 30
0.000000
 11
0.998048
 21
0.252000
 31
0.000000
  0
ARC
  8
27
 10
0.998048
 20
0.261722
 30
0.000000
 40
0.009722
 50
270.000000
 51
90.000000
  0
LINE
  8
27
 10
0.988326
 20
0.287000
 30
0.000000
 11
0.999992
 21
0.287000
 31
0.000000
  0
ARC
  8
27
 10
0.999992
 20
0.279222
 30
0.000000
 40
0.007778
 50
270.000000
 51
90.000000
  0
LINE
  8
27
 10
0.999992
 20
0.271444
 30
0.000000
 11
0.992215
 21
0.271444
 31
0.000000
  0
LINE
  8
27
 10
1.023426
 20
0.252000
 30
0.000000
 11
1.033148
 21
0.252000
 31
0.000000
  0
ARC
  8
27
 10
1.033148
 20
0.261722
 30
0.000000
 40
0.009722
 50
270.000000
 51
90.000000
  0
LINE
  8
27
 10
1.023426
 20
0.287000
 30
0.000000
 11
1.035092
 21
0.287000
 31
0.000000
  0
ARC
  8
27
 10
1.035092
 20
0.279222
 30
0.000000
 40
0.007778
 50
270.000000
 51
90.000000
  0
LINE
  8
27
 10
1.035092
 20
0.271444
 30
0.000000
 11
1.027315
 21
0.271444
 31
0.000000
  0
ARC
  8
27
 10
1.087369
 20
0.269500
 30
0.000000
 40
0.028843
 50
154.011273
 51
179.999982
  0
ARC
  8
27
 10
1.068248
 20
0.279805
 30
0.000000
 40
0.007195
 50
90.000167
 51
161.075973
  0
ARC
  8
27
 10
1.068248
 20
0.279806
 30
0.000000
 40
0.007194
 50
18.922769
 51
90.000111
  0
ARC
  8
27
 10
1.049128
 20
0.269500
 30
0.000000
 40
0.028842
 50
0.000012
 51
25.989792
  0
ARC
  8
27
 10
1.087369
 20
0.269500
 30
0.000000
 40
0.028844
 50
180.000107
 51
205.988393
  0
ARC
  8
27
 10
1.068248
 20
0.259195
 30
0.000000
 40
0.007195
 50
198.925177
 51
270.000056
  0
ARC
  8
27
 10
1.049127
 20
0.269500
 30
0.000000
 40
0.028843
 50
334.010595
 51
359.999845
  0
ARC
  8
27
 10
1.068248
 20
0.259194
 30
0.000000
 40
0.007194
 50
269.999666
 51
341.076081
  0
LINE
  8
27
 10
1.060470
 20
0.259778
 30
0.000000
 11
1.076026
 21
0.279222
 31
0.000000
  0
LINE
  8
27
 10
1.094400
 20
0.275333
 30
0.000000
 11
1.094400
 21
0.257833
 31
0.000000
  0
ARC
  8
27
 10
1.100233
 20
0.257833
 30
0.000000
 40
0.005833
 50
180.000000
 51
270.000000
  0
LINE
  8
27
 10
1.100233
 20
0.252000
 30
0.000000
 11
1.109956
 21
0.252000
 31
0.000000
  0
LINE
  8
27
 10
1.109956
 20
0.252000
 30
0.000000
 11
1.109956
 21
0.275333
 31
0.000000
  0
LINE
  8
27
 10
1.127556
 20
0.252000
 30
0.000000
 11
1.127556
 21
0.287000
 31
0.000000
  0
LINE
  8
27
 10
1.127556
 20
0.271444
 30
0.000000
 11
1.147000
 21
0.271444
 31
0.000000
  0
LINE
  8
27
 10
1.147000
 20
0.287000
 30
0.000000
 11
1.147000
 21
0.252000
 31
0.000000
  0
POINT
  8
23
 10
0.325000
 20
0.340000
 30
0.000000
  0
LINE
  8
21
 10
0.350000
 20
0.340000
 30
0.000000
 11
0.375000
 21
0.315000
 31
0.000000
  0
LINE
  8
21
 10
0.375000
 20
0.315000
 30
0.000000
 11
0.375000
 21
0.265000
 31
0.000000
  0
LINE
  8
21
 10
0.375000
 20
0.265000
 30
0.000000
 11
0.350000
 21
0.240000
 31
0.000000
  0
LINE
  8
21
 10
0.350000
 20
0.240000
 30
0.000000
 11
0.300000
 21
0.240000
 31
0.000000
  0
LINE
  8
21
 10
0.300000
 20
0.240000
 30
0.000000
 11
0.275000
 21
0.265000
 31
0.000000
  0
LINE
  8
21
 10
0.275000
 20
0.265000
 30
0.000000
 11
0.275000
 21
0.315000
 31
0.000000
  0
LINE
  8
21
 10
0.275000
 20
0.315000
 30
0.000000
 11
0.300000
 21
0.340000
 31
0.000000
  0
LINE
  8
21
 10
0.375000
 20
0.515000
 30
0.000000
 11
0.375000
 21
0.465000
 31
0.000000
  0
LINE
  8
21
 10
0.375000
 20
0.465000
 30
0.000000
 11
0.350000
 21
0.440000
 31
0.000000
  0
LINE
  8
21
 10
0.350000
 20
0.440000
 30
0.000000
 11
0.300000
 21
0.440000
 31
0.000000
  0
LINE
  8
21
 10
0.300000
 20
0.440000
 30
0.000000
 11
0.275000
 21
0.465000
 31
0.000000
  0
LINE
  8
21
 10
0.350000
 20
0.440000
 30
0.000000
 11
0.375000
 21
0.415000
 31
0.000000
  0
LINE
  8
21
 10
0.375000
 20
0.415000
 30
0.000000
 11
0.375000
 21
0.365000
 31
0.000000
  0
LINE
  8
21
 10
0.375000
 20
0.365000
 30
0.000000
 11
0.350000
 21
0.340000
 31
0.000000
  0
LINE
  8
21
 10
0.350000
 20
0.340000
 30
0.000000
 11
0.300000
 21
0.340000
 31
0.000000
  0
LINE
  8
21
 10
0.300000
 20
0.340000
 30
0.000000
 11
0.275000
 21
0.365000
 31
0.000000
  0
LINE
  8
21
 10
0.275000
 20
0.365000
 30
0.000000
 11
0.275000
 21
0.415000
 31
0.000000
  0
LINE
  8
21
 10
0.275000
 20
0.415000
 30
0.000000
 11
0.300000
 21
0.440000
 31
0.000000
  0
LINE
  8
21
 10
0.350000
 20
0.540000
 30
0.000000
 11
0.300000
 21
0.540000
 31
0.000000
  0
LINE
  8
21
 10
0.375000
 20
0.515000
 30
0.000000
 11
0.350000
 21
0.540000
 31
0.000000
  0
LINE
  8
21
 10
0.300000
 20
0.540000
 30
0.000000
 11
0.275000
 21
0.515000
 31
0.000000
  0
LINE
  8
21
 10
0.275000
 20
0.465000
 30
0.000000
 11
0.275000
 21
0.515000
 31
0.000000
  0
LINE
  8
21
 10
0.375000
 20
0.215000
 30
0.000000
 11
0.375000
 21
0.165000
 31
0.000000
  0
LINE
  8
21
 10
0.375000
 20
0.165000
 30
0.000000
 11
0.350000
 21
0.140000
 31
0.000000
  0
LINE
  8
21
 10
0.350000
 20
0.140000
 30
0.000000
 11
0.300000
 21
0.140000
 31
0.000000
  0
LINE
  8
21
 10
0.300000
 20
0.140000
 30
0.000000
 11
0.275000
 21
0.165000
 31
0.000000
  0
LINE
  8
21
 10
0.375000
 20
0.215000
 30
0.000000
 11
0.350000
 21
0.240000
 31
0.000000
  0
LINE
  8
21
 10
0.300000
 20
0.240000
 30
0.000000
 11
0.275000
 21
0.215000
 31
0.000000
  0
LINE
  8
21
 10
0.275000
 20
0.165000
 30
0.000000
 11
0.275000
 21
0.215000
 31
0.000000
  0
INSERT
  8
51
  2
RECT
 10
0.325000
 20
0.290000
 30
0.000000
 41
0.020000
 42
0.020000
 43
1.000000
 50
270.000000
  0
INSERT
  8
51
  2
RECT
 10
0.325000
 20
0.390000
 30
0.000000
 41
0.020000
 42
0.020000
 43
1.000000
 50
270.000000
  0
INSERT
  8
51
  2
RECT
 10
0.325000
 20
0.490000
 30
0.000000
 41
0.020000
 42
0.020000
 43
1.000000
 50
270.000000
  0
INSERT
  8
51
  2
RECT
 10
0.325000
 20
0.190000
 30
0.000000
 41
0.020000
 42
0.020000
 43
1.000000
 50
270.000000
  0
INSERT
  8
17
  2
LONGP100
 10
0.325000
 20
0.490000
 30
0.000000
 41
0.060000
 42
0.060000
 43
1.000000
 50
0.000000
  0
INSERT
  8
17
  2
LONGP100
 10
0.325000
 20
0.490000
 30
0.000000
 41
0.060000
 42
0.060000
 43
1.000000
 50
0.000000
  0
INSERT
  8
29
  2
LONGP100
 10
0.325000
 20
0.490000
 30
0.000000
 41
0.068000
 42
0.068000
 43
1.000000
 50
0.000000
  0
INSERT
  8
30
  2
LONGP100
 10
0.325000
 20
0.490000
 30
0.000000
 41
0.068000
 42
0.068000
 43
1.000000
 50
0.000000
  0
CIRCLE
  8
44
 10
0.325000
 20
0.490000
 30
0.000000
 40
0.020000
  0
INSERT
  8
17
  2
LONGP100
 10
0.325000
 20
0.390000
 30
0.000000
 41
0.060000
 42
0.060000
 43
1.000000
 50
0.000000
  0
INSERT
  8
17
  2
LONGP100
 10
0.325000
 20
0.390000
 30
0.000000
 41
0.060000
 42
0.060000
 43
1.000000
 50
0.000000
  0
INSERT
  8
29
  2
LONGP100
 10
0.325000
 20
0.390000
 30
0.000000
 41
0.068000
 42
0.068000
 43
1.000000
 50
0.000000
  0
INSERT
  8
30
  2
LONGP100
 10
0.325000
 20
0.390000
 30
0.000000
 41
0.068000
 42
0.068000
 43
1.000000
 50
0.000000
  0
CIRCLE
  8
44
 10
0.325000
 20
0.390000
 30
0.000000
 40
0.020000
  0
INSERT
  8
17
  2
LONGP100
 10
0.325000
 20
0.290000
 30
0.000000
 41
0.060000
 42
0.060000
 43
1.000000
 50
0.000000
  0
INSERT
  8
17
  2
LONGP100
 10
0.325000
 20
0.290000
 30
0.000000
 41
0.060000
 42
0.060000
 43
1.000000
 50
0.000000
  0
INSERT
  8
29
  2
LONGP100
 10
0.325000
 20
0.290000
 30
0.000000
 41
0.068000
 42
0.068000
 43
1.000000
 50
0.000000
  0
INSERT
  8
30
  2
LONGP100
 10
0.325000
 20
0.290000
 30
0.000000
 41
0.068000
 42
0.068000
 43
1.000000
 50
0.000000
  0
CIRCLE
  8
44
 10
0.325000
 20
0.290000
 30
0.000000
 40
0.020000
  0
INSERT
  8
17
  2
LONGP100
 10
0.325000
 20
0.190000
 30
0.000000
 41
0.060000
 42
0.060000
 43
1.000000
 50
0.000000
  0
INSERT
  8
17
  2
LONGP100
 10
0.325000
 20
0.190000
 30
0.000000
 41
0.060000
 42
0.060000
 43
1.000000
 50
0.000000
  0
INSERT
  8
29
  2
LONGP100
 10
0.325000
 20
0.190000
 30
0.000000
 41
0.068000
 42
0.068000
 43
1.000000
 50
0.000000
  0
INSERT
  8
30
  2
LONGP100
 10
0.325000
 20
0.190000
 30
0.000000
 41
0.068000
 42
0.068000
 43
1.000000
 50
0.000000
  0
CIRCLE
  8
44
 10
0.325000
 20
0.190000
 30
0.000000
 40
0.020000
  0
LINE
  8
25
 10
0.219500
 20
0.178350
 30
0.000000
 11
0.264500
 21
0.178350
 31
0.000000
  0
LINE
  8
25
 10
0.264500
 20
0.178350
 30
0.000000
 11
0.264500
 21
0.198350
 31
0.000000
  0
LINE
  8
25
 10
0.264500
 20
0.237350
 30
0.000000
 11
0.264500
 21
0.217350
 31
0.000000
  0
LINE
  8
25
 10
0.264500
 20
0.217350
 30
0.000000
 11
0.219500
 21
0.217350
 31
0.000000
  0
LINE
  8
25
 10
0.219500
 20
0.217350
 30
0.000000
 11
0.219500
 21
0.237350
 31
0.000000
  0
LINE
  8
25
 10
0.239500
 20
0.217350
 30
0.000000
 11
0.239500
 21
0.232350
 31
0.000000
  0
LINE
  8
25
 10
0.264500
 20
0.256250
 30
0.000000
 11
0.219500
 21
0.256250
 31
0.000000
  0
LINE
  8
25
 10
0.219500
 20
0.256250
 30
0.000000
 11
0.219500
 21
0.268750
 31
0.000000
  0
ARC
  8
25
 10
0.232000
 20
0.268750
 30
0.000000
 40
0.012500
 50
90.000000
 51
180.000000
  0
LINE
  8
25
 10
0.232000
 20
0.281250
 30
0.000000
 11
0.252000
 21
0.281250
 31
0.000000
  0
ARC
  8
25
 10
0.252000
 20
0.268750
 30
0.000000
 40
0.012500
 50
0.000000
 51
90.000000
  0
LINE
  8
25
 10
0.264500
 20
0.268750
 30
0.000000
 11
0.264500
 21
0.256250
 31
0.000000
  0
ARC
  8
25
 10
0.254500
 20
0.316250
 30
0.000000
 40
0.010000
 50
0.000000
 51
90.000000
  0
ARC
  8
25
 10
0.243375
 20
0.316250
 30
0.000000
 40
0.021125
 50
314.760270
 51
0.000000
  0
ARC
  8
25
 10
0.229500
 20
0.312500
 30
0.000000
 40
0.010000
 50
180.000000
 51
270.000000
  0
ARC
  8
25
 10
0.238250
 20
0.312500
 30
0.000000
 40
0.018750
 50
143.130102
 51
180.000000
  0
ARC
  8
25
 10
0.229500
 20
0.312656
 30
0.000000
 40
0.010156
 50
270.000000
 51
329.489763
  0
ARC
  8
25
 10
0.254500
 20
0.316094
 30
0.000000
 40
0.010156
 50
90.000000
 51
149.489763
  0
LINE
  8
25
 10
0.245750
 20
0.321250
 30
0.000000
 11
0.238250
 21
0.307500
 31
0.000000
  0
LINE
  8
25
 10
0.264500
 20
0.354250
 30
0.000000
 11
0.219500
 21
0.354250
 31
0.000000
  0
LINE
  8
25
 10
0.219500
 20
0.341750
 30
0.000000
 11
0.219500
 21
0.366750
 31
0.000000
  0
LINE
  8
25
 10
0.264500
 20
0.385576
 30
0.000000
 11
0.219500
 21
0.385576
 31
0.000000
  0
LINE
  8
25
 10
0.219500
 20
0.385576
 30
0.000000
 11
0.219500
 21
0.398076
 31
0.000000
  0
ARC
  8
25
 10
0.232000
 20
0.398076
 30
0.000000
 40
0.012500
 50
0.000000
 51
180.000000
  0
LINE
  8
25
 10
0.244500
 20
0.398076
 30
0.000000
 11
0.244500
 21
0.385576
 31
0.000000
  0
LINE
  8
25
 10
0.264500
 20
0.410576
 30
0.000000
 11
0.244500
 21
0.400576
 31
0.000000
  0
LINE
  8
25
 10
0.219500
 20
0.433750
 30
0.000000
 11
0.264500
 21
0.433750
 31
0.000000
  0
LINE
  8
25
 10
0.264500
 20
0.428750
 30
0.000000
 11
0.264500
 21
0.438750
 31
0.000000
  0
LINE
  8
25
 10
0.219500
 20
0.428750
 30
0.000000
 11
0.219500
 21
0.438750
 31
0.000000
  0
LINE
  8
25
 10
0.264500
 20
0.459500
 30
0.000000
 11
0.219500
 21
0.459500
 31
0.000000
  0
LINE
  8
25
 10
0.219500
 20
0.459500
 30
0.000000
 11
0.219500
 21
0.472000
 31
0.000000
  0
ARC
  8
25
 10
0.232000
 20
0.472000
 30
0.000000
 40
0.012500
 50
0.000000
 51
180.000000
  0
LINE
  8
25
 10
0.244500
 20
0.472000
 30
0.000000
 11
0.244500
 21
0.459500
 31
0.000000
  0
POINT
  8
23
 10
2.235000
 20
0.645000
 30
0.000000
  0
LINE
  8
21
 10
2.658228
 20
0.822165
 30
0.000000
 11
2.658228
 21
0.770984
 31
0.000000
  0
LINE
  8
21
 10
2.658228
 20
0.770984
 30
0.000000
 11
2.658228
 21
0.519016
 31
0.000000
  0
LINE
  8
21
 10
2.658228
 20
0.519016
 30
0.000000
 11
2.658228
 21
0.467835
 31
0.000000
  0
LINE
  8
21
 10
2.520433
 20
0.822165
 30
0.000000
 11
2.520433
 21
0.487520
 31
0.000000
  0
LINE
  8
21
 10
2.520433
 20
0.487520
 30
0.000000
 11
2.520433
 21
0.467835
 31
0.000000
  0
LINE
  8
51
 10
2.520433
 20
0.802480
 30
0.000000
 11
2.185787
 21
0.802480
 31
0.000000
  0
LINE
  8
21
 10
2.520433
 20
0.487520
 30
0.000000
 11
2.185787
 21
0.487520
 31
0.000000
  0
LINE
  8
51
 10
2.185787
 20
0.802480
 30
0.000000
 11
2.185787
 21
0.487520
 31
0.000000
  0
LINE
  8
51
 10
2.185787
 20
0.822165
 30
0.000000
 11
2.185787
 21
0.802480
 31
0.000000
  0
LINE
  8
21
 10
2.185787
 20
0.487520
 30
0.000000
 11
2.185787
 21
0.467835
 31
0.000000
  0
LINE
  8
21
 10
2.658228
 20
0.467835
 30
0.000000
 11
2.185787
 21
0.467835
 31
0.000000
  0
LINE
  8
51
 10
2.658228
 20
0.822165
 30
0.000000
 11
2.185787
 21
0.822165
 31
0.000000
  0
LINE
  8
51
 10
2.185787
 20
0.802480
 30
0.000000
 11
2.126732
 21
0.802480
 31
0.000000
  0
LINE
  8
51
 10
2.126732
 20
0.802480
 30
0.000000
 11
2.107047
 21
0.802480
 31
0.000000
  0
LINE
  8
21
 10
2.185787
 20
0.487520
 30
0.000000
 11
2.126732
 21
0.487520
 31
0.000000
  0
LINE
  8
21
 10
2.126732
 20
0.487520
 30
0.000000
 11
2.107047
 21
0.487520
 31
0.000000
  0
LINE
  8
51
 10
2.107047
 20
0.802480
 30
0.000000
 11
2.107047
 21
0.487520
 31
0.000000
  0
LINE
  8
51
 10
2.126732
 20
0.802480
 30
0.000000
 11
2.126732
 21
0.487520
 31
0.000000
  0
LINE
  8
21
 10
2.658228
 20
0.519016
 30
0.000000
 11
2.618858
 21
0.519016
 31
0.000000
  0
LINE
  8
21
 10
2.579488
 20
0.519016
 30
0.000000
 11
2.540118
 21
0.519016
 31
0.000000
  0
LINE
  8
21
 10
2.500748
 20
0.519016
 30
0.000000
 11
2.461378
 21
0.519016
 31
0.000000
  0
LINE
  8
21
 10
2.422008
 20
0.519016
 30
0.000000
 11
2.382638
 21
0.519016
 31
0.000000
  0
LINE
  8
21
 10
2.343268
 20
0.519016
 30
0.000000
 11
2.303898
 21
0.519016
 31
0.000000
  0
LINE
  8
21
 10
2.658228
 20
0.770984
 30
0.000000
 11
2.618858
 21
0.770984
 31
0.000000
  0
LINE
  8
21
 10
2.579488
 20
0.770984
 30
0.000000
 11
2.540118
 21
0.770984
 31
0.000000
  0
LINE
  8
21
 10
2.500748
 20
0.770984
 30
0.000000
 11
2.461378
 21
0.770984
 31
0.000000
  0
LINE
  8
21
 10
2.422008
 20
0.770984
 30
0.000000
 11
2.382638
 21
0.770984
 31
0.000000
  0
LINE
  8
21
 10
2.343268
 20
0.770984
 30
0.000000
 11
2.303898
 21
0.770984
 31
0.000000
  0
LINE
  8
21
 10
2.303898
 20
0.770984
 30
0.000000
 11
2.303898
 21
0.747362
 31
0.000000
  0
LINE
  8
21
 10
2.303898
 20
0.707992
 30
0.000000
 11
2.303898
 21
0.684370
 31
0.000000
  0
LINE
  8
21
 10
2.303898
 20
0.684370
 30
0.000000
 11
2.303898
 21
0.605630
 31
0.000000
  0
LINE
  8
21
 10
2.303898
 20
0.605630
 30
0.000000
 11
2.303898
 21
0.582008
 31
0.000000
  0
LINE
  8
21
 10
2.303898
 20
0.542638
 30
0.000000
 11
2.303898
 21
0.519016
 31
0.000000
  0
LINE
  8
51
 10
2.579488
 20
0.684370
 30
0.000000
 11
2.540118
 21
0.684370
 31
0.000000
  0
LINE
  8
51
 10
2.500748
 20
0.684370
 30
0.000000
 11
2.461378
 21
0.684370
 31
0.000000
  0
LINE
  8
51
 10
2.422008
 20
0.684370
 30
0.000000
 11
2.382638
 21
0.684370
 31
0.000000
  0
LINE
  8
51
 10
2.343268
 20
0.684370
 30
0.000000
 11
2.303898
 21
0.684370
 31
0.000000
  0
LINE
  8
51
 10
2.579488
 20
0.605630
 30
0.000000
 11
2.540118
 21
0.605630
 31
0.000000
  0
LINE
  8
51
 10
2.500748
 20
0.605630
 30
0.000000
 11
2.461378
 21
0.605630
 31
0.000000
  0
LINE
  8
51
 10
2.422008
 20
0.605630
 30
0.000000
 11
2.382638
 21
0.605630
 31
0.000000
  0
LINE
  8
51
 10
2.343268
 20
0.605630
 30
0.000000
 11
2.303898
 21
0.605630
 31
0.000000
  0
ARC
  8
21
 10
2.579488
 20
0.645000
 30
0.000000
 40
0.039370
 50
270.000000
 51
90.000000
  0
LINE
  8
46
 10
2.136575
 20
0.576102
 30
0.000000
 11
2.097205
 21
0.576102
 31
0.000000
  0
LINE
  8
46
 10
2.097205
 20
0.576102
 30
0.000000
 11
2.097205
 21
0.713898
 31
0.000000
  0
LINE
  8
46
 10
2.097205
 20
0.713898
 30
0.000000
 11
2.136575
 21
0.713898
 31
0.000000
  0
LINE
  8
46
 10
2.136575
 20
0.713898
 30
0.000000
 11
2.136575
 21
0.576102
 31
0.000000
  0
LINE
  8
46
 10
2.368858
 20
0.585945
 30
0.000000
 11
2.337362
 21
0.585945
 31
0.000000
  0
LINE
  8
46
 10
2.337362
 20
0.585945
 30
0.000000
 11
2.337362
 21
0.704055
 31
0.000000
  0
LINE
  8
46
 10
2.337362
 20
0.704055
 30
0.000000
 11
2.368858
 21
0.704055
 31
0.000000
  0
LINE
  8
46
 10
2.368858
 20
0.704055
 30
0.000000
 11
2.368858
 21
0.585945
 31
0.000000
  0
LINE
  8
46
 10
2.294055
 20
0.818228
 30
0.000000
 11
2.175945
 21
0.818228
 31
0.000000
  0
LINE
  8
46
 10
2.175945
 20
0.818228
 30
0.000000
 11
2.175945
 21
0.849724
 31
0.000000
  0
LINE
  8
46
 10
2.175945
 20
0.849724
 30
0.000000
 11
2.294055
 21
0.849724
 31
0.000000
  0
LINE
  8
46
 10
2.294055
 20
0.849724
 30
0.000000
 11
2.294055
 21
0.818228
 31
0.000000
  0
LINE
  8
21
 10
2.658228
 20
0.822165
 30
0.000000
 11
2.335787
 21
0.822165
 31
0.000000
  0
LINE
  8
21
 10
2.126732
 20
0.802480
 30
0.000000
 11
2.107047
 21
0.802480
 31
0.000000
  0
LINE
  8
21
 10
2.107047
 20
0.802480
 30
0.000000
 11
2.107047
 21
0.737520
 31
0.000000
  0
LINE
  8
21
 10
2.107047
 20
0.552480
 30
0.000000
 11
2.107047
 21
0.487520
 31
0.000000
  0
LINE
  8
21
 10
2.185787
 20
0.752480
 30
0.000000
 11
2.185787
 21
0.487520
 31
0.000000
  0
LINE
  8
21
 10
2.126732
 20
0.552480
 30
0.000000
 11
2.126732
 21
0.487520
 31
0.000000
  0
LINE
  8
21
 10
2.126732
 20
0.802480
 30
0.000000
 11
2.126732
 21
0.737520
 31
0.000000
  0
INSERT
  8
51
  2
RECT
 10
2.235000
 20
0.833976
 30
0.000000
 41
0.098425
 42
0.019685
 43
1.000000
 50
180.000000
  0
INSERT
  8
51
  2
RECT
 10
2.116890
 20
0.645000
 30
0.000000
 41
0.019685
 42
0.118110
 43
1.000000
 50
180.000000
  0
INSERT
  8
51
  2
RECT
 10
2.353110
 20
0.645000
 30
0.000000
 41
0.007874
 42
0.098425
 43
1.000000
 50
180.000000
  0
INSERT
  8
17
  2
LONGP100
 10
2.353110
 20
0.645000
 30
0.000000
 41
0.086000
 42
0.086000
 43
1.000000
 50
270.000000
  0
INSERT
  8
17
  2
LONGP100
 10
2.353110
 20
0.645000
 30
0.000000
 41
0.086000
 42
0.086000
 43
1.000000
 50
270.000000
  0
INSERT
  8
29
  2
LONGP100
 10
2.353110
 20
0.645000
 30
0.000000
 41
0.094000
 42
0.094000
 43
1.000000
 50
270.000000
  0
INSERT
  8
30
  2
LONGP100
 10
2.353110
 20
0.645000
 30
0.000000
 41
0.094000
 42
0.094000
 43
1.000000
 50
270.000000
  0
CIRCLE
  8
44
 10
2.353110
 20
0.645000
 30
0.000000
 40
0.015748
  0
INSERT
  8
17
  2
LONGP100
 10
2.235000
 20
0.833976
 30
0.000000
 41
0.086000
 42
0.086000
 43
1.000000
 50
180.000000
  0
INSERT
  8
17
  2
LONGP100
 10
2.235000
 20
0.833976
 30
0.000000
 41
0.086000
 42
0.086000
 43
1.000000
 50
180.000000
  0
INSERT
  8
29
  2
LONGP100
 10
2.235000
 20
0.833976
 30
0.000000
 41
0.094000
 42
0.094000
 43
1.000000
 50
180.000000
  0
INSERT
  8
30
  2
LONGP100
 10
2.235000
 20
0.833976
 30
0.000000
 41
0.094000
 42
0.094000
 43
1.000000
 50
180.000000
  0
CIRCLE
  8
44
 10
2.235000
 20
0.833976
 30
0.000000
 40
0.015748
  0
INSERT
  8
17
  2
LONGP100
 10
2.116890
 20
0.645000
 30
0.000000
 41
0.086000
 42
0.086000
 43
1.000000
 50
270.000000
  0
INSERT
  8
17
  2
LONGP100
 10
2.116890
 20
0.645000
 30
0.000000
 41
0.086000
 42
0.086000
 43
1.000000
 50
270.000000
  0
INSERT
  8
29
  2
LONGP100
 10
2.116890
 20
0.645000
 30
0.000000
 41
0.094000
 42
0.094000
 43
1.000000
 50
270.000000
  0
INSERT
  8
30
  2
LONGP100
 10
2.116890
 20
0.645000
 30
0.000000
 41
0.094000
 42
0.094000
 43
1.000000
 50
270.000000
  0
CIRCLE
  8
44
 10
2.116890
 20
0.645000
 30
0.000000
 40
0.019685
  0
POINT
  8
23
 10
0.710000
 20
0.640000
 30
0.000000
  0
LINE
  8
21
 10
0.510000
 20
0.572283
 30
0.000000
 11
0.910000
 21
0.572283
 31
0.000000
  0
LINE
  8
21
 10
0.910000
 20
0.572283
 30
0.000000
 11
0.910000
 21
0.757323
 31
0.000000
  0
LINE
  8
21
 10
0.910000
 20
0.757323
 30
0.000000
 11
0.510000
 21
0.757323
 31
0.000000
  0
LINE
  8
21
 10
0.510000
 20
0.757323
 30
0.000000
 11
0.510000
 21
0.572283
 31
0.000000
  0
LINE
  8
39
 10
0.501732
 20
0.767165
 30
0.000000
 11
0.924961
 21
0.767165
 31
0.000000
  0
LINE
  8
39
 10
0.924961
 20
0.767165
 30
0.000000
 11
0.924961
 21
0.561260
 31
0.000000
  0
LINE
  8
39
 10
0.924961
 20
0.561260
 30
0.000000
 11
0.501732
 21
0.561260
 31
0.000000
  0
LINE
  8
39
 10
0.501732
 20
0.561260
 30
0.000000
 11
0.501732
 21
0.767165
 31
0.000000
  0
LINE
  8
21
 10
0.509213
 20
0.726614
 30
0.000000
 11
0.910787
 21
0.726614
 31
0.000000
  0
CIRCLE
  8
21
 10
0.610000
 20
0.541575
 30
0.000000
 40
0.007874
  0
INSERT
  8
17
  2
SQUAREP
 10
0.610000
 20
0.640000
 30
0.000000
 41
0.077953
 42
0.077953
 43
1.000000
 50
0.000000
  0
INSERT
  8
17
  2
SQUAREP
 10
0.610000
 20
0.640000
 30
0.000000
 41
0.077953
 42
0.077953
 43
1.000000
 50
0.000000
  0
INSERT
  8
29
  2
SQUAREP
 10
0.610000
 20
0.640000
 30
0.000000
 41
0.085953
 42
0.085953
 43
1.000000
 50
0.000000
  0
INSERT
  8
30
  2
SQUAREP
 10
0.610000
 20
0.640000
 30
0.000000
 41
0.085953
 42
0.085953
 43
1.000000
 50
0.000000
  0
CIRCLE
  8
44
 10
0.610000
 20
0.640000
 30
0.000000
 40
0.025984
  0
INSERT
  8
17
  2
ROUNDP
 10
0.710000
 20
0.640000
 30
0.000000
 41
0.077953
 42
0.077953
 43
1.000000
 50
0.000000
  0
INSERT
  8
17
  2
ROUNDP
 10
0.710000
 20
0.640000
 30
0.000000
 41
0.077953
 42
0.077953
 43
1.000000
 50
0.000000
  0
INSERT
  8
29
  2
ROUNDP
 10
0.710000
 20
0.640000
 30
0.000000
 41
0.085953
 42
0.085953
 43
1.000000
 50
0.000000
  0
INSERT
  8
30
  2
ROUNDP
 10
0.710000
 20
0.640000
 30
0.000000
 41
0.085953
 42
0.085953
 43
1.000000
 50
0.000000
  0
CIRCLE
  8
44
 10
0.710000
 20
0.640000
 30
0.000000
 40
0.025984
  0
INSERT
  8
17
  2
ROUNDP
 10
0.810000
 20
0.640000
 30
0.000000
 41
0.077953
 42
0.077953
 43
1.000000
 50
0.000000
  0
INSERT
  8
17
  2
ROUNDP
 10
0.810000
 20
0.640000
 30
0.000000
 41
0.077953
 42
0.077953
 43
1.000000
 50
0.000000
  0
INSERT
  8
29
  2
ROUNDP
 10
0.810000
 20
0.640000
 30
0.000000
 41
0.085953
 42
0.085953
 43
1.000000
 50
0.000000
  0
INSERT
  8
30
  2
ROUNDP
 10
0.810000
 20
0.640000
 30
0.000000
 41
0.085953
 42
0.085953
 43
1.000000
 50
0.000000
  0
CIRCLE
  8
44
 10
0.810000
 20
0.640000
 30
0.000000
 40
0.025984
  0
LINE
  8
25
 10
0.657048
 20
0.765654
 30
0.000000
 11
0.657048
 21
0.802654
 31
0.000000
  0
LINE
  8
25
 10
0.657048
 20
0.802654
 30
0.000000
 11
0.667325
 21
0.802654
 31
0.000000
  0
ARC
  8
25
 10
0.667325
 20
0.792376
 30
0.000000
 40
0.010278
 50
270.000000
 51
90.000000
  0
LINE
  8
25
 10
0.667325
 20
0.782098
 30
0.000000
 11
0.657048
 21
0.782098
 31
0.000000
  0
LINE
  8
25
 10
0.677603
 20
0.765654
 30
0.000000
 11
0.669381
 21
0.782098
 31
0.000000
  0
LINE
  8
25
 10
0.710536
 20
0.765654
 30
0.000000
 11
0.694092
 21
0.765654
 31
0.000000
  0
LINE
  8
25
 10
0.694092
 20
0.765654
 30
0.000000
 11
0.694092
 21
0.802654
 31
0.000000
  0
LINE
  8
25
 10
0.694092
 20
0.802654
 30
0.000000
 11
0.710536
 21
0.802654
 31
0.000000
  0
LINE
  8
25
 10
0.694092
 20
0.786209
 30
0.000000
 11
0.706425
 21
0.786209
 31
0.000000
  0
LINE
  8
25
 10
0.725223
 20
0.765654
 30
0.000000
 11
0.725223
 21
0.802654
 31
0.000000
  0
LINE
  8
25
 10
0.725223
 20
0.802654
 30
0.000000
 11
0.735500
 21
0.802654
 31
0.000000
  0
ARC
  8
25
 10
0.735500
 20
0.792376
 30
0.000000
 40
0.010278
 50
0.000000
 51
90.000000
  0
LINE
  8
25
 10
0.745778
 20
0.792376
 30
0.000000
 11
0.745778
 21
0.775931
 31
0.000000
  0
ARC
  8
25
 10
0.735500
 20
0.775931
 30
0.000000
 40
0.010278
 50
269.999314
 51
0.000000
  0
LINE
  8
25
 10
0.735500
 20
0.765654
 30
0.000000
 11
0.725223
 21
0.765654
 31
0.000000
  0
POINT
  8
23
 10
0.000000
 20
0.000000
 30
0.000000
  0
LINE
  8
21
 10
0.279528
 20
1.143307
 30
0.000000
 11
0.279528
 21
1.043307
 31
0.000000
  0
LINE
  8
21
 10
0.279528
 20
1.043307
 30
0.000000
 11
0.279528
 21
0.943307
 31
0.000000
  0
LINE
  8
21
 10
0.279528
 20
0.943307
 30
0.000000
 11
0.317028
 21
0.943307
 31
0.000000
  0
LINE
  8
21
 10
0.317028
 20
0.943307
 30
0.000000
 11
0.342028
 21
0.943307
 31
0.000000
  0
LINE
  8
21
 10
0.342028
 20
0.943307
 30
0.000000
 11
0.379528
 21
0.943307
 31
0.000000
  0
LINE
  8
21
 10
0.379528
 20
0.943307
 30
0.000000
 11
2.279528
 21
0.943307
 31
0.000000
  0
LINE
  8
21
 10
2.279528
 20
0.943307
 30
0.000000
 11
2.279528
 21
1.143307
 31
0.000000
  0
LINE
  8
21
 10
2.279528
 20
1.143307
 30
0.000000
 11
0.279528
 21
1.143307
 31
0.000000
  0
LINE
  8
21
 10
0.279528
 20
1.043307
 30
0.000000
 11
0.379528
 21
1.043307
 31
0.000000
  0
LINE
  8
21
 10
0.379528
 20
1.043307
 30
0.000000
 11
0.379528
 21
0.943307
 31
0.000000
  0
LINE
  8
21
 10
0.317028
 20
0.943307
 30
0.000000
 11
0.317028
 21
0.930807
 31
0.000000
  0
LINE
  8
21
 10
0.317028
 20
0.930807
 30
0.000000
 11
0.342028
 21
0.930807
 31
0.000000
  0
LINE
  8
21
 10
0.342028
 20
0.930807
 30
0.000000
 11
0.342028
 21
0.943307
 31
0.000000
  0
LINE
  8
21
 10
0.319028
 20
0.910807
 30
0.000000
 11
0.329028
 21
0.918807
 31
0.000000
  0
LINE
  8
21
 10
0.329028
 20
0.918807
 30
0.000000
 11
0.329028
 21
0.882807
 31
0.000000
  0
LINE
  8
21
 10
0.319028
 20
0.882807
 30
0.000000
 11
0.339028
 21
0.882807
 31
0.000000
  0
INSERT
  8
17
  2
SQUAREP
 10
0.329528
 20
0.993307
 30
0.000000
 41
0.070000
 42
0.070000
 43
1.000000
 50
0.000000
  0
INSERT
  8
17
  2
SQUAREP
 10
0.329528
 20
0.993307
 30
0.000000
 41
0.070000
 42
0.070000
 43
1.000000
 50
0.000000
  0
INSERT
  8
29
  2
SQUAREP
 10
0.329528
 20
0.993307
 30
0.000000
 41
0.078000
 42
0.078000
 43
1.000000
 50
0.000000
  0
INSERT
  8
30
  2
SQUAREP
 10
0.329528
 20
0.993307
 30
0.000000
 41
0.078000
 42
0.078000
 43
1.000000
 50
0.000000
  0
CIRCLE
  8
44
 10
0.329528
 20
0.993307
 30
0.000000
 40
0.019685
  0
INSERT
  8
17
  2
ROUNDP
 10
0.329528
 20
1.093307
 30
0.000000
 41
0.070000
 42
0.070000
 43
1.000000
 50
0.000000
  0
INSERT
  8
17
  2
ROUNDP
 10
0.329528
 20
1.093307
 30
0.000000
 41
0.070000
 42
0.070000
 43
1.000000
 50
0.000000
  0
INSERT
  8
29
  2
ROUNDP
 10
0.329528
 20
1.093307
 30
0.000000
 41
0.078000
 42
0.078000
 43
1.000000
 50
0.000000
  0
INSERT
  8
30
  2
ROUNDP
 10
0.329528
 20
1.093307
 30
0.000000
 41
0.078000
 42
0.078000
 43
1.000000
 50
0.000000
  0
CIRCLE
  8
44
 10
0.329528
 20
1.093307
 30
0.000000
 40
0.019685
  0
INSERT
  8
17
  2
ROUNDP
 10
0.429528
 20
0.993307
 30
0.000000
 41
0.070000
 42
0.070000
 43
1.000000
 50
0.000000
  0
INSERT
  8
17
  2
ROUNDP
 10
0.429528
 20
0.993307
 30
0.000000
 41
0.070000
 42
0.070000
 43
1.000000
 50
0.000000
  0
INSERT
  8
29
  2
ROUNDP
 10
0.429528
 20
0.993307
 30
0.000000
 41
0.078000
 42
0.078000
 43
1.000000
 50
0.000000
  0
INSERT
  8
30
  2
ROUNDP
 10
0.429528
 20
0.993307
 30
0.000000
 41
0.078000
 42
0.078000
 43
1.000000
 50
0.000000
  0
CIRCLE
  8
44
 10
0.429528
 20
0.993307
 30
0.000000
 40
0.019685
  0
INSERT
  8
17
  2
ROUNDP
 10
0.429528
 20
1.093307
 30
0.000000
 41
0.070000
 42
0.070000
 43
1.000000
 50
0.000000
  0
INSERT
  8
17
  2
ROUNDP
 10
0.429528
 20
1.093307
 30
0.000000
 41
0.070000
 42
0.070000
 43
1.000000
 50
0.000000
  0
INSERT
  8
29
  2
ROUNDP
 10
0.429528
 20
1.093307
 30
0.000000
 41
0.078000
 42
0.078000
 43
1.000000
 50
0.000000
  0
INSERT
  8
30
  2
ROUNDP
 10
0.429528
 20
1.093307
 30
0.000000
 41
0.078000
 42
0.078000
 43
1.000000
 50
0.000000
  0
CIRCLE
  8
44
 10
0.429528
 20
1.093307
 30
0.000000
 40
0.019685
  0
INSERT
  8
17
  2
ROUNDP
 10
0.529528
 20
0.993307
 30
0.000000
 41
0.070000
 42
0.070000
 43
1.000000
 50
0.000000
  0
INSERT
  8
17
  2
ROUNDP
 10
0.529528
 20
0.993307
 30
0.000000
 41
0.070000
 42
0.070000
 43
1.000000
 50
0.000000
  0
INSERT
  8
29
  2
ROUNDP
 10
0.529528
 20
0.993307
 30
0.000000
 41
0.078000
 42
0.078000
 43
1.000000
 50
0.000000
  0
INSERT
  8
30
  2
ROUNDP
 10
0.529528
 20
0.993307
 30
0.000000
 41
0.078000
 42
0.078000
 43
1.000000
 50
0.000000
  0
CIRCLE
  8
44
 10
0.529528
 20
0.993307
 30
0.000000
 40
0.019685
  0
INSERT
  8
17
  2
ROUNDP
 10
0.529528
 20
1.093307
 30
0.000000
 41
0.070000
 42
0.070000
 43
1.000000
 50
0.000000
  0
INSERT
  8
17
  2
ROUNDP
 10
0.529528
 20
1.093307
 30
0.000000
 41
0.070000
 42
0.070000
 43
1.000000
 50
0.000000
  0
INSERT
  8
29
  2
ROUNDP
 10
0.529528
 20
1.093307
 30
0.000000
 41
0.078000
 42
0.078000
 43
1.000000
 50
0.000000
  0
INSERT
  8
30
  2
ROUNDP
 10
0.529528
 20
1.093307
 30
0.000000
 41
0.078000
 42
0.078000
 43
1.000000
 50
0.000000
  0
CIRCLE
  8
44
 10
0.529528
 20
1.093307
 30
0.000000
 40
0.019685
  0
INSERT
  8
17
  2
ROUNDP
 10
0.629528
 20
0.993307
 30
0.000000
 41
0.070000
 42
0.070000
 43
1.000000
 50
0.000000
  0
INSERT
  8
17
  2
ROUNDP
 10
0.629528
 20
0.993307
 30
0.000000
 41
0.070000
 42
0.070000
 43
1.000000
 50
0.000000
  0
INSERT
  8
29
  2
ROUNDP
 10
0.629528
 20
0.993307
 30
0.000000
 41
0.078000
 42
0.078000
 43
1.000000
 50
0.000000
  0
INSERT
  8
30
  2
ROUNDP
 10
0.629528
 20
0.993307
 30
0.000000
 41
0.078000
 42
0.078000
 43
1.000000
 50
0.000000
  0
CIRCLE
  8
44
 10
0.629528
 20
0.993307
 30
0.000000
 40
0.019685
  0
INSERT
  8
17
  2
ROUNDP
 10
0.629528
 20
1.093307
 30
0.000000
 41
0.070000
 42
0.070000
 43
1.000000
 50
0.000000
  0
INSERT
  8
17
  2
ROUNDP
 10
0.629528
 20
1.093307
 30
0.000000
 41
0.070000
 42
0.070000
 43
1.000000
 50
0.000000
  0
INSERT
  8
29
  2
ROUNDP
 10
0.629528
 20
1.093307
 30
0.000000
 41
0.078000
 42
0.078000
 43
1.000000
 50
0.000000
  0
INSERT
  8
30
  2
ROUNDP
 10
0.629528
 20
1.093307
 30
0.000000
 41
0.078000
 42
0.078000
 43
1.000000
 50
0.000000
  0
CIRCLE
  8
44
 10
0.629528
 20
1.093307
 30
0.000000
 40
0.019685
  0
INSERT
  8
17
  2
ROUNDP
 10
0.729528
 20
0.993307
 30
0.000000
 41
0.070000
 42
0.070000
 43
1.000000
 50
0.000000
  0
INSERT
  8
17
  2
ROUNDP
 10
0.729528
 20
0.993307
 30
0.000000
 41
0.070000
 42
0.070000
 43
1.000000
 50
0.000000
  0
INSERT
  8
29
  2
ROUNDP
 10
0.729528
 20
0.993307
 30
0.000000
 41
0.078000
 42
0.078000
 43
1.000000
 50
0.000000
  0
INSERT
  8
30
  2
ROUNDP
 10
0.729528
 20
0.993307
 30
0.000000
 41
0.078000
 42
0.078000
 43
1.000000
 50
0.000000
  0
CIRCLE
  8
44
 10
0.729528
 20
0.993307
 30
0.000000
 40
0.019685
  0
INSERT
  8
17
  2
ROUNDP
 10
0.729528
 20
1.093307
 30
0.000000
 41
0.070000
 42
0.070000
 43
1.000000
 50
0.000000
  0
INSERT
  8
17
  2
ROUNDP
 10
0.729528
 20
1.093307
 30
0.000000
 41
0.070000
 42
0.070000
 43
1.000000
 50
0.000000
  0
INSERT
  8
29
  2
ROUNDP
 10
0.729528
 20
1.093307
 30
0.000000
 41
0.078000
 42
0.078000
 43
1.000000
 50
0.000000
  0
INSERT
  8
30
  2
ROUNDP
 10
0.729528
 20
1.093307
 30
0.000000
 41
0.078000
 42
0.078000
 43
1.000000
 50
0.000000
  0
CIRCLE
  8
44
 10
0.729528
 20
1.093307
 30
0.000000
 40
0.019685
  0
INSERT
  8
17
  2
ROUNDP
 10
0.829528
 20
0.993307
 30
0.000000
 41
0.070000
 42
0.070000
 43
1.000000
 50
0.000000
  0
INSERT
  8
17
  2
ROUNDP
 10
0.829528
 20
0.993307
 30
0.000000
 41
0.070000
 42
0.070000
 43
1.000000
 50
0.000000
  0
INSERT
  8
29
  2
ROUNDP
 10
0.829528
 20
0.993307
 30
0.000000
 41
0.078000
 42
0.078000
 43
1.000000
 50
0.000000
  0
INSERT
  8
30
  2
ROUNDP
 10
0.829528
 20
0.993307
 30
0.000000
 41
0.078000
 42
0.078000
 43
1.000000
 50
0.000000
  0
CIRCLE
  8
44
 10
0.829528
 20
0.993307
 30
0.000000
 40
0.019685
  0
INSERT
  8
17
  2
ROUNDP
 10
0.829528
 20
1.093307
 30
0.000000
 41
0.070000
 42
0.070000
 43
1.000000
 50
0.000000
  0
INSERT
  8
17
  2
ROUNDP
 10
0.829528
 20
1.093307
 30
0.000000
 41
0.070000
 42
0.070000
 43
1.000000
 50
0.000000
  0
INSERT
  8
29
  2
ROUNDP
 10
0.829528
 20
1.093307
 30
0.000000
 41
0.078000
 42
0.078000
 43
1.000000
 50
0.000000
  0
INSERT
  8
30
  2
ROUNDP
 10
0.829528
 20
1.093307
 30
0.000000
 41
0.078000
 42
0.078000
 43
1.000000
 50
0.000000
  0
CIRCLE
  8
44
 10
0.829528
 20
1.093307
 30
0.000000
 40
0.019685
  0
INSERT
  8
17
  2
ROUNDP
 10
0.929528
 20
0.993307
 30
0.000000
 41
0.070000
 42
0.070000
 43
1.000000
 50
0.000000
  0
INSERT
  8
17
  2
ROUNDP
 10
0.929528
 20
0.993307
 30
0.000000
 41
0.070000
 42
0.070000
 43
1.000000
 50
0.000000
  0
INSERT
  8
29
  2
ROUNDP
 10
0.929528
 20
0.993307
 30
0.000000
 41
0.078000
 42
0.078000
 43
1.000000
 50
0.000000
  0
INSERT
  8
30
  2
ROUNDP
 10
0.929528
 20
0.993307
 30
0.000000
 41
0.078000
 42
0.078000
 43
1.000000
 50
0.000000
  0
CIRCLE
  8
44
 10
0.929528
 20
0.993307
 30
0.000000
 40
0.019685
  0
INSERT
  8
17
  2
ROUNDP
 10
0.929528
 20
1.093307
 30
0.000000
 41
0.070000
 42
0.070000
 43
1.000000
 50
0.000000
  0
INSERT
  8
17
  2
ROUNDP
 10
0.929528
 20
1.093307
 30
0.000000
 41
0.070000
 42
0.070000
 43
1.000000
 50
0.000000
  0
INSERT
  8
29
  2
ROUNDP
 10
0.929528
 20
1.093307
 30
0.000000
 41
0.078000
 42
0.078000
 43
1.000000
 50
0.000000
  0
INSERT
  8
30
  2
ROUNDP
 10
0.929528
 20
1.093307
 30
0.000000
 41
0.078000
 42
0.078000
 43
1.000000
 50
0.000000
  0
CIRCLE
  8
44
 10
0.929528
 20
1.093307
 30
0.000000
 40
0.019685
  0
INSERT
  8
17
  2
ROUNDP
 10
1.029528
 20
0.993307
 30
0.000000
 41
0.070000
 42
0.070000
 43
1.000000
 50
0.000000
  0
INSERT
  8
17
  2
ROUNDP
 10
1.029528
 20
0.993307
 30
0.000000
 41
0.070000
 42
0.070000
 43
1.000000
 50
0.000000
  0
INSERT
  8
29
  2
ROUNDP
 10
1.029528
 20
0.993307
 30
0.000000
 41
0.078000
 42
0.078000
 43
1.000000
 50
0.000000
  0
INSERT
  8
30
  2
ROUNDP
 10
1.029528
 20
0.993307
 30
0.000000
 41
0.078000
 42
0.078000
 43
1.000000
 50
0.000000
  0
CIRCLE
  8
44
 10
1.029528
 20
0.993307
 30
0.000000
 40
0.019685
  0
INSERT
  8
17
  2
ROUNDP
 10
1.029528
 20
1.093307
 30
0.000000
 41
0.070000
 42
0.070000
 43
1.000000
 50
0.000000
  0
INSERT
  8
17
  2
ROUNDP
 10
1.029528
 20
1.093307
 30
0.000000
 41
0.070000
 42
0.070000
 43
1.000000
 50
0.000000
  0
INSERT
  8
29
  2
ROUNDP
 10
1.029528
 20
1.093307
 30
0.000000
 41
0.078000
 42
0.078000
 43
1.000000
 50
0.000000
  0
INSERT
  8
30
  2
ROUNDP
 10
1.029528
 20
1.093307
 30
0.000000
 41
0.078000
 42
0.078000
 43
1.000000
 50
0.000000
  0
CIRCLE
  8
44
 10
1.029528
 20
1.093307
 30
0.000000
 40
0.019685
  0
INSERT
  8
17
  2
ROUNDP
 10
1.129528
 20
0.993307
 30
0.000000
 41
0.070000
 42
0.070000
 43
1.000000
 50
0.000000
  0
INSERT
  8
17
  2
ROUNDP
 10
1.129528
 20
0.993307
 30
0.000000
 41
0.070000
 42
0.070000
 43
1.000000
 50
0.000000
  0
INSERT
  8
29
  2
ROUNDP
 10
1.129528
 20
0.993307
 30
0.000000
 41
0.078000
 42
0.078000
 43
1.000000
 50
0.000000
  0
INSERT
  8
30
  2
ROUNDP
 10
1.129528
 20
0.993307
 30
0.000000
 41
0.078000
 42
0.078000
 43
1.000000
 50
0.000000
  0
CIRCLE
  8
44
 10
1.129528
 20
0.993307
 30
0.000000
 40
0.019685
  0
INSERT
  8
17
  2
ROUNDP
 10
1.129528
 20
1.093307
 30
0.000000
 41
0.070000
 42
0.070000
 43
1.000000
 50
0.000000
  0
INSERT
  8
17
  2
ROUNDP
 10
1.129528
 20
1.093307
 30
0.000000
 41
0.070000
 42
0.070000
 43
1.000000
 50
0.000000
  0
INSERT
  8
29
  2
ROUNDP
 10
1.129528
 20
1.093307
 30
0.000000
 41
0.078000
 42
0.078000
 43
1.000000
 50
0.000000
  0
INSERT
  8
30
  2
ROUNDP
 10
1.129528
 20
1.093307
 30
0.000000
 41
0.078000
 42
0.078000
 43
1.000000
 50
0.000000
  0
CIRCLE
  8
44
 10
1.129528
 20
1.093307
 30
0.000000
 40
0.019685
  0
INSERT
  8
17
  2
ROUNDP
 10
1.229528
 20
0.993307
 30
0.000000
 41
0.070000
 42
0.070000
 43
1.000000
 50
0.000000
  0
INSERT
  8
17
  2
ROUNDP
 10
1.229528
 20
0.993307
 30
0.000000
 41
0.070000
 42
0.070000
 43
1.000000
 50
0.000000
  0
INSERT
  8
29
  2
ROUNDP
 10
1.229528
 20
0.993307
 30
0.000000
 41
0.078000
 42
0.078000
 43
1.000000
 50
0.000000
  0
INSERT
  8
30
  2
ROUNDP
 10
1.229528
 20
0.993307
 30
0.000000
 41
0.078000
 42
0.078000
 43
1.000000
 50
0.000000
  0
CIRCLE
  8
44
 10
1.229528
 20
0.993307
 30
0.000000
 40
0.019685
  0
INSERT
  8
17
  2
ROUNDP
 10
1.229528
 20
1.093307
 30
0.000000
 41
0.070000
 42
0.070000
 43
1.000000
 50
0.000000
  0
INSERT
  8
17
  2
ROUNDP
 10
1.229528
 20
1.093307
 30
0.000000
 41
0.070000
 42
0.070000
 43
1.000000
 50
0.000000
  0
INSERT
  8
29
  2
ROUNDP
 10
1.229528
 20
1.093307
 30
0.000000
 41
0.078000
 42
0.078000
 43
1.000000
 50
0.000000
  0
INSERT
  8
30
  2
ROUNDP
 10
1.229528
 20
1.093307
 30
0.000000
 41
0.078000
 42
0.078000
 43
1.000000
 50
0.000000
  0
CIRCLE
  8
44
 10
1.229528
 20
1.093307
 30
0.000000
 40
0.019685
  0
INSERT
  8
17
  2
ROUNDP
 10
1.329528
 20
0.993307
 30
0.000000
 41
0.070000
 42
0.070000
 43
1.000000
 50
0.000000
  0
INSERT
  8
17
  2
ROUNDP
 10
1.329528
 20
0.993307
 30
0.000000
 41
0.070000
 42
0.070000
 43
1.000000
 50
0.000000
  0
INSERT
  8
29
  2
ROUNDP
 10
1.329528
 20
0.993307
 30
0.000000
 41
0.078000
 42
0.078000
 43
1.000000
 50
0.000000
  0
INSERT
  8
30
  2
ROUNDP
 10
1.329528
 20
0.993307
 30
0.000000
 41
0.078000
 42
0.078000
 43
1.000000
 50
0.000000
  0
CIRCLE
  8
44
 10
1.329528
 20
0.993307
 30
0.000000
 40
0.019685
  0
INSERT
  8
17
  2
ROUNDP
 10
1.329528
 20
1.093307
 30
0.000000
 41
0.070000
 42
0.070000
 43
1.000000
 50
0.000000
  0
INSERT
  8
17
  2
ROUNDP
 10
1.329528
 20
1.093307
 30
0.000000
 41
0.070000
 42
0.070000
 43
1.000000
 50
0.000000
  0
INSERT
  8
29
  2
ROUNDP
 10
1.329528
 20
1.093307
 30
0.000000
 41
0.078000
 42
0.078000
 43
1.000000
 50
0.000000
  0
INSERT
  8
30
  2
ROUNDP
 10
1.329528
 20
1.093307
 30
0.000000
 41
0.078000
 42
0.078000
 43
1.000000
 50
0.000000
  0
CIRCLE
  8
44
 10
1.329528
 20
1.093307
 30
0.000000
 40
0.019685
  0
INSERT
  8
17
  2
ROUNDP
 10
1.429528
 20
0.993307
 30
0.000000
 41
0.070000
 42
0.070000
 43
1.000000
 50
0.000000
  0
INSERT
  8
17
  2
ROUNDP
 10
1.429528
 20
0.993307
 30
0.000000
 41
0.070000
 42
0.070000
 43
1.000000
 50
0.000000
  0
INSERT
  8
29
  2
ROUNDP
 10
1.429528
 20
0.993307
 30
0.000000
 41
0.078000
 42
0.078000
 43
1.000000
 50
0.000000
  0
INSERT
  8
30
  2
ROUNDP
 10
1.429528
 20
0.993307
 30
0.000000
 41
0.078000
 42
0.078000
 43
1.000000
 50
0.000000
  0
CIRCLE
  8
44
 10
1.429528
 20
0.993307
 30
0.000000
 40
0.019685
  0
INSERT
  8
17
  2
ROUNDP
 10
1.429528
 20
1.093307
 30
0.000000
 41
0.070000
 42
0.070000
 43
1.000000
 50
0.000000
  0
INSERT
  8
17
  2
ROUNDP
 10
1.429528
 20
1.093307
 30
0.000000
 41
0.070000
 42
0.070000
 43
1.000000
 50
0.000000
  0
INSERT
  8
29
  2
ROUNDP
 10
1.429528
 20
1.093307
 30
0.000000
 41
0.078000
 42
0.078000
 43
1.000000
 50
0.000000
  0
INSERT
  8
30
  2
ROUNDP
 10
1.429528
 20
1.093307
 30
0.000000
 41
0.078000
 42
0.078000
 43
1.000000
 50
0.000000
  0
CIRCLE
  8
44
 10
1.429528
 20
1.093307
 30
0.000000
 40
0.019685
  0
INSERT
  8
17
  2
ROUNDP
 10
1.529528
 20
0.993307
 30
0.000000
 41
0.070000
 42
0.070000
 43
1.000000
 50
0.000000
  0
INSERT
  8
17
  2
ROUNDP
 10
1.529528
 20
0.993307
 30
0.000000
 41
0.070000
 42
0.070000
 43
1.000000
 50
0.000000
  0
INSERT
  8
29
  2
ROUNDP
 10
1.529528
 20
0.993307
 30
0.000000
 41
0.078000
 42
0.078000
 43
1.000000
 50
0.000000
  0
INSERT
  8
30
  2
ROUNDP
 10
1.529528
 20
0.993307
 30
0.000000
 41
0.078000
 42
0.078000
 43
1.000000
 50
0.000000
  0
CIRCLE
  8
44
 10
1.529528
 20
0.993307
 30
0.000000
 40
0.019685
  0
INSERT
  8
17
  2
ROUNDP
 10
1.529528
 20
1.093307
 30
0.000000
 41
0.070000
 42
0.070000
 43
1.000000
 50
0.000000
  0
INSERT
  8
17
  2
ROUNDP
 10
1.529528
 20
1.093307
 30
0.000000
 41
0.070000
 42
0.070000
 43
1.000000
 50
0.000000
  0
INSERT
  8
29
  2
ROUNDP
 10
1.529528
 20
1.093307
 30
0.000000
 41
0.078000
 42
0.078000
 43
1.000000
 50
0.000000
  0
INSERT
  8
30
  2
ROUNDP
 10
1.529528
 20
1.093307
 30
0.000000
 41
0.078000
 42
0.078000
 43
1.000000
 50
0.000000
  0
CIRCLE
  8
44
 10
1.529528
 20
1.093307
 30
0.000000
 40
0.019685
  0
INSERT
  8
17
  2
ROUNDP
 10
1.629528
 20
0.993307
 30
0.000000
 41
0.070000
 42
0.070000
 43
1.000000
 50
0.000000
  0
INSERT
  8
17
  2
ROUNDP
 10
1.629528
 20
0.993307
 30
0.000000
 41
0.070000
 42
0.070000
 43
1.000000
 50
0.000000
  0
INSERT
  8
29
  2
ROUNDP
 10
1.629528
 20
0.993307
 30
0.000000
 41
0.078000
 42
0.078000
 43
1.000000
 50
0.000000
  0
INSERT
  8
30
  2
ROUNDP
 10
1.629528
 20
0.993307
 30
0.000000
 41
0.078000
 42
0.078000
 43
1.000000
 50
0.000000
  0
CIRCLE
  8
44
 10
1.629528
 20
0.993307
 30
0.000000
 40
0.019685
  0
INSERT
  8
17
  2
ROUNDP
 10
1.629528
 20
1.093307
 30
0.000000
 41
0.070000
 42
0.070000
 43
1.000000
 50
0.000000
  0
INSERT
  8
17
  2
ROUNDP
 10
1.629528
 20
1.093307
 30
0.000000
 41
0.070000
 42
0.070000
 43
1.000000
 50
0.000000
  0
INSERT
  8
29
  2
ROUNDP
 10
1.629528
 20
1.093307
 30
0.000000
 41
0.078000
 42
0.078000
 43
1.000000
 50
0.000000
  0
INSERT
  8
30
  2
ROUNDP
 10
1.629528
 20
1.093307
 30
0.000000
 41
0.078000
 42
0.078000
 43
1.000000
 50
0.000000
  0
CIRCLE
  8
44
 10
1.629528
 20
1.093307
 30
0.000000
 40
0.019685
  0
INSERT
  8
17
  2
ROUNDP
 10
1.729528
 20
0.993307
 30
0.000000
 41
0.070000
 42
0.070000
 43
1.000000
 50
0.000000
  0
INSERT
  8
17
  2
ROUNDP
 10
1.729528
 20
0.993307
 30
0.000000
 41
0.070000
 42
0.070000
 43
1.000000
 50
0.000000
  0
INSERT
  8
29
  2
ROUNDP
 10
1.729528
 20
0.993307
 30
0.000000
 41
0.078000
 42
0.078000
 43
1.000000
 50
0.000000
  0
INSERT
  8
30
  2
ROUNDP
 10
1.729528
 20
0.993307
 30
0.000000
 41
0.078000
 42
0.078000
 43
1.000000
 50
0.000000
  0
CIRCLE
  8
44
 10
1.729528
 20
0.993307
 30
0.000000
 40
0.019685
  0
INSERT
  8
17
  2
ROUNDP
 10
1.729528
 20
1.093307
 30
0.000000
 41
0.070000
 42
0.070000
 43
1.000000
 50
0.000000
  0
INSERT
  8
17
  2
ROUNDP
 10
1.729528
 20
1.093307
 30
0.000000
 41
0.070000
 42
0.070000
 43
1.000000
 50
0.000000
  0
INSERT
  8
29
  2
ROUNDP
 10
1.729528
 20
1.093307
 30
0.000000
 41
0.078000
 42
0.078000
 43
1.000000
 50
0.000000
  0
INSERT
  8
30
  2
ROUNDP
 10
1.729528
 20
1.093307
 30
0.000000
 41
0.078000
 42
0.078000
 43
1.000000
 50
0.000000
  0
CIRCLE
  8
44
 10
1.729528
 20
1.093307
 30
0.000000
 40
0.019685
  0
INSERT
  8
17
  2
ROUNDP
 10
1.829528
 20
0.993307
 30
0.000000
 41
0.070000
 42
0.070000
 43
1.000000
 50
0.000000
  0
INSERT
  8
17
  2
ROUNDP
 10
1.829528
 20
0.993307
 30
0.000000
 41
0.070000
 42
0.070000
 43
1.000000
 50
0.000000
  0
INSERT
  8
29
  2
ROUNDP
 10
1.829528
 20
0.993307
 30
0.000000
 41
0.078000
 42
0.078000
 43
1.000000
 50
0.000000
  0
INSERT
  8
30
  2
ROUNDP
 10
1.829528
 20
0.993307
 30
0.000000
 41
0.078000
 42
0.078000
 43
1.000000
 50
0.000000
  0
CIRCLE
  8
44
 10
1.829528
 20
0.993307
 30
0.000000
 40
0.019685
  0
INSERT
  8
17
  2
ROUNDP
 10
1.829528
 20
1.093307
 30
0.000000
 41
0.070000
 42
0.070000
 43
1.000000
 50
0.000000
  0
INSERT
  8
17
  2
ROUNDP
 10
1.829528
 20
1.093307
 30
0.000000
 41
0.070000
 42
0.070000
 43
1.000000
 50
0.000000
  0
INSERT
  8
29
  2
ROUNDP
 10
1.829528
 20
1.093307
 30
0.000000
 41
0.078000
 42
0.078000
 43
1.000000
 50
0.000000
  0
INSERT
  8
30
  2
ROUNDP
 10
1.829528
 20
1.093307
 30
0.000000
 41
0.078000
 42
0.078000
 43
1.000000
 50
0.000000
  0
CIRCLE
  8
44
 10
1.829528
 20
1.093307
 30
0.000000
 40
0.019685
  0
INSERT
  8
17
  2
ROUNDP
 10
1.929528
 20
0.993307
 30
0.000000
 41
0.070000
 42
0.070000
 43
1.000000
 50
0.000000
  0
INSERT
  8
17
  2
ROUNDP
 10
1.929528
 20
0.993307
 30
0.000000
 41
0.070000
 42
0.070000
 43
1.000000
 50
0.000000
  0
INSERT
  8
29
  2
ROUNDP
 10
1.929528
 20
0.993307
 30
0.000000
 41
0.078000
 42
0.078000
 43
1.000000
 50
0.000000
  0
INSERT
  8
30
  2
ROUNDP
 10
1.929528
 20
0.993307
 30
0.000000
 41
0.078000
 42
0.078000
 43
1.000000
 50
0.000000
  0
CIRCLE
  8
44
 10
1.929528
 20
0.993307
 30
0.000000
 40
0.019685
  0
INSERT
  8
17
  2
ROUNDP
 10
1.929528
 20
1.093307
 30
0.000000
 41
0.070000
 42
0.070000
 43
1.000000
 50
0.000000
  0
INSERT
  8
17
  2
ROUNDP
 10
1.929528
 20
1.093307
 30
0.000000
 41
0.070000
 42
0.070000
 43
1.000000
 50
0.000000
  0
INSERT
  8
29
  2
ROUNDP
 10
1.929528
 20
1.093307
 30
0.000000
 41
0.078000
 42
0.078000
 43
1.000000
 50
0.000000
  0
INSERT
  8
30
  2
ROUNDP
 10
1.929528
 20
1.093307
 30
0.000000
 41
0.078000
 42
0.078000
 43
1.000000
 50
0.000000
  0
CIRCLE
  8
44
 10
1.929528
 20
1.093307
 30
0.000000
 40
0.019685
  0
INSERT
  8
17
  2
ROUNDP
 10
2.029528
 20
0.993307
 30
0.000000
 41
0.070000
 42
0.070000
 43
1.000000
 50
0.000000
  0
INSERT
  8
17
  2
ROUNDP
 10
2.029528
 20
0.993307
 30
0.000000
 41
0.070000
 42
0.070000
 43
1.000000
 50
0.000000
  0
INSERT
  8
29
  2
ROUNDP
 10
2.029528
 20
0.993307
 30
0.000000
 41
0.078000
 42
0.078000
 43
1.000000
 50
0.000000
  0
INSERT
  8
30
  2
ROUNDP
 10
2.029528
 20
0.993307
 30
0.000000
 41
0.078000
 42
0.078000
 43
1.000000
 50
0.000000
  0
CIRCLE
  8
44
 10
2.029528
 20
0.993307
 30
0.000000
 40
0.019685
  0
INSERT
  8
17
  2
ROUNDP
 10
2.029528
 20
1.093307
 30
0.000000
 41
0.070000
 42
0.070000
 43
1.000000
 50
0.000000
  0
INSERT
  8
17
  2
ROUNDP
 10
2.029528
 20
1.093307
 30
0.000000
 41
0.070000
 42
0.070000
 43
1.000000
 50
0.000000
  0
INSERT
  8
29
  2
ROUNDP
 10
2.029528
 20
1.093307
 30
0.000000
 41
0.078000
 42
0.078000
 43
1.000000
 50
0.000000
  0
INSERT
  8
30
  2
ROUNDP
 10
2.029528
 20
1.093307
 30
0.000000
 41
0.078000
 42
0.078000
 43
1.000000
 50
0.000000
  0
CIRCLE
  8
44
 10
2.029528
 20
1.093307
 30
0.000000
 40
0.019685
  0
INSERT
  8
17
  2
ROUNDP
 10
2.129528
 20
0.993307
 30
0.000000
 41
0.070000
 42
0.070000
 43
1.000000
 50
0.000000
  0
INSERT
  8
17
  2
ROUNDP
 10
2.129528
 20
0.993307
 30
0.000000
 41
0.070000
 42
0.070000
 43
1.000000
 50
0.000000
  0
INSERT
  8
29
  2
ROUNDP
 10
2.129528
 20
0.993307
 30
0.000000
 41
0.078000
 42
0.078000
 43
1.000000
 50
0.000000
  0
INSERT
  8
30
  2
ROUNDP
 10
2.129528
 20
0.993307
 30
0.000000
 41
0.078000
 42
0.078000
 43
1.000000
 50
0.000000
  0
CIRCLE
  8
44
 10
2.129528
 20
0.993307
 30
0.000000
 40
0.019685
  0
INSERT
  8
17
  2
ROUNDP
 10
2.129528
 20
1.093307
 30
0.000000
 41
0.070000
 42
0.070000
 43
1.000000
 50
0.000000
  0
INSERT
  8
17
  2
ROUNDP
 10
2.129528
 20
1.093307
 30
0.000000
 41
0.070000
 42
0.070000
 43
1.000000
 50
0.000000
  0
INSERT
  8
29
  2
ROUNDP
 10
2.129528
 20
1.093307
 30
0.000000
 41
0.078000
 42
0.078000
 43
1.000000
 50
0.000000
  0
INSERT
  8
30
  2
ROUNDP
 10
2.129528
 20
1.093307
 30
0.000000
 41
0.078000
 42
0.078000
 43
1.000000
 50
0.000000
  0
CIRCLE
  8
44
 10
2.129528
 20
1.093307
 30
0.000000
 40
0.019685
  0
INSERT
  8
17
  2
ROUNDP
 10
2.229528
 20
0.993307
 30
0.000000
 41
0.070000
 42
0.070000
 43
1.000000
 50
0.000000
  0
INSERT
  8
17
  2
ROUNDP
 10
2.229528
 20
0.993307
 30
0.000000
 41
0.070000
 42
0.070000
 43
1.000000
 50
0.000000
  0
INSERT
  8
29
  2
ROUNDP
 10
2.229528
 20
0.993307
 30
0.000000
 41
0.078000
 42
0.078000
 43
1.000000
 50
0.000000
  0
INSERT
  8
30
  2
ROUNDP
 10
2.229528
 20
0.993307
 30
0.000000
 41
0.078000
 42
0.078000
 43
1.000000
 50
0.000000
  0
CIRCLE
  8
44
 10
2.229528
 20
0.993307
 30
0.000000
 40
0.019685
  0
INSERT
  8
17
  2
ROUNDP
 10
2.229528
 20
1.093307
 30
0.000000
 41
0.070000
 42
0.070000
 43
1.000000
 50
0.000000
  0
INSERT
  8
17
  2
ROUNDP
 10
2.229528
 20
1.093307
 30
0.000000
 41
0.070000
 42
0.070000
 43
1.000000
 50
0.000000
  0
INSERT
  8
29
  2
ROUNDP
 10
2.229528
 20
1.093307
 30
0.000000
 41
0.078000
 42
0.078000
 43
1.000000
 50
0.000000
  0
INSERT
  8
30
  2
ROUNDP
 10
2.229528
 20
1.093307
 30
0.000000
 41
0.078000
 42
0.078000
 43
1.000000
 50
0.000000
  0
CIRCLE
  8
44
 10
2.229528
 20
1.093307
 30
0.000000
 40
0.019685
  0
POINT
  8
23
 10
0.330000
 20
0.670000
 30
0.000000
  0
LINE
  8
21
 10
0.380000
 20
0.745000
 30
0.000000
 11
0.380000
 21
0.695000
 31
0.000000
  0
LINE
  8
21
 10
0.380000
 20
0.695000
 30
0.000000
 11
0.355000
 21
0.670000
 31
0.000000
  0
LINE
  8
21
 10
0.355000
 20
0.670000
 30
0.000000
 11
0.305000
 21
0.670000
 31
0.000000
  0
LINE
  8
21
 10
0.305000
 20
0.670000
 30
0.000000
 11
0.280000
 21
0.695000
 31
0.000000
  0
LINE
  8
21
 10
0.355000
 20
0.770000
 30
0.000000
 11
0.305000
 21
0.770000
 31
0.000000
  0
LINE
  8
21
 10
0.380000
 20
0.745000
 30
0.000000
 11
0.355000
 21
0.770000
 31
0.000000
  0
LINE
  8
21
 10
0.305000
 20
0.770000
 30
0.000000
 11
0.280000
 21
0.745000
 31
0.000000
  0
LINE
  8
21
 10
0.280000
 20
0.695000
 30
0.000000
 11
0.280000
 21
0.745000
 31
0.000000
  0
LINE
  8
21
 10
0.355000
 20
0.670000
 30
0.000000
 11
0.380000
 21
0.645000
 31
0.000000
  0
LINE
  8
21
 10
0.380000
 20
0.645000
 30
0.000000
 11
0.380000
 21
0.595000
 31
0.000000
  0
LINE
  8
21
 10
0.380000
 20
0.595000
 30
0.000000
 11
0.355000
 21
0.570000
 31
0.000000
  0
LINE
  8
21
 10
0.355000
 20
0.570000
 30
0.000000
 11
0.305000
 21
0.570000
 31
0.000000
  0
LINE
  8
21
 10
0.305000
 20
0.570000
 30
0.000000
 11
0.280000
 21
0.595000
 31
0.000000
  0
LINE
  8
21
 10
0.280000
 20
0.595000
 30
0.000000
 11
0.280000
 21
0.645000
 31
0.000000
  0
LINE
  8
21
 10
0.280000
 20
0.645000
 30
0.000000
 11
0.305000
 21
0.670000
 31
0.000000
  0
INSERT
  8
51
  2
RECT
 10
0.330000
 20
0.720000
 30
0.000000
 41
0.020000
 42
0.020000
 43
1.000000
 50
270.000000
  0
INSERT
  8
51
  2
RECT
 10
0.330000
 20
0.620000
 30
0.000000
 41
0.020000
 42
0.020000
 43
1.000000
 50
270.000000
  0
INSERT
  8
17
  2
LONGP100
 10
0.330000
 20
0.720000
 30
0.000000
 41
0.060000
 42
0.060000
 43
1.000000
 50
0.000000
  0
INSERT
  8
17
  2
LONGP100
 10
0.330000
 20
0.720000
 30
0.000000
 41
0.060000
 42
0.060000
 43
1.000000
 50
0.000000
  0
INSERT
  8
29
  2
LONGP100
 10
0.330000
 20
0.720000
 30
0.000000
 41
0.068000
 42
0.068000
 43
1.000000
 50
0.000000
  0
INSERT
  8
30
  2
LONGP100
 10
0.330000
 20
0.720000
 30
0.000000
 41
0.068000
 42
0.068000
 43
1.000000
 50
0.000000
  0
CIRCLE
  8
44
 10
0.330000
 20
0.720000
 30
0.000000
 40
0.020000
  0
INSERT
  8
17
  2
LONGP100
 10
0.330000
 20
0.620000
 30
0.000000
 41
0.060000
 42
0.060000
 43
1.000000
 50
0.000000
  0
INSERT
  8
17
  2
LONGP100
 10
0.330000
 20
0.620000
 30
0.000000
 41
0.060000
 42
0.060000
 43
1.000000
 50
0.000000
  0
INSERT
  8
29
  2
LONGP100
 10
0.330000
 20
0.620000
 30
0.000000
 41
0.068000
 42
0.068000
 43
1.000000
 50
0.000000
  0
INSERT
  8
30
  2
LONGP100
 10
0.330000
 20
0.620000
 30
0.000000
 41
0.068000
 42
0.068000
 43
1.000000
 50
0.000000
  0
CIRCLE
  8
44
 10
0.330000
 20
0.620000
 30
0.000000
 40
0.020000
  0
ARC
  8
25
 10
0.251500
 20
0.644000
 30
0.000000
 40
0.010000
 50
0.000000
 51
90.000000
  0
ARC
  8
25
 10
0.240375
 20
0.644000
 30
0.000000
 40
0.021125
 50
314.760270
 51
0.000000
  0
ARC
  8
25
 10
0.226500
 20
0.640250
 30
0.000000
 40
0.010000
 50
180.000000
 51
270.000000
  0
ARC
  8
25
 10
0.235250
 20
0.640250
 30
0.000000
 40
0.018750
 50
143.130102
 51
180.000000
  0
ARC
  8
25
 10
0.226500
 20
0.640406
 30
0.000000
 40
0.010156
 50
270.000000
 51
329.489763
  0
ARC
  8
25
 10
0.251500
 20
0.643844
 30
0.000000
 40
0.010156
 50
90.000000
 51
149.489763
  0
LINE
  8
25
 10
0.242750
 20
0.649000
 30
0.000000
 11
0.235250
 21
0.635250
 31
0.000000
  0
LINE
  8
25
 10
0.216500
 20
0.671000
 30
0.000000
 11
0.261500
 21
0.681000
 31
0.000000
  0
LINE
  8
25
 10
0.261500
 20
0.681000
 30
0.000000
 11
0.231500
 21
0.691000
 31
0.000000
  0
LINE
  8
25
 10
0.231500
 20
0.691000
 30
0.000000
 11
0.261500
 21
0.701000
 31
0.000000
  0
LINE
  8
25
 10
0.261500
 20
0.701000
 30
0.000000
 11
0.216500
 21
0.711000
 31
0.000000
  0
LINE
  8
25
 10
0.226500
 20
0.729500
 30
0.000000
 11
0.216500
 21
0.742000
 31
0.000000
  0
LINE
  8
25
 10
0.216500
 20
0.742000
 30
0.000000
 11
0.261500
 21
0.742000
 31
0.000000
  0
LINE
  8
25
 10
0.261500
 20
0.729500
 30
0.000000
 11
0.261500
 21
0.754500
 31
0.000000
  0
LINE
  8
1
 10
0.329528
 20
0.993307
 30
0.000000
 11
0.329528
 21
0.720472
 31
0.000000
  0
LINE
  8
1
 10
0.329528
 20
0.720472
 30
0.000000
 11
0.330000
 21
0.720000
 31
0.000000
  0
LINE
  8
16
 10
0.293307
 20
1.093307
 30
0.000000
 11
0.233100
 21
1.033100
 31
0.000000
  0
LINE
  8
16
 10
0.293307
 20
1.093307
 30
0.000000
 11
0.329528
 21
1.093307
 31
0.000000
  0
LINE
  8
1
 10
0.775000
 20
0.265000
 30
0.000000
 11
0.920000
 21
0.265000
 31
0.000000
  0
LINE
  8
1
 10
0.920000
 20
0.265000
 30
0.000000
 11
0.930000
 21
0.255000
 31
0.000000
  0
LINE
  8
1
 10
0.930000
 20
0.260000
 30
0.000000
 11
0.985000
 21
0.205000
 31
0.000000
  0
LINE
  8
1
 10
1.350906
 20
0.205000
 30
0.000000
 11
1.423071
 21
0.277165
 31
0.000000
  0
LINE
  8
1
 10
0.985000
 20
0.205000
 30
0.000000
 11
1.350906
 21
0.205000
 31
0.000000
  0
LINE
  8
16
 10
0.233100
 20
1.033100
 30
0.000000
 11
0.233100
 21
0.956900
 31
0.000000
  0
LINE
  8
16
 10
0.520000
 20
0.670000
 30
0.000000
 11
0.520000
 21
0.420000
 31
0.000000
  0
LINE
  8
16
 10
0.233100
 20
0.956900
 30
0.000000
 11
0.520000
 21
0.670000
 31
0.000000
  0
LINE
  8
16
 10
0.520000
 20
0.420000
 30
0.000000
 11
0.675000
 21
0.265000
 31
0.000000
  0
LINE
  8
16
 10
0.675000
 20
0.265000
 30
0.000000
 11
0.775000
 21
0.265000
 31
0.000000
  0
LINE
  8
19
 10
0.930000
 20
0.255000
 30
0.000000
 11
0.930000
 21
0.260000
 31
0.000000
  0
LINE
  8
16
 10
2.116890
 20
0.645000
 30
0.000000
 11
2.116890
 21
0.556890
 31
0.000000
  0
LINE
  8
16
 10
2.116890
 20
0.556890
 30
0.000000
 11
1.850000
 21
0.290000
 31
0.000000
  0
LINE
  8
16
 10
0.325000
 20
0.190000
 30
0.000000
 11
0.333000
 21
0.182000
 31
0.000000
  0
LINE
  8
16
 10
1.620000
 20
0.426000
 30
0.000000
 11
1.623858
 21
0.430709
 31
0.000000
  0
LINE
  8
16
 10
1.764567
 20
0.290000
 30
0.000000
 11
1.850000
 21
0.290000
 31
0.000000
  0
LINE
  8
16
 10
1.623858
 20
0.430709
 30
0.000000
 11
1.764567
 21
0.290000
 31
0.000000
  0
LINE
  8
16
 10
1.850000
 20
0.285000
 30
0.000000
 11
1.850000
 21
0.290000
 31
0.000000
  0
LINE
  8
16
 10
0.325000
 20
0.190000
 30
0.000000
 11
1.750000
 21
0.190000
 31
0.000000
  0
LINE
  8
16
 10
1.750000
 20
0.190000
 30
0.000000
 11
1.850000
 21
0.290000
 31
0.000000
  0
LINE
  8
16
 10
1.810000
 20
0.630000
 30
0.000000
 11
1.960000
 21
0.780000
 31
0.000000
  0
LINE
  8
16
 10
1.320000
 20
0.640000
 30
0.000000
 11
1.460000
 21
0.780000
 31
0.000000
  0
LINE
  8
16
 10
1.460000
 20
0.780000
 30
0.000000
 11
1.960000
 21
0.780000
 31
0.000000
  0
LINE
  8
16
 10
0.810000
 20
0.640000
 30
0.000000
 11
0.930000
 21
0.760000
 31
0.000000
  0
LINE
  8
16
 10
0.930000
 20
0.760000
 30
0.000000
 11
1.200000
 21
0.760000
 31
0.000000
  0
LINE
  8
16
 10
1.200000
 20
0.760000
 30
0.000000
 11
1.320000
 21
0.640000
 31
0.000000
  0
LINE
  8
16
 10
2.265000
 20
0.645000
 30
0.000000
 11
2.353110
 21
0.645000
 31
0.000000
  0
LINE
  8
16
 10
2.130000
 20
0.780000
 30
0.000000
 11
2.265000
 21
0.645000
 31
0.000000
  0
LINE
  8
16
 10
1.850000
 20
0.390000
 30
0.000000
 11
1.850000
 21
0.435000
 31
0.000000
  0
LINE
  8
16
 10
1.850000
 20
0.435000
 30
0.000000
 11
1.930000
 21
0.515000
 31
0.000000
  0
LINE
  8
16
 10
1.930000
 20
0.515000
 30
0.000000
 11
1.490000
 21
0.515000
 31
0.000000
  0
LINE
  8
19
 10
1.490000
 20
0.515000
 30
0.000000
 11
1.360000
 21
0.515000
 31
0.000000
  0
LINE
  8
16
 10
1.356142
 20
0.430709
 30
0.000000
 11
1.356142
 21
0.511142
 31
0.000000
  0
LINE
  8
16
 10
1.490000
 20
0.430709
 30
0.000000
 11
1.490000
 21
0.515000
 31
0.000000
  0
LINE
  8
16
 10
0.775000
 20
0.365000
 30
0.000000
 11
0.925000
 21
0.515000
 31
0.000000
  0
LINE
  8
16
 10
0.925000
 20
0.515000
 30
0.000000
 11
1.490000
 21
0.515000
 31
0.000000
  0
LINE
  8
19
 10
1.230000
 20
0.515000
 30
0.000000
 11
1.360000
 21
0.515000
 31
0.000000
  0
LINE
  8
16
 10
1.235000
 20
0.445000
 30
0.000000
 11
1.235000
 21
0.510000
 31
0.000000
  0
LINE
  8
16
 10
1.960000
 20
0.780000
 30
0.000000
 11
2.020000
 21
0.780000
 31
0.000000
  0
LINE
  8
16
 10
2.020000
 20
0.780000
 30
0.000000
 11
2.130000
 21
0.780000
 31
0.000000
  0
LINE
  8
16
 10
2.020000
 20
0.605000
 30
0.000000
 11
2.020000
 21
0.780000
 31
0.000000
  0
LINE
  8
16
 10
1.930000
 20
0.515000
 30
0.000000
 11
2.020000
 21
0.605000
 31
0.000000
  0
LINE
  8
16
 10
2.229528
 20
0.993307
 30
0.000000
 11
2.353110
 21
0.869724
 31
0.000000
  0
LINE
  8
16
 10
2.353110
 20
0.869724
 30
0.000000
 11
2.353110
 21
0.645000
 31
0.000000
  0
LINE
  8
19
 10
1.360000
 20
0.515000
 30
0.000000
 11
1.356142
 21
0.511142
 31
0.000000
  0
LINE
  8
19
 10
1.235000
 20
0.510000
 30
0.000000
 11
1.230000
 21
0.515000
 31
0.000000
  0
LINE
  8
1
 10
0.325000
 20
0.490000
 30
0.000000
 11
0.560000
 21
0.490000
 31
0.000000
  0
LINE
  8
1
 10
0.560000
 20
0.490000
 30
0.000000
 11
0.710000
 21
0.640000
 31
0.000000
  0
LINE
  8
1
 10
0.760000
 20
0.575000
 30
0.000000
 11
1.175000
 21
0.575000
 31
0.000000
  0
LINE
  8
1
 10
1.175000
 20
0.575000
 30
0.000000
 11
1.220000
 21
0.620000
 31
0.000000
  0
LINE
  8
1
 10
1.220000
 20
0.620000
 30
0.000000
 11
1.220000
 21
0.640000
 31
0.000000
  0
LINE
  8
1
 10
0.325000
 20
0.390000
 30
0.000000
 11
0.575000
 21
0.390000
 31
0.000000
  0
LINE
  8
1
 10
0.575000
 20
0.390000
 30
0.000000
 11
0.760000
 21
0.575000
 31
0.000000
  0
LINE
  8
1
 10
1.710000
 20
0.630000
 30
0.000000
 11
1.712500
 21
0.627500
 31
0.000000
  0
LINE
  8
1
 10
1.712500
 20
0.627500
 30
0.000000
 11
1.720000
 21
0.620000
 31
0.000000
  0
LINE
  8
1
 10
0.585000
 20
0.290000
 30
0.000000
 11
0.810000
 21
0.515000
 31
0.000000
  0
LINE
  8
1
 10
1.600000
 20
0.515000
 30
0.000000
 11
1.712500
 21
0.627500
 31
0.000000
  0
LINE
  8
1
 10
0.810000
 20
0.515000
 30
0.000000
 11
1.600000
 21
0.515000
 31
0.000000
  0
LINE
  8
1
 10
0.325000
 20
0.290000
 30
0.000000
 11
0.585000
 21
0.290000
 31
0.000000
  0
LINE
  8
1
 10
0.829528
 20
0.993307
 30
0.000000
 11
0.905000
 21
0.917835
 31
0.000000
  0
LINE
  8
1
 10
0.905000
 20
0.917835
 30
0.000000
 11
0.905000
 21
0.850000
 31
0.000000
  0
LINE
  8
1
 10
1.029528
 20
0.990472
 30
0.000000
 11
1.029528
 21
0.993307
 31
0.000000
  0
LINE
  8
1
 10
1.029528
 20
0.993307
 30
0.000000
 11
1.092835
 21
0.930000
 31
0.000000
  0
LINE
  8
1
 10
1.092835
 20
0.930000
 30
0.000000
 11
1.330000
 21
0.930000
 31
0.000000
  0
LINE
  8
1
 10
1.330000
 20
0.930000
 30
0.000000
 11
1.410000
 21
0.850000
 31
0.000000
  0
LINE
  8
1
 10
1.910000
 20
0.850000
 30
0.000000
 11
1.840000
 21
0.920000
 31
0.000000
  0
LINE
  8
1
 10
1.840000
 20
0.920000
 30
0.000000
 11
1.780000
 21
0.920000
 31
0.000000
  0
LINE
  8
1
 10
1.780000
 20
0.920000
 30
0.000000
 11
1.729528
 21
0.970472
 31
0.000000
  0
LINE
  8
1
 10
1.729528
 20
0.970472
 30
0.000000
 11
1.729528
 21
0.993307
 31
0.000000
  0
LINE
  8
1
 10
0.505000
 20
0.850000
 30
0.000000
 11
0.610000
 21
0.745000
 31
0.000000
  0
LINE
  8
1
 10
0.610000
 20
0.745000
 30
0.000000
 11
0.610000
 21
0.640000
 31
0.000000
  0
LINE
  8
1
 10
1.120000
 20
0.740000
 30
0.000000
 11
1.120000
 21
0.640000
 31
0.000000
  0
LINE
  8
1
 10
1.120000
 20
0.620000
 30
0.000000
 11
1.120000
 21
0.640000
 31
0.000000
  0
LINE
  8
1
 10
1.010000
 20
0.850000
 30
0.000000
 11
1.120000
 21
0.740000
 31
0.000000
  0
LINE
  8
1
 10
1.510000
 20
0.850000
 30
0.000000
 11
1.610000
 21
0.750000
 31
0.000000
  0
LINE
  8
1
 10
1.610000
 20
0.750000
 30
0.000000
 11
1.610000
 21
0.630000
 31
0.000000
  0
LINE
  8
1
 10
0.935000
 20
0.445000
 30
0.000000
 11
1.120000
 21
0.260000
 31
0.000000
  0
LINE
  8
1
 10
1.120000
 20
0.260000
 30
0.000000
 11
1.230000
 21
0.260000
 31
0.000000
  0
LINE
  8
1
 10
1.230000
 20
0.260000
 30
0.000000
 11
1.315000
 21
0.345000
 31
0.000000
  0
LINE
  8
1
 10
1.315000
 20
0.345000
 30
0.000000
 11
1.495000
 21
0.345000
 31
0.000000
  0
LINE
  8
1
 10
1.495000
 20
0.345000
 30
0.000000
 11
1.556929
 21
0.283071
 31
0.000000
  0
LINE
  8
1
 10
1.556929
 20
0.283071
 30
0.000000
 11
1.556929
 21
0.277165
 31
0.000000
  0
LINE
  8
1
 10
0.330000
 20
0.620000
 30
0.000000
 11
0.430000
 21
0.720000
 31
0.000000
  0
LINE
  8
1
 10
0.430000
 20
0.720000
 30
0.000000
 11
0.430000
 21
0.870000
 31
0.000000
  0
LINE
  8
1
 10
0.430000
 20
0.870000
 30
0.000000
 11
0.480000
 21
0.920000
 31
0.000000
  0
LINE
  8
1
 10
0.740000
 20
0.920000
 30
0.000000
 11
0.780000
 21
0.960000
 31
0.000000
  0
LINE
  8
1
 10
0.780000
 20
1.043780
 30
0.000000
 11
0.829528
 21
1.093307
 31
0.000000
  0
LINE
  8
1
 10
0.480000
 20
0.920000
 30
0.000000
 11
0.740000
 21
0.920000
 31
0.000000
  0
LINE
  8
1
 10
0.780000
 20
0.960000
 30
0.000000
 11
0.780000
 21
1.043780
 31
0.000000
  0
ENDSEC
  0
EOF
